<svg id="Layer_1" data-name="Layer 1" xmlns="http://www.w3.org/2000/svg" viewBox="0 0 35 35"><defs><style>.cls-1{fill:#c5ce0d}</style></defs><path class="cls-1" d="M34.46 17.91c0 4.62 0 5.18-.1 7a12.82 12.82 0 0 1-.79 4.14 8.84 8.84 0 0 1-5 5 12.76 12.76 0 0 1-4.14.79c-1.81.07-2.38.1-7 .1s-5.2 0-7-.1a12.84 12.84 0 0 1-4.1-.84 8.42 8.42 0 0 1-3-2 7.89 7.89 0 0 1-1.95-3 12.5 12.5 0 0 1-.79-4.14c-.08-1.81-.1-2.38-.1-7s0-5.2.1-7a12.37 12.37 0 0 1 .79-4.12 8.11 8.11 0 0 1 2-3 8.11 8.11 0 0 1 3-1.95A12.37 12.37 0 0 1 10.45 1c1.81-.08 2.39-.1 7-.1s5.18 0 7 .1a12.76 12.76 0 0 1 4.14.79 8 8 0 0 1 3 1.95 8.42 8.42 0 0 1 2 3 12.62 12.62 0 0 1 .79 4.12c.06 1.86.08 2.44.08 7.05zm-3.06 0c0-4.55 0-5.09-.1-6.87a9.25 9.25 0 0 0-.6-3.16 5.17 5.17 0 0 0-1.26-1.95 5.39 5.39 0 0 0-2-1.27 9.24 9.24 0 0 0-3.14-.58c-1.77-.08-1.3-.17-5.85-.17h-1.06c-4.55 0-5.07 0-6.88.09a9.06 9.06 0 0 0-3.15.58 5 5 0 0 0-1.95 1.31 5.14 5.14 0 0 0-1.28 2 9.78 9.78 0 0 0-.6 3.11c-.06 1.81-.09 2.37-.09 6.89s0 5.09.09 6.87a9.78 9.78 0 0 0 .6 3.16 5.19 5.19 0 0 0 1.27 1.95 5.23 5.23 0 0 0 1.95 1.27 9.45 9.45 0 0 0 3.17.59c1.8.09 2.34.11 6.88.11s5.07 0 6.89-.1a9.25 9.25 0 0 0 3.16-.6 5.17 5.17 0 0 0 1.95-1.26 5.39 5.39 0 0 0 1.27-2 9.17 9.17 0 0 0 .59-3.14c.12-1.74.14-2.29.14-6.83z"/><circle class="cls-1" cx="26.53" cy="8.83" r="2.04"/><path class="cls-1" d="M17.46 9.19a8.73 8.73 0 1 1-8.73 8.73 8.73 8.73 0 0 1 8.73-8.73zm5.67 8.72a5.67 5.67 0 1 0-5.67 5.67 5.67 5.67 0 0 0 5.67-5.67z"/></svg>