<svg xmlns="http://www.w3.org/2000/svg" viewBox="0 0 30.2 30"><title>nav</title><g id="Layer_2" data-name="Layer 2"><g id="skill"><path d="M0,21H29.7v2.37H0Zm0-6.65H29.7v2.37H0ZM0,27.63H29.7V30H0ZM6.32,5.25C7.46,2.65,8.21,1,8.6.36L9.84.22,10.6.11,11.34,0a87.7,87.7,0,0,0-1.21,9.27l-2.65.41A12.14,12.14,0,0,1,7.6,8.21l.21-1.53c.09-.77.19-1.36.28-1.82H8c-.13.4-.29.78-.46,1.18L7,7.27,6.44,8.49c-.17.38-.32.76-.45,1.15H4.2l.48-4.86H4.5q-.06.3-.15.6c-.09.27-.18.57-.29.91s-.21.7-.34,1.07-.23.71-.34,1c-.18.54-.31.92-.39,1.13l-2.5.14Q2.91,3.49,3.76.6A10.2,10.2,0,0,0,5.35.52c.5-.08,1-.1,1.59-.14A2.51,2.51,0,0,1,6.85,1a4.2,4.2,0,0,0-.12.75c-.05.27-.09.53-.14.81s-.11.63-.19,1.06-.17,1-.29,1.62Zm4.13,4.54,2-9.23L17.25.2q-.11.3-.18.57l-.15.54c-.05.17-.08.33-.11.47H14.6l-.53,2.34a10.82,10.82,0,0,0,1.36,0h.71a5.42,5.42,0,0,1-.11.72c0,.23-.08.47-.13.72H13.77l-.52,2.4,2.21-.31-.15,1.49Zm11.49-.7c-.12,0-.53.08-1.23.22s-1.11.24-1.25.28c-.1-1.13-.2-2-.27-2.48S19.06,6.2,19,5.94s-.11-.81-.21-1.32a1.71,1.71,0,0,1-.12.57,4.24,4.24,0,0,1-.14.73c-.16.82-.41,2-.74,3.5l-2.21.45q1.64-7,2-9.48l.89,0H20c.13.67.23,1.22.31,1.66s.15.79.2,1.07.11.55.16.81c.1.52.2,1,.31,1.37a3.45,3.45,0,0,1,.13-.62l.17-.76c.06-.27.12-.53.19-.81s.15-.63.26-1.06S22,1,22.16.35L24,.16A82.27,82.27,0,0,0,21.94,9.09ZM24.35.57,25.11.5,26,.43l.88-.07c-.25,1-.46,1.86-.6,2.47L25.89,4.3c-.09.36-.17.7-.24,1-.15.64-.26,1.06-.31,1.26a6.27,6.27,0,0,0-.22,1.13.52.52,0,0,0,.13.38.41.41,0,0,0,.34.14A.49.49,0,0,0,26,8a1.34,1.34,0,0,0,.28-.42,2.84,2.84,0,0,0,.17-.49,2.08,2.08,0,0,1,.13-.52c.05-.18.1-.41.18-.72s.14-.63.22-1,.15-.67.23-1c.21-.88.45-2,.72-3.37L30.2.38l-.08.33c-.12.54-.25,1.15-.39,1.85s-.27,1.3-.39,1.81c-.31,1.31-.53,2.25-.68,2.81A3.81,3.81,0,0,1,28,8.5a3.54,3.54,0,0,1-.91.86,4.12,4.12,0,0,1-2.29.63,2.4,2.4,0,0,1-1.38-.38,1.39,1.39,0,0,1-.65-1.2v-.1a2,2,0,0,1,0-.35A7.56,7.56,0,0,1,23,7c.09-.46.18-1,.29-1.58s.21-1.09.33-1.64.23-1,.33-1.49C24.18,1.28,24.31.72,24.35.57Z" fill="#c5ce0d"/></g></g></svg>