<svg id="Layer_1" data-name="Layer 1" xmlns="http://www.w3.org/2000/svg" viewBox="0 0 35 35"><defs><style>.cls-1{fill:#c5ce0d;}</style></defs><title>yelp</title><path class="cls-1" d="M17.5,27.89c0,5.34,0,5.52-.11,5.78a1.25,1.25,0,0,1-1,.75c-1.36.23-5.61-1.35-6.5-2.39a1.56,1.56,0,0,1-.3-.71.78.78,0,0,1,.07-.48c.1-.28.25-.5,4.08-5l1.12-1.35A1.34,1.34,0,0,1,16,24a1.49,1.49,0,0,1,.61.13,1.53,1.53,0,0,1,.81.68,1.25,1.25,0,0,1,.14.67v2.38Z"/><path class="cls-1" d="M17.57,14.41c.08,1.95-.75,2.21-1,2.29a1.2,1.2,0,0,1-.4.07H16c-.4-.06-1-.35-1.59-1.37,0,0-7-11-7.15-11.33A1.21,1.21,0,0,1,7.59,2.9C8.64,1.82,14.28.24,15.75.61a1.18,1.18,0,0,1,.93.85C16.78,1.93,17.47,12.13,17.57,14.41Z"/><path class="cls-1" d="M23.81,19.2c-.92.24-1.42.37-1.73.47l0,0a1.35,1.35,0,0,1-.34.06A1.49,1.49,0,0,1,20.55,19l0,0a1.5,1.5,0,0,1-.25-1.06,1.29,1.29,0,0,1,.27-.58L22,15.36c3.1-4.24,3.27-4.46,3.48-4.6a1.2,1.2,0,0,1,1.23,0c1.23.59,3.71,4.29,3.87,5.71v0a1.21,1.21,0,0,1-.5,1.12C29.8,17.71,29.59,17.79,23.81,19.2Z"/><path class="cls-1" d="M13.67,22l-2.28.72c-5.09,1.63-5.24,1.67-5.51,1.66v0a1.17,1.17,0,0,1-1-.68,4.39,4.39,0,0,1-.34-1.42c-.2-1.84,0-4.62.59-5.51a1.17,1.17,0,0,1,1-.59c.28,0,.52.08,6,2.34l1.6.64a1.44,1.44,0,0,1,.89,1.49A1.34,1.34,0,0,1,13.67,22Z"/><path class="cls-1" d="M30.53,26.36c-.2,1.37-3,4.93-4.29,5.44a1.14,1.14,0,0,1-1.2-.13c-.21-.17-.44-.51-3.47-5.41l-.89-1.47a1.44,1.44,0,0,1,.16-1.73A1.49,1.49,0,0,1,22,22.48a1.36,1.36,0,0,1,.44.08l2.25.75C29.75,25,29.92,25,30.13,25.19a1.21,1.21,0,0,1,.4,1.16h0Z"/></svg>