<svg xmlns="http://www.w3.org/2000/svg" xmlns:xlink="http://www.w3.org/1999/xlink" width="561.66" height="148.72"><defs><linearGradient id="a" x1="513.71" y1="5.66" x2="481.34" y2="49.37" gradientUnits="userSpaceOnUse"><stop offset="0" stop-color="#419544"/><stop offset=".61" stop-color="#5ca344"/><stop offset="1" stop-color="#67a944"/></linearGradient><linearGradient id="b" x1="513.55" y1="5.8" x2="481.6" y2="49.12" gradientUnits="userSpaceOnUse"><stop offset="0" stop-color="#00773d"/><stop offset=".3" stop-color="#34923e"/><stop offset=".62" stop-color="#64ac3e"/><stop offset=".86" stop-color="#83bc3f"/><stop offset="1" stop-color="#8ec23f"/></linearGradient><linearGradient id="c" x1="488.94" y1="39.62" x2="516.43" y2="26.67" gradientUnits="userSpaceOnUse"><stop offset="0" stop-color="#7fb942"/><stop offset="1" stop-color="#fff"/></linearGradient><linearGradient id="d" x1="449.24" y1="10.15" x2="471.31" y2="39.96" xlink:href="#a"/><linearGradient id="e" x1="449.35" y1="10.25" x2="471.14" y2="39.78" xlink:href="#b"/><linearGradient id="f" x1="466.13" y1="33.31" x2="447.39" y2="24.48" xlink:href="#c"/></defs><path d="M471.53 50.66l-1.18-.12-.12-3.71-.61-4.36a42.11 42.11 0 0 1-4.65.21h-.22a29.17 29.17 0 0 1-8.32-1.84 19.42 19.42 0 0 1-9.43-8.35 52.15 52.15 0 0 1-4.1-9.75 26 26 0 0 0-3.28-7.11 6.7 6.7 0 0 0-3.07-2.31L419.63 7l18-1.49c3-.25 6-.48 9-.48a42.94 42.94 0 0 1 9.4.91 29.53 29.53 0 0 1 15.7 9.16l.14.15.12.16a32.83 32.83 0 0 1 3.38 5.78c.38.83.74 1.67 1.06 2.51l.49-1.08a46.16 46.16 0 0 1 4.76-8.15l.13-.17.15-.16a41.6 41.6 0 0 1 22-12.84A60.46 60.46 0 0 1 517.41 0c4.38 0 8.75.34 13.11.7l18.17 1.51-17.05 6.36a11.72 11.72 0 0 0-5.33 4c-2.39 3.1-3.83 7.31-5.1 11-1.66 4.78-3.24 9.57-5.85 14A26.69 26.69 0 0 1 502.42 49a35.55 35.55 0 0 1-10.57 2.46 55.34 55.34 0 0 1-6.44.17c-1.35 0-2.7-.13-4.05-.25-.16 2.59-.22 5.17-.31 7.76l-.13 4.12-7.11.68-.95-4a52.28 52.28 0 0 1-1.33-9.28z" fill="#231f20" fill-rule="evenodd"/><path d="M474.26 48.16l-1.18-.16-.08-1.4-1-7c-2.32 0-4.64.42-7 .34h0a26.48 26.48 0 0 1-7.47-1.63 16.66 16.66 0 0 1-8.1-7.19 50 50 0 0 1-3.87-9.25 27.79 27.79 0 0 0-3.7-7.89 9.47 9.47 0 0 0-4.31-3.22l-5.41-2 5.77-.48c2.93-.24 5.87-.47 8.81-.47a39.17 39.17 0 0 1 8.77.85 26.71 26.71 0 0 1 14.23 8.3v.1a29 29 0 0 1 3.09 5.3 39.34 39.34 0 0 1 2.48 7.05 39.92 39.92 0 0 1 .77 3.92 57.69 57.69 0 0 1 3.42-9.54 43.25 43.25 0 0 1 4.52-7.7v-.05h.05A38.72 38.72 0 0 1 504.69 4a57.77 57.77 0 0 1 12.72-1.23c4.3 0 8.59.34 12.87.69l5.9.49L530.64 6a14.55 14.55 0 0 0-6.57 4.92c-2.6 3.36-4.14 7.76-5.52 11.73-1.59 4.58-3.12 9.25-5.61 13.45a23.91 23.91 0 0 1-11.62 10.32 33.08 33.08 0 0 1-9.73 2.26 53.79 53.79 0 0 1-6.09.15c-2.1-.06-4.19-.24-6.27-.48l-.54.94c-.26 3.23-.34 6.47-.45 9.71l-.05 1.71-2.2.21-.39-1.66a50.07 50.07 0 0 1-1.34-11.1z" fill="#231f20" stroke="#231f20" stroke-miterlimit="2.61" stroke-width=".5" fill-rule="evenodd"/><path d="M411.19 90.2l.12-.47v-.28l.68-2.36c.05-.19.09-.37.14-.56l.11-.57.25-.87.46-1.15 1-3.71.14-.46.37-1c.08-.3.16-.61.25-.91l.59-2a16.21 16.21 0 0 1 .4-1.67c.13-.44.27-.88.43-1.31l.31-1.09v-.11l-.07-.47v-.42a16.08 16.08 0 0 1 .88-8.21 17.69 17.69 0 0 1 12.12-10.9l1.29-.44h.07l.14-.05h.14c.88-.27 1.74-.55 2.61-.84l2.88-1h.24c6.44-2.08 13.15-1.78 18.55 2.65a19.29 19.29 0 0 1 6.15 9.51 37 37 0 0 1 1.07 3.59c.11.44.24.89.39 1.32l.27.81v.08l.14.42 1 3.45 1.15 3.55v.14l.09.31v.3c.3 1.18.61 2.35.91 3.53.21.8.45 1.59.71 2.37V81.55l.06.18v.08l1.55 5.1v.14c.15.52.29 1 .42 1.58a20 20 0 0 1 3.41 3.09 20.5 20.5 0 0 1 4.67 11 19.68 19.68 0 0 1-.75 8.82l-.26.8-.06.13a17 17 0 0 1 .87 2.87l.4 1.44a18 18 0 0 1 6.75 10.79 17.63 17.63 0 0 1-1.53 11.06v.16l-.08.17v.07l-.05.09a18.06 18.06 0 0 1-16.76 9.47c-.92 0-1.85-.08-2.78-.15-1.15 0-2.31 0-3.46.05q-2.39.06-4.77.06h-1.5c-1.17 0-2.33.06-3.5.06s-2.31 0-3.46-.06a21.8 21.8 0 0 1-6.11-1 18.89 18.89 0 0 1-3-1.2l-.67.32a21.15 21.15 0 0 1-6.48 1.77 27.21 27.21 0 0 1-4.6.14h-2.71c-1.31 0-2.62.06-3.94.06-1.47 0-3 0-4.43-.14a21.22 21.22 0 0 1-7.45-1.73l-.18-.09-.17-.08-.36-.18-.16-.08h-.07a20.76 20.76 0 0 1-7.11 2.29h-.62a38.75 38.75 0 0 1-4.82.12c-.79 0-1.58-.05-2.37-.05-1.67 0-3.34 0-5-.05a27.14 27.14 0 0 0-2.85.1H382a22.79 22.79 0 0 1-10.32-2.34 20.36 20.36 0 0 1-8.29 2.16c-1.25.06-2.51.06-3.76 0h-1.26c-1.34.06-2.69.11-4 .15-1.79 0-3.58 0-5.36-.06h-.5l-.45-.05-1-.13-.45-.08a18 18 0 0 1-6.38-2.05 18.57 18.57 0 0 1-9.5 2.18c-.93 0-1.85-.08-2.78-.15-1.16 0-2.31 0-3.46.05q-2.38.06-4.77.06h-1.5c-1.17 0-2.33.06-3.5.06s-2.31 0-3.46-.06a21.8 21.8 0 0 1-6.11-1 18.89 18.89 0 0 1-3-1.2l-.67.32a21.15 21.15 0 0 1-6.48 1.77 27.21 27.21 0 0 1-4.6.14h-2.71c-1.31 0-2.62.06-3.94.06-1.47 0-2.95 0-4.43-.14a21.22 21.22 0 0 1-7.45-1.73l-.19-.09-.16-.08-.36-.18-.16-.08-.18-.1c-.32-.17-.63-.36-.94-.55l-.3.21-.33.2-.37.21a21.12 21.12 0 0 1-11.27 2.58H252.67c-1.17 0-2.35 0-3.52-.14h-2.26c-1.13 0-2.26.07-3.38.13a22.51 22.51 0 0 1-8.24-.93 17.29 17.29 0 0 1-10.49-9.08c-2.69 5.39-8.11 8.91-14.47 9.78H209.69a38.79 38.79 0 0 1-4.82.12c-.79 0-1.59-.05-2.38-.05-1.67 0-3.34 0-5-.05a27.24 27.24 0 0 0-2.86.1h-1.38a22.8 22.8 0 0 1-10.33-2.34 20.35 20.35 0 0 1-8.28 2.16c-1.26.06-2.52.06-3.77 0h-1.25l-4.05.15c-1.79 0-3.57 0-5.36-.06h-.5l-.45-.05-1-.13-.45-.08a18 18 0 0 1-6.37-2.05 18.59 18.59 0 0 1-9.5 2.18q-1.39 0-2.79-.15c-1.15 0-2.3 0-3.46.05-1.58 0-3.17.06-4.76.06h-1.51c-1.16 0-2.33.06-3.5.06s-2.3 0-3.46-.06a21.87 21.87 0 0 1-6.11-1 19.71 19.71 0 0 1-3-1.2l-.67.32a21.15 21.15 0 0 1-6.48 1.77 27.15 27.15 0 0 1-4.6.14h-2.7c-1.32 0-2.63.06-3.94.06-1.48 0-3 0-4.43-.14a21.22 21.22 0 0 1-7.46-1.73l-.18-.09-.17-.08-.36-.18-.16-.08-.17-.1a16.81 16.81 0 0 1-6.83-6.88c-1.36.93-2.77 1.77-4.2 2.58s-3.06 1.7-4.66 2.43l-.13.06-.13.06-.28.12h-.13l-.14.05a59.05 59.05 0 0 1-7.87 2.52 57.85 57.85 0 0 1-8.59 1.31 43.78 43.78 0 0 1-11.82-.63q-3.77-.72-7.51-1.52H29.45l-.28-.06-.26.07-.72.19-.66.14-1.48.2H25a39 39 0 0 1-3.9.16h-1.33c-6.22-.5-11.87-3.24-15.36-8.43a18 18 0 0 1-2.89-7.57c0-.15-.07-.29-.11-.44a22.18 22.18 0 0 1-.72-5l-.1-.5-.19-1-.07-.45v-.51c-.2-2.12-.29-4.25-.29-6.37v-5a54.32 54.32 0 0 1 .31-5.71 51.6 51.6 0 0 1 1-5.78v-.19l.05-.19v-.19c.22-.81.4-1.61.6-2.41.29-1.52.63-3 1-4.52l.13-.49.14-.44.36-1 .14-.34c.08-.23.15-.47.22-.7.44-1.38.9-2.75 1.38-4.12.41-1.16.81-2.33 1.22-3.49a29.16 29.16 0 0 1 1.48-3.62l-.84-1.08-.23-.28-.18-.26-.37-.58-.13-.28-.17-.31-1.35-2.44A23.8 23.8 0 0 1 2.67 68a24.65 24.65 0 0 1-.95-3.25c-.18-.76-.34-1.53-.5-2.3V62c-.31-1.24-.48-2.51-.6-3.79s-.17-2.56-.17-3.84a20.91 20.91 0 0 1 .7-5.11 19.56 19.56 0 0 1 1.56-6.68c.42-1.11.9-2.2 1.42-3.27s1-2 1.57-3A30.1 30.1 0 0 1 9 31.47c.81-1 1.63-1.9 2.48-2.83l.08-.08.07-.08.15-.16.08-.08.08-.08a41.52 41.52 0 0 1 15.21-9.62A48.38 48.38 0 0 1 46 15.78H46.86a46.08 46.08 0 0 1 10 2.2 21.9 21.9 0 0 1 12.73-1.68l.44.08.39.08.87.22.39.12.42.15a19.83 19.83 0 0 1 11.43 9.6 20.89 20.89 0 0 1 2.37 9c.16 3.24.19 6.49.11 9.73q-.11 4.22-.11 8.44V63a37.8 37.8 0 0 1 .23 4.38 18.52 18.52 0 0 1-3.39 10.76q1.14 1.44 2.22 2.91l.11.16.1.14.21.32.1.14.1.16c1 1.52 1.82 3.09 2.61 4.69v-.17l.11-.57.26-.87.45-1.15 1-3.71.15-.46.36-1c.08-.3.17-.61.26-.91l.58-2c.11-.56.24-1.12.4-1.67s.27-.88.44-1.31l.31-1.09v-.11l-.07-.47v-.42a16.18 16.18 0 0 1 .88-8.21 17.69 17.69 0 0 1 12.13-10.9l1.28-.44h.07l.15-.05h.14c.87-.27 1.74-.55 2.6-.84l2.88-1h.14c6.45-2.08 13.15-1.78 18.55 2.65a19.37 19.37 0 0 1 6.16 9.51 37 37 0 0 1 1.06 3.59c.11.44.24.89.39 1.32l.27.81v.05l.13.42.95 3.45 1.15 3.55v.14l.1.31v.3c.31 1.18.61 2.35.91 3.53q.31 1.2.72 2.37v.43l1.55 5.1v.06c.16.52.29 1 .43 1.58.53.39 1 .8 1.54 1.23v-.61q0-4.26.08-8.53v-2.68a18.11 18.11 0 0 1-3.3-5.4 17.4 17.4 0 0 1-.11-12.39V59.69C146.5 53 152.81 49 160 48.54c1.32-.08 2.63-.13 4-.13h.69c1.21 0 2.42.07 3.63 0 1.69 0 3.39-.05 5.08-.05a22.35 22.35 0 0 1 10 2.15 19.88 19.88 0 0 1 8.13-2.18 32.91 32.91 0 0 1 4.44.08 8.65 8.65 0 0 0 .88 0h.75c1.17 0 2.34.06 3.52 0 1.41 0 2.83-.08 4.24-.15h.74a25.09 25.09 0 0 1 10.28 2 17.53 17.53 0 0 1 1.83.94A21.3 21.3 0 0 1 229 49.66l2.93.27h.16l2.71.29c.5 0 1 .08 1.51.1s1 0 1.48 0H239.78a20.94 20.94 0 0 1 3.75-1 23.69 23.69 0 0 1 4-.34h2c1.18 0 2.35 0 3.52.06a31 31 0 0 1 6.16.66c.66.15 1.3.32 1.94.51h1.25c.93 0 1.86.07 2.79 0a15.1 15.1 0 0 0 1.91-.24c1.46-.25 2.92-.42 4.39-.54a19.75 19.75 0 0 1 14.19 4 17.79 17.79 0 0 1 1.57 1.42 18.76 18.76 0 0 1 6.75-3.43l1.29-.44h.07l.14-.05h.14q1.31-.4 2.61-.84l2.88-1h.19c6.45-2.08 13.16-1.78 18.56 2.65a19.29 19.29 0 0 1 6.15 9.51 37 37 0 0 1 1.07 3.59c.11.44.24.89.39 1.32l.27.81v.08l.14.42.94 3.45 1.16 3.55v.14l.09.31v.3c.3 1.18.61 2.35.91 3.53.21.8.45 1.59.71 2.37V81.29l.06.18v.08l1.55 5.1v.14c.15.52.29 1 .42 1.58.54.39 1.05.8 1.55 1.23v-.61q0-4.26.08-8.53v-2.68a18.11 18.11 0 0 1-3.3-5.4 17.46 17.46 0 0 1-.12-12.39v-.14l.06-.14v-.13c2.66-6.68 9-10.73 16.18-11.14 1.32-.08 2.64-.13 4-.13h.7c1.21 0 2.42.07 3.63 0 1.69 0 3.38-.05 5.07-.05a22.37 22.37 0 0 1 10.05 2.15 19.88 19.88 0 0 1 8.12-2.18 32.88 32.88 0 0 1 4.44.08h1.63c1.18 0 2.35.06 3.53 0 1.41 0 2.82-.08 4.24-.15h.74a25.12 25.12 0 0 1 10.28 2 17.85 17.85 0 0 1 6.09 27.38V82q0 3.36-.14 6.71v.69c0 .25 0 .5.05.76zm-188.77 5.36v3.08q.07 3.38.08 6.75v5.7q0 3-.15 6a5.21 5.21 0 0 0 0 .55c.05.64.08 1.29.1 1.94a18.68 18.68 0 0 1 2.38 3.81 17.22 17.22 0 0 1 1.18-2.09 19.73 19.73 0 0 1 1.2-1.68v-1.6c-.12-2.42-.17-4.84-.17-7.26v-14.7a22.09 22.09 0 0 1-4.63-.5zm271 1.53a25.26 25.26 0 0 1-1.67-3.38 27 27 0 0 1-1.46-4.46c0-.18-.09-.37-.13-.55a17.9 17.9 0 0 1-1.09-6.14v-2.18a17.09 17.09 0 0 1 .16-2.38 19 19 0 0 1 .69-4.38c.3-1.07.62-2.14 1-3.19a24.89 24.89 0 0 1 2.62-5.33 33 33 0 0 1 8.62-9.23 35.84 35.84 0 0 1 7.38-4.19l.2-.08.17-.07.39-.15.17-.06.2-.07a36.89 36.89 0 0 1 11.93-2h.75a28.81 28.81 0 0 1 6.35.71h.4c.8.12 1.59.27 2.37.46a27.23 27.23 0 0 1 2.82-.61 18.88 18.88 0 0 1 11.82 1.9 17.35 17.35 0 0 1 9 13.59 35 35 0 0 1 .15 5.51c0 .81-.06 1.61-.06 2.42v3.27c0 .63 0 1.26.09 1.88v1.39a18.61 18.61 0 0 1-3.94 11.67 19.23 19.23 0 0 1 3 3.81l1.65 2.73a25 25 0 0 1 2.77 5.86c.32 1 .61 2 .89 3l.08.31.06.28.13.62.05.29.4 2.85v2.15a21.16 21.16 0 0 1-.07 4.43 20.61 20.61 0 0 1-.47 3.23c-.09.39-.17.78-.26 1.17l-.07.38-.09.33-.2.73-.11.33a18.72 18.72 0 0 1-1.21 4.06 18.49 18.49 0 0 1-1.2 2.6 28.57 28.57 0 0 1-4.05 5.73 38.56 38.56 0 0 1-4.54 4.31 34.68 34.68 0 0 1-6.58 4.17l-.49.27-.44.21-.5.22a36.1 36.1 0 0 1-5.08 1.71 42.87 42.87 0 0 1-4.61 1h-.74c-1.83.19-3.66.3-5.49.34a49.68 49.68 0 0 1-6.22-.23q-1.62-.16-3.21-.45c-.8-.15-1.59-.32-2.38-.5h-.12l-1.92.29a20.53 20.53 0 0 1-13.5-2.82l-.12-.08-.12-.07-.24-.16-.11-.08-.13-.08a17 17 0 0 1-5-5.34l-.4-.55-.69-1.35-1.09-3.14-.24-1.49v-.86l-.05-.2v-.18l-.08-.4v-.39a46.08 46.08 0 0 1-.57-5.63c0-1.11-.11-2.22-.19-3.32v-1.2c0-1.51.08-3 .21-4.52a42.22 42.22 0 0 1 .64-4.61c.25-1.59.57-3.18.95-4.75a42.23 42.23 0 0 1 1.66-5.26l.52-1.64c.07-.83.34-1.65.66-2.46z" fill="#231f20" fill-rule="evenodd"/><path d="M13 94.17c.19-.48.36-1 .51-1.53.41-1.29.84-2.57 1.29-3.85l1.2-3.52a13.18 13.18 0 0 1 1.58-3.43l.06-.08.11-.15.06-.07a10 10 0 0 1 3.47-2.71c-.67-.64-1.31-1.29-1.93-2A31.54 31.54 0 0 1 17 74l-1.68-2.3-.12-.15-.2-.32-.09-.17c-.45-.81-.9-1.63-1.34-2.45a13.84 13.84 0 0 1-1.37-3.51 17.89 17.89 0 0 1-.76-2.49c-.17-.72-.32-1.44-.47-2.16v-.14c-.18-1-.31-2-.4-3s-.14-2-.14-3a13.33 13.33 0 0 1 .57-3.52 2.63 2.63 0 0 0 0-.49 10 10 0 0 1 1-4.12c.34-.91.72-1.81 1.15-2.69s.89-1.76 1.36-2.63a20.28 20.28 0 0 1 2.21-3.23c.71-.85 1.44-1.69 2.19-2.5v-.05L19 35a31.64 31.64 0 0 1 11.6-7.31 38.26 38.26 0 0 1 14.98-2.19h.32a37 37 0 0 1 8.33 1.91 10.73 10.73 0 0 0 3.52.72 6.57 6.57 0 0 0 2.25-.75 12.05 12.05 0 0 1 7.84-1.49h.24l.47.12.23.08a10 10 0 0 1 5.83 4.81 11.2 11.2 0 0 1 1.31 5c.15 3 .19 6.1.11 9.15Q76 49.42 76 53.76v9.87a28.25 28.25 0 0 1 .23 3.79 8.88 8.88 0 0 1-4.88 8 11.52 11.52 0 0 1-3.4 1.17l1.22 1.11c1 .9 1.95 1.85 2.85 2.84l.06.06.11.13v.07l2.24 2.76q1.26 1.55 2.43 3.15l.06.09.08.2v.09a39 39 0 0 1 4.6 10.27 28.21 28.21 0 0 1 .72 11.49 39.18 39.18 0 0 1-2.09 8.59v.09l-.07.18v.09a31.63 31.63 0 0 1-4.15 7 47.57 47.57 0 0 1-5.89 5.9l-.13.11-.27.21-.14.09c-1.14.78-2.35 1.5-3.55 2.18s-2.54 1.42-3.85 2h-.08l-.15.06h-.08a49.48 49.48 0 0 1-6.52 2.09 48.41 48.41 0 0 1-7.08 1.07 33.18 33.18 0 0 1-9.06-.48q-3.66-.7-7.3-1.48H31.57a17.19 17.19 0 0 0-1.92-.4 4.45 4.45 0 0 0-1-.05c-.22 0-.45.08-.67.14l-1.68.46-.39.11-.81.11h-.65a29 29 0 0 1-3.35.15h-.49c-3.13-.25-6.08-1.43-7.87-4.08a8.5 8.5 0 0 1-1.39-4c-.09-.38-.19-.77-.29-1.15a13.29 13.29 0 0 1-.42-3.39 4.89 4.89 0 0 0 0-.54c-.05-.26-.11-.52-.18-.77l-.08-.26-.11-.55v-.27c-.17-1.84-.25-3.67-.25-5.51v-5a43.22 43.22 0 0 1 .26-4.69 42 42 0 0 1 .78-4.71v-.11q.41-1.52.69-3.06c.25-1.29.54-2.58.88-3.85l.07-.27.2-.52.08-.17zm26.6-1a9.49 9.49 0 0 1-1 1.51l-2.11 2.6a15.93 15.93 0 0 0-3.11 9.56v.16a13.54 13.54 0 0 0 .13 2.2 13.2 13.2 0 0 0 .4 1.62 12.51 12.51 0 0 0 .64 1.63c.44 1 .9 1.92 1.36 2.87A7.8 7.8 0 0 0 38 117.9a8.66 8.66 0 0 0 3.28 1.6 7.07 7.07 0 0 0 3.36 0 7.69 7.69 0 0 0 3.21-1.8 8.7 8.7 0 0 0 2.6-5.07 12.87 12.87 0 0 0-.83-6.35 26.92 26.92 0 0 0-2.18-4A49.28 49.28 0 0 0 44.28 98c-1.39-1.62-2.89-3.16-4.44-4.64l-.28-.21zm13-28.29v-.38a17 17 0 0 0 .08-2.94c-.07-1.21-.17-2.41-.31-3.61v-.61c-.14-.8-.24-1.61-.32-2.43a4 4 0 0 0-.23-1l-.06-.15-.09-.31v-.15a15.56 15.56 0 0 0-1.47-3.82 17.56 17.56 0 0 0-1.2-1.85 9.8 9.8 0 0 0-1.22-1.36 9.81 9.81 0 0 0-3.53-1.63 6.32 6.32 0 0 0-3.28.57 4.55 4.55 0 0 0-1.12.87 12.51 12.51 0 0 0-1.14 1.49 4.17 4.17 0 0 0-.15 2v.4a9.44 9.44 0 0 0 2.13 4.26c.73.87 1.45 1.75 2.21 2.6A29.61 29.61 0 0 0 45.12 59c.8.73 1.63 1.43 2.48 2.1l2.89 2.28 2.09 1.47zm66.91 73.26c-3.73-1.12-6.09-4.36-5.44-8.26a9.37 9.37 0 0 1 2.7-5.3l.08-.08.17-.15.09-.07c.33-.27.68-.53 1-.77l-.12-.37c-.38-1.11-.76-2.24-1.11-3.36v-.08l-.05-.15c-.28.09-.56.2-.83.3-.72.26-1.45.49-2.18.69a10.46 10.46 0 0 1-2.63.77l-1.36.34-1 .23c-.12.36-.23.73-.33 1.09 0 .1 0 .2-.08.3l.29.22a12 12 0 0 1 2.71 2.8 8.38 8.38 0 0 1 1.33 5.92v.6a7.23 7.23 0 0 1-4.12 4.87 11.26 11.26 0 0 1-3.42.92 17.7 17.7 0 0 1-2.91.09h-3.57c-1.21 0-2.41.06-3.61.06s-2.47 0-3.7-.12a11.48 11.48 0 0 1-4-.85h-.1l-.2-.1-.09-.05a7.29 7.29 0 0 1-3.73-7.07 9.46 9.46 0 0 1 1.16-4.25v-.07a10.16 10.16 0 0 1 2.46-2.73l1.1-.86.2-.17v-.06a6.64 6.64 0 0 0 .58-1.71c0-.24.09-.47.15-.71a9.82 9.82 0 0 1-2-2l-.06-.08-.11-.18-.06-.08a10.27 10.27 0 0 1-1.4-5.06 8.84 8.84 0 0 1 1.87-6.26v-.05l.09-.09v-.05a8.25 8.25 0 0 1 6.32-2.73l.06-.27.16-.52.11-.25a7.17 7.17 0 0 0 .32-1.12v-.24l.7-2.27.1-.27c0-.14 0-.27.08-.4.09-.45.21-.89.33-1.32v-.12l.08-.24.53-1.36.93-2.87v-.08l.79-2.71c0-.24.1-.47.16-.7l.09-.47.52-1.31 1-4.07.2-.55.13-.26v-.09c.12-.47.24-.93.37-1.39l.75-2.57a7.21 7.21 0 0 1 .24-1.12 7.77 7.77 0 0 1 .33-.92l.95-3.34a3.31 3.31 0 0 1 .12-.42l-.37-2.17v-.49a6.58 6.58 0 0 1 .36-3.62 7.92 7.92 0 0 1 5.69-4.89l1.57-.53h.08c1-.3 1.92-.61 2.87-.94l2.89-1c3.05-1 6.39-1.31 9 .87a9.75 9.75 0 0 1 3.07 5 29.93 29.93 0 0 1 .87 2.89c.18.72.39 1.42.62 2.12l.15.44v.13l.16.43.95 3.44 1.19 3.7.05.17v.08c.3 1.18.6 2.36.91 3.53s.58 2.08.93 3.1v.1l1.54 5c.2.67.36 1.35.53 2s.4 1.6.63 2.4c.1.35.2.7.31 1l.37.12a9.38 9.38 0 0 1 4 2.75 11.18 11.18 0 0 1 2.36 6 10.12 10.12 0 0 1-.37 4.54l-.14.44-.42.81-.28.38a9.29 9.29 0 0 1-.75.91l.79 2.83.08.36v.18a4.24 4.24 0 0 0 .28.8 8.53 8.53 0 0 1 .74 2.22l.78 2.86.68 2.21c0 .13.09.25.14.38l.32.17a9 9 0 0 1 5.15 6.23 8.13 8.13 0 0 1-.73 5.08v.14a8 8 0 0 1-7.57 4.23c-.93 0-1.87-.08-2.8-.15h-4c-1.51 0-3 .05-4.53.05h-1.89q-1.56.06-3.12.06c-1 0-2 0-3.05-.06a11.73 11.73 0 0 1-3.39-.55zm49.94.61q-2.07.09-4.14.15c-1.54 0-3.08 0-4.61-.06h-.28l-.54-.07-.26-.06a.85.85 0 0 0-.23 0 7.75 7.75 0 0 1-3.66-1.29 7.31 7.31 0 0 1-3-7.58 8.8 8.8 0 0 1 2.73-5.06 13.19 13.19 0 0 1 1.62-1.37 11.75 11.75 0 0 1-.13-1.78v-.48a21.8 21.8 0 0 0 .06-2.68 30 30 0 0 1 .07-3.91c0-1.25-.06-2.49-.14-3.74a26 26 0 0 1 .11-4.83 11.91 11.91 0 0 1-.13-1.69V89.09c0-2.78 0-5.57.08-8.35q.08-3.63-.05-7.26l-.51-.36A8.88 8.88 0 0 1 153.1 69a7.94 7.94 0 0 1 0-5.66v-.08a8.18 8.18 0 0 1 7.49-5c1.12-.06 2.25-.11 3.38-.11h.26c1.43.06 2.86.08 4.3 0h4.84c2.67 0 5.37.49 7.36 2.39a17.43 17.43 0 0 1 2.5 3.18l.67 1a7.79 7.79 0 0 1 3.57-5.18 9.57 9.57 0 0 1 4.6-1.41 22 22 0 0 1 3 .06c.58.05 1.17.08 1.75.08h.28c1.4.06 2.81.08 4.21 0s3-.09 4.48-.15h.28a15.31 15.31 0 0 1 6.18 1.09 7.29 7.29 0 0 1 2.88 2.24 8.56 8.56 0 0 1-1.73 11.41c-.29.23-.6.45-.9.67V82q0 3.27-.15 6.56 0 .77.06 1.53c.06.86.09 1.73.09 2.6V93c-.09 2-.12 3.91-.07 5.87q.08 3.25.08 6.52v5.7q0 2.93-.15 5.85c0 .48 0 1 .05 1.45.07.82.1 1.64.1 2.46v.34l-.08.68-.07.29v1.21c.48.42 1 .86 1.4 1.31a8.47 8.47 0 0 1 2.69 7.6c-.65 3.82-3.84 6-7.57 6.49H208.65a27.54 27.54 0 0 1-3.52.08h-2.69c-1.59 0-3.18 0-4.76-.05a37.25 37.25 0 0 0-4 .13h-.52c-3.34 0-6.55-1-8.72-3.59l-.2-.24-.33-.5-.15-.27a7.44 7.44 0 0 1 .06-7.61 12.37 12.37 0 0 1 2.29-2.67l1-.87a10.83 10.83 0 0 0 0-1.5c0-1.1-.1-2.2-.2-3.29v-3.98c0-.09-.05-.18-.07-.26a1.78 1.78 0 0 0-.21-.44l-.1-.15-.17-.31-.08-.16-.08-.12c-.24-.3-.48-.59-.73-.88l-.09-.09-.16-.21-.08-.1a14.54 14.54 0 0 1-1-1.49c-.14-.18-.27-.38-.39-.57a25.32 25.32 0 0 1-1.6-2l-1.15-1.75a15 15 0 0 1-1.36-2.18l-.21-.23-.09-.1c-.31-.38-.62-.76-.93-1.16v.58a13.2 13.2 0 0 1-.12 1.78 8.63 8.63 0 0 1 .12 1.43V113.25a2.72 2.72 0 0 0 0 .57c.07.82.09 1.64.09 2.46v.59a16.16 16.16 0 0 0 0 2.2 28.91 28.91 0 0 1-.09 4v.44h.06a8.62 8.62 0 0 1 3.52 3.75 9.79 9.79 0 0 1 .71 4 7.24 7.24 0 0 1-3.81 6.45 10.26 10.26 0 0 1-4.44 1.2h-4.71zm80.39.09a26.28 26.28 0 0 0-3.2 0c-1.24 0-2.48.08-3.72.14a12.16 12.16 0 0 1-4.57-.48 7.45 7.45 0 0 1-5.2-6.12 8.11 8.11 0 0 1 1.31-5.78 10.41 10.41 0 0 1 2.56-2.77v-.55a40.68 40.68 0 0 0 .13-5.63q-.16-3.41-.16-6.81V79.13h-.29c-.19.13-.39.29-.55.42a8.79 8.79 0 0 1-4 5.21 9.76 9.76 0 0 1-7.84 1.24 8.12 8.12 0 0 1-6.49-6.68 11.6 11.6 0 0 1-.13-3q.06-.61.06-1.23v-.55a23.31 23.31 0 0 0 .15-2.54v-3a2 2 0 0 0-.05-.49 6.64 6.64 0 0 1-.18-2.26 7.51 7.51 0 0 1 4.63-6 11.16 11.16 0 0 1 5.72-.78l2.85.26h.13l2.83.3c.66.06 1.32.1 2 .14s1.32 0 2 0h.52c.78.07 1.57.09 2.36.09a5.83 5.83 0 0 0 1-.07 10.24 10.24 0 0 0 1-.33 11.59 11.59 0 0 1 2.58-.76 13.79 13.79 0 0 1 2.32-.19h2c1.09 0 2.18 0 3.26.05a21.34 21.34 0 0 1 4.16.41c.45.1.9.22 1.35.35s.91.29 1.35.47H262.01c1.18.05 2.37.08 3.56.05a24.65 24.65 0 0 0 3.32-.39c1.17-.2 2.36-.32 3.54-.42a9.64 9.64 0 0 1 7 1.86 8.15 8.15 0 0 1 2.93 7.36c-.06.63-.13 1.3-.13 1.94v3.53c0 .9 0 1.8.11 2.69a7.47 7.47 0 0 1-2.22 6.9 10.15 10.15 0 0 1-7.36 2.73 8.77 8.77 0 0 1-7.5-4.44 13.27 13.27 0 0 1-1.1-2.07 4.67 4.67 0 0 0-.51-.23v15.1q0 5.81-.15 11.59c0 1.07 0 2.14.07 3.21.05 1.26.08 2.52.08 3.78s0 2.81-.08 4.22a94.46 94.46 0 0 0-.07 3.77v.38a19.56 19.56 0 0 0 0 2l.38.27.09.07.18.13.08.06a8.93 8.93 0 0 1 3.23 5.38 7.6 7.6 0 0 1-2.77 7.51l-.18.15-.39.26-.2.11a11.25 11.25 0 0 1-6 1.26H252.7c-.95 0-1.9 0-2.85-.11zm58.41-.7a11.8 11.8 0 0 0 3.4.55c1 0 2 .06 3.05.06s2.08 0 3.11-.06h1.89c1.52 0 3 0 4.54-.05h4c.94.07 1.87.12 2.81.15a8 8 0 0 0 7.57-4.23v-.05l.05-.09a8.13 8.13 0 0 0 .73-5.08 9 9 0 0 0-5.1-6.34l-.32-.17-.15-.38-.67-2.21-.78-2.86a8.92 8.92 0 0 0-.74-2.22 4.29 4.29 0 0 1-.29-.8v-.18l-.08-.36-.79-2.83a11 11 0 0 0 .75-.91l.27-.38.42-.81.14-.44a10 10 0 0 0 .38-4.54 11.11 11.11 0 0 0-2.37-6 9.29 9.29 0 0 0-4-2.75l-.38-.12c-.11-.35-.21-.7-.31-1q-.33-1.2-.63-2.4c-.16-.67-.33-1.35-.52-2l-1.54-5v-.1c-.35-1-.66-2.06-.93-3.1s-.6-2.35-.91-3.53v-.08l-.05-.17-1.2-3.7-.94-3.44-.16-.43v-.13l-.15-.44c-.24-.7-.45-1.4-.62-2.12a29.93 29.93 0 0 0-.87-2.89 9.81 9.81 0 0 0-3.07-5c-2.66-2.18-6-1.85-9-.87h-.05l-2.88 1c-.95.33-1.91.64-2.87.94h-.08l-1.57.53a7.94 7.94 0 0 0-5.75 4.95 6.58 6.58 0 0 0-.35 3.62v.49l.43 2.15-.12.42-.95 3.34c-.12.3-.23.61-.33.92a8.56 8.56 0 0 0-.23 1.12l-.75 2.57c-.14.46-.26.92-.37 1.39v.09l-.13.26-.2.55-1 4.07-.52 1.31-.09.47a5.47 5.47 0 0 0-.16.7l-.8 2.71v.08L285 94.8l-.53 1.36-.09.24v.12c-.13.43-.24.87-.34 1.32 0 .13-.05.26-.07.4l-.11.27-.7 2.27v.24a8.49 8.49 0 0 1-.33 1.12l-.1.25-.16.52-.06.27a8.25 8.25 0 0 0-6.32 2.73l-.05.05-.08.09-.05.05a8.84 8.84 0 0 0-1.87 6.26 10.39 10.39 0 0 0 1.41 5.06v.08l.12.18.06.08a9.53 9.53 0 0 0 2 2c-.05.24-.1.47-.14.71a7 7 0 0 1-.58 1.71v.06l-.21.17-1.1.86a10.5 10.5 0 0 0-2.46 2.73l-.05.07a9.44 9.44 0 0 0-1.19 4.43 7.28 7.28 0 0 0 3.72 7.07l.1.05.19.1h.1a11.59 11.59 0 0 0 4 .85c1.22.09 2.46.12 3.69.12s2.41 0 3.61-.06h3.58a17.54 17.54 0 0 0 2.9-.09 11.24 11.24 0 0 0 3.43-.92 7.28 7.28 0 0 0 4.12-4.87v-.15l.06-.3v-.15a8.38 8.38 0 0 0-1.33-5.92 12 12 0 0 0-2.71-2.8l-.29-.22c0-.1.05-.2.08-.3.1-.36.21-.73.33-1.09l1-.23 1.35-.34a10.34 10.34 0 0 0 2.63-.77c.74-.2 1.47-.43 2.18-.69l.84-.3V119.72c.35 1.12.72 2.25 1.11 3.36l.12.37c-.36.24-.7.5-1 .77l-.09.07-.17.15-.08.08a9.37 9.37 0 0 0-2.7 5.3c-.66 3.9 1.71 7.14 5.43 8.26zm49.94.61c-1.38.06-2.75.11-4.13.15-1.54 0-3.08 0-4.62-.06h-.27l-.54-.07-.27-.06a.83.83 0 0 0-.22 0 7.72 7.72 0 0 1-3.66-1.29 7.33 7.33 0 0 1-3-7.58 8.91 8.91 0 0 1 2.73-5.06 13.29 13.29 0 0 1 1.63-1.37 11.75 11.75 0 0 1-.13-1.78v-.48a20 20 0 0 0 .06-2.68 31.9 31.9 0 0 1 .07-3.91c0-1.25-.05-2.49-.14-3.74a26 26 0 0 1 .12-4.83 11.91 11.91 0 0 1-.13-1.69V89.09c0-2.78 0-5.57.08-8.35q.06-3.63 0-7.26l-.51-.36a8.82 8.82 0 0 1-3.37-4.1 7.94 7.94 0 0 1-.05-5.66v-.08a8.18 8.18 0 0 1 7.49-5c1.13-.06 2.26-.11 3.38-.11h.29c1.44.06 2.87.08 4.3 0h4.84c2.68 0 5.38.49 7.36 2.39a17.06 17.06 0 0 1 2.5 3.15l.67 1a7.78 7.78 0 0 1 3.56-5.18 9.61 9.61 0 0 1 4.61-1.41 22 22 0 0 1 3 .06c.58.05 1.17.08 1.75.08h.28c1.4.06 2.81.08 4.21 0s3-.09 4.48-.15h.28a15.34 15.34 0 0 1 6.18 1.09 7.44 7.44 0 0 1 2.88 2.24 8.56 8.56 0 0 1-1.73 11.41l-.91.67V82q0 3.27-.15 6.56 0 .77.06 1.53c.07.86.09 1.73.09 2.6V93c-.1 2-.12 3.91-.07 5.87q.07 3.25.07 6.52v5.7q0 2.93-.15 5.85c0 .48 0 1 .06 1.45q.09 1.23.09 2.46v.34l-.08.68-.07.29v1.21c.49.42 1 .86 1.4 1.31a8.44 8.44 0 0 1 2.69 7.6c-.64 3.82-3.83 6-7.56 6.49h-.24a27.43 27.43 0 0 1-3.51.08h-2.69c-1.59 0-3.18 0-4.77-.05a37.42 37.42 0 0 0-4 .13H382c-3.33 0-6.54-1-8.72-3.59l-.19-.24-.34-.5-.14-.27a7.44 7.44 0 0 1 .06-7.61 12.6 12.6 0 0 1 2.28-2.67l1-.87a12.65 12.65 0 0 0 0-1.5c0-1.1-.1-2.2-.2-3.29v-3.98a2 2 0 0 0-.08-.26 1.46 1.46 0 0 0-.2-.44l-.1-.15-.18-.31-.07-.16a.83.83 0 0 0-.12-.09c-.24-.3-.48-.59-.73-.88l-.09-.09-.16-.21-.08-.1a14.63 14.63 0 0 1-1-1.49c-.14-.18-.27-.38-.39-.57-.56-.64-1.09-1.3-1.6-2s-.85-1.18-1.28-1.76a15.94 15.94 0 0 1-1.37-2.18 2.2 2.2 0 0 0-.2-.23l-.09-.1c-.32-.38-.63-.76-.93-1.16v.58a13.2 13.2 0 0 1-.12 1.78 8.63 8.63 0 0 1 .12 1.43V113.27a2.18 2.18 0 0 0 0 .57q.09 1.23.09 2.46v.59A13.48 13.48 0 0 0 367 119a28.91 28.91 0 0 1-.09 4v.44h.07a8.54 8.54 0 0 1 3.51 3.75 9.62 9.62 0 0 1 .71 4 7.24 7.24 0 0 1-3.81 6.45 10.22 10.22 0 0 1-4.44 1.2h-4.71zm85.29-.61c-3.72-1.12-6.09-4.36-5.43-8.26a9.37 9.37 0 0 1 2.7-5.3l.08-.08.17-.15.09-.07c.33-.27.67-.53 1-.77l-.12-.37c-.39-1.11-.76-2.24-1.11-3.36V119.55c-.28.09-.56.2-.84.3-.71.26-1.44.49-2.18.69a10.34 10.34 0 0 1-2.63.77l-1.35.34-1 .23c-.12.36-.23.73-.33 1.09 0 .1-.06.2-.08.3l.29.22a12 12 0 0 1 2.71 2.8 8.38 8.38 0 0 1 1.33 5.92v.15l-.06.3v.15a7.28 7.28 0 0 1-4.12 4.87 11.24 11.24 0 0 1-3.43.92 17.54 17.54 0 0 1-2.9.09h-3.58c-1.2 0-2.4.06-3.61.06s-2.47 0-3.69-.12a11.48 11.48 0 0 1-4-.85h-.11l-.19-.1-.1-.05a7.28 7.28 0 0 1-3.72-7.07 9.44 9.44 0 0 1 1.15-4.25l.05-.07a10.5 10.5 0 0 1 2.46-2.73l1.11-.86.2-.17v-.06a7 7 0 0 0 .58-1.71c0-.24.09-.47.14-.71a9.53 9.53 0 0 1-2-2l-.06-.08-.12-.18-.05-.08a10.27 10.27 0 0 1-1.4-5.06 8.8 8.8 0 0 1 1.87-6.26v-.05l.08-.09.05-.05a8.25 8.25 0 0 1 6.32-2.73l.06-.27.16-.52.1-.25a7.2 7.2 0 0 0 .33-1.12v-.24l.69-2.27.11-.27c0-.14.05-.27.07-.4.1-.45.21-.89.34-1.32v-.12l.08-.24.53-1.36.68-2.63v-.08l.8-2.71a5.47 5.47 0 0 1 .16-.7l.09-.47.52-1.31 1-4.07.2-.55.13-.26v-.09c.11-.47.23-.93.37-1.39l.75-2.57a7.21 7.21 0 0 1 .24-1.12c.09-.31.2-.62.32-.92l.95-3.34.12-.42-.19-2.41-.05-.49a6.58 6.58 0 0 1 .36-3.62 7.9 7.9 0 0 1 5.74-4.89l1.57-.53h.08c1-.3 1.92-.61 2.87-.94l2.88-1h.05c3-1 6.38-1.31 9 .87a9.81 9.81 0 0 1 3.07 5 29.93 29.93 0 0 1 .87 2.89c.17.72.38 1.42.62 2.12l.15.44v.13l.16.43.94 3.44 1.2 3.7.05.17v.08c.31 1.18.61 2.36.91 3.53s.58 2.08.93 3.1v.1l1.54 5c.2.67.36 1.35.52 2s.41 1.6.63 2.4c.1.35.21.7.31 1l.38.12a9.29 9.29 0 0 1 4 2.75 11.11 11.11 0 0 1 2.37 6 10 10 0 0 1-.38 4.54l-.14.44-.42.81-.27.38a11 11 0 0 1-.75.91l.79 2.83.08.36v.18a4.29 4.29 0 0 0 .29.8 8.92 8.92 0 0 1 .74 2.22l.78 2.86.67 2.21.15.38.32.17a9 9 0 0 1 5.15 6.23 8.13 8.13 0 0 1-.73 5.08l-.05.09v.05a8 8 0 0 1-7.57 4.23c-.94 0-1.87-.08-2.81-.15h-4c-1.51 0-3 .05-4.54.05h-1.89c-1 0-2.07.06-3.11.06s-2 0-3.05-.06a11.8 11.8 0 0 1-3.4-.55zM551.6 117a12.59 12.59 0 0 1-.28 2c-.1.44-.19.88-.29 1.32v.2l-.11.4-.07.19c0 .12-.09.25-.13.37a9.57 9.57 0 0 1-1 2.78 8.76 8.76 0 0 1-.74 1.7 19.27 19.27 0 0 1-2.75 3.89 29 29 0 0 1-3.41 3.24 24.65 24.65 0 0 1-4.89 3.06l-.49.27-.27.12a26.18 26.18 0 0 1-3.66 1.22 34 34 0 0 1-3.58.75h-.28c-1.55.16-3.1.25-4.66.29a38.79 38.79 0 0 1-4.94-.19c-.8-.08-1.6-.18-2.39-.33s-1.32-.26-2-.41h-.25c-.53-.15-1.08-.3-1.62-.42a3.39 3.39 0 0 0-.54.05c-1.09.2-2.19.38-3.29.53a10.37 10.37 0 0 1-6.86-1.45h-.07l-.13-.09h-.07a6.89 6.89 0 0 1-2.28-2.55l-.3-.42-.57-1.74v-.9-.32c-.08-.38-.15-.76-.25-1.14v-.11l-.05-.22v-.11a37.17 37.17 0 0 1-.44-4.47c-.05-1.23-.12-2.46-.22-3.68v-.44c0-1.24.07-2.48.18-3.71a31.72 31.72 0 0 1 .52-3.74c.22-1.4.49-2.8.83-4.18a32.92 32.92 0 0 1 1.39-4.32l.66-2.08a12.68 12.68 0 0 1 3.12-5.75l-.21-.23c-.54-.6-1.05-1.24-1.53-1.89A18.37 18.37 0 0 1 501 90a17.05 17.05 0 0 1-1-2.93c-.11-.46-.22-.91-.35-1.37a8.46 8.46 0 0 1-.63-3.18v-2.14a8 8 0 0 1 .15-1.55v-.22a8.93 8.93 0 0 1 .36-2.46c.23-.87.5-1.73.79-2.58a16.09 16.09 0 0 1 1.69-3.4 23.4 23.4 0 0 1 6.17-6.57 25.87 25.87 0 0 1 5.33-3h.11l.21-.08h.1A26.77 26.77 0 0 1 522.6 59h.75a18.72 18.72 0 0 1 4.09.46h.25a6.06 6.06 0 0 0 .74.15 19.31 19.31 0 0 1 2.24.45c.69.19 1.38.38 2.06.6l1-.37a16.66 16.66 0 0 1 3.12-.82 8.69 8.69 0 0 1 5.47.84 7.66 7.66 0 0 1 3.92 6.11 25.56 25.56 0 0 1 .1 4c0 1-.07 1.9-.07 2.85v3.27c0 .92.05 1.83.13 2.75v.52a9 9 0 0 1-2.13 6c-2.17 2.48-5.38 2.82-8.48 2.47a11.68 11.68 0 0 1-2.67-.62l.57.41 2.34 1.71.15.11 3 2.48h.06l2.76 2.52a15.49 15.49 0 0 1 1.63 1.61l.91 1a4.89 4.89 0 0 0 .46.5 9.5 9.5 0 0 1 1.84 2.26l1.75 2.89a15.13 15.13 0 0 1 1.76 3.67c.27.86.52 1.72.75 2.6v.17l.07.34.35 2.54v1.82a12.47 12.47 0 0 1-.06 2.73zm-30.7-7.42l-1 1.17a11.31 11.31 0 0 0-1.35 2.18 8.52 8.52 0 0 0-.18 2.08c0 .27 0 .55.05.81.06.62.11 1.23.16 1.85 0 .31.06.62.11.93a18.73 18.73 0 0 0 1.41 2.41 10 10 0 0 0 1.74 1.25 2.68 2.68 0 0 0 .73.3 5 5 0 0 0 1.69-.4 2.36 2.36 0 0 0 .89-.67 5.42 5.42 0 0 0 .65-.88 9.09 9.09 0 0 0 .27-1.81 5.24 5.24 0 0 0-.19-1.57 12.39 12.39 0 0 0-1.29-3 24.8 24.8 0 0 0-2.22-3.15l-1.51-1.48zM529.46 85a7.14 7.14 0 0 1-.83-1.43 21.32 21.32 0 0 1-1-2.81c-.23-.68-.48-1.37-.74-2a9.45 9.45 0 0 0-.66-1.31 13.12 13.12 0 0 0-1-1.15 3.5 3.5 0 0 0-.71-.47 2.51 2.51 0 0 0-1.26-.26 7.22 7.22 0 0 0-.82.29 3.15 3.15 0 0 0-.58.48c-.14.29-.08.45.09.82l.07.15.12.31.05.16a4.78 4.78 0 0 0 .36.8 4.52 4.52 0 0 0 .53.71l.1.12.21.24.09.13c.22.3.44.59.67.88l.15.1.28.22.14.12c.74.65 1.47 1.32 2.18 2a9.82 9.82 0 0 0 1.34 1.07h.07z" fill="#fff" fill-rule="evenodd"/><path d="M28.22 133.27c-.37.07-.74.14-1.1.23l-1.68.46-.38.11h-.84a23.58 23.58 0 0 1-3.14.15h-.23c-2.19-.17-4.38-.91-5.62-2.84a5.6 5.6 0 0 1-.87-2.74l-.36-1.43a10.45 10.45 0 0 1-.33-2.67 6.59 6.59 0 0 0-.07-1 8.37 8.37 0 0 0-.26-1.1l-.08-.28v-.28c-.16-1.74-.24-3.5-.24-5.25v-5a40.22 40.22 0 0 1 .24-4.39 38.64 38.64 0 0 1 .73-4.39v-.06c.28-1.08.53-2.16.74-3.25s.51-2.45.83-3.66l.07-.28.12-.24c.24-.54.45-1.28.63-1.84.4-1.26.82-2.52 1.26-3.77l1.23-3.52a11.19 11.19 0 0 1 1.19-2.69l.05-.07.06-.08a6.58 6.58 0 0 1 3.5-2.28 7.17 7.17 0 0 1 3.76.22 12.77 12.77 0 0 1 2.9 1.29c.29.17.58.35.87.51-.89-.73-1.79-1.45-2.71-2.15-1.21-.92-2.41-1.86-3.58-2.85a35.18 35.18 0 0 1-3.29-3.17 27.42 27.42 0 0 1-2.12-2.56l-1.68-2.3-.12-.16-.09-.16-1.34-2.46a11.35 11.35 0 0 1-1.15-3 15.05 15.05 0 0 1-.7-2.32c-.16-.71-.31-1.41-.46-2.12v-.07c-.17-.9-.29-1.81-.38-2.72s-.12-1.81-.12-2.72a11.08 11.08 0 0 1 .54-2.89 5.2 5.2 0 0 0 .13-1.18 7.18 7.18 0 0 1 .68-3 23.29 23.29 0 0 1 1.08-2.52c.41-.85.84-1.68 1.29-2.51a17.37 17.37 0 0 1 1.89-2.77c.69-.82 1.39-1.62 2.11-2.4a28.41 28.41 0 0 1 10.48-6.59 35.11 35.11 0 0 1 13.71-1.95h.15a34.41 34.41 0 0 1 7.62 1.76 12.39 12.39 0 0 0 5 .86 9.61 9.61 0 0 0 3.36-1.13 9 9 0 0 1 5.81-1.15h.23l.22.07a7 7 0 0 1 4.12 3.35 8.35 8.35 0 0 1 1 3.79c.15 3 .19 6 .11 9s-.11 5.84-.11 8.76v9.95a24.18 24.18 0 0 1 .23 3.6 6 6 0 0 1-3.33 5.49A12.12 12.12 0 0 1 64 74a14 14 0 0 1-4.79-.68l.6.49a21.07 21.07 0 0 1 2.34 1.87A15.68 15.68 0 0 0 64 77.14l.16.12.15.14L67 79.85c.92.85 1.81 1.73 2.65 2.65l.06.06v.07L72 85.39c.8 1 1.58 2 2.33 3l.06.08.06.09a36.19 36.19 0 0 1 4.26 9.52 25.42 25.42 0 0 1 .64 10.38 36.13 36.13 0 0 1-1.94 8v.18a28.82 28.82 0 0 1-3.76 6.41 44.2 44.2 0 0 1-5.52 5.51l-.12.11-.14.1c-1.07.73-2.22 1.4-3.34 2s-2.38 1.33-3.6 1.89H60.78a46.76 46.76 0 0 1-6.11 2 45.9 45.9 0 0 1-6.6 1 30.44 30.44 0 0 1-8.2-.43q-3.63-.7-7.24-1.47h-.16a21.57 21.57 0 0 0-2.26-.47 7.89 7.89 0 0 0-1.94-.07zm8.72-45.8a4.83 4.83 0 0 1-.79 5.42L34 95.59a18.83 18.83 0 0 0-3.68 11.35v.1a15.26 15.26 0 0 0 .18 2.7 16.28 16.28 0 0 0 .47 2 17.47 17.47 0 0 0 .77 2q.69 1.5 1.41 3a10.76 10.76 0 0 0 3 3.54 11.77 11.77 0 0 0 4.42 2.16 10.33 10.33 0 0 0 4.82 0 10.69 10.69 0 0 0 4.61-2.63 11.56 11.56 0 0 0 3.51-6.81 15.56 15.56 0 0 0-1-7.75 29.58 29.58 0 0 0-2.43-4.5c-1-1.58-2.19-3.1-3.39-4.57-1.51-1.75-3.13-3.41-4.8-5l-2.57-1.9-2.35-1.79zm19.41-16.31a5.46 5.46 0 0 1-.83-3.4c.06-.88.1-1.76.1-2.64V64.83a19.41 19.41 0 0 0 .1-3.41 67.25 67.25 0 0 0-.32-3.76v-.53c-.14-.81-.25-1.63-.33-2.45a6.71 6.71 0 0 0-.39-1.72l-.06-.16v-.15a18.16 18.16 0 0 0-1.74-4.51A19.92 19.92 0 0 0 51.47 46a13.72 13.72 0 0 0-1.74-2 13 13 0 0 0-4.83-2.25 9.3 9.3 0 0 0-5.31.8 7.37 7.37 0 0 0-2.09 1.6 14.8 14.8 0 0 0-1.64 2.2 7.13 7.13 0 0 0-.29 3.88v.2A12.12 12.12 0 0 0 38.36 56c.75.91 1.5 1.81 2.28 2.68A33.54 33.54 0 0 0 43 61.12c.86.78 1.74 1.53 2.65 2.25l3 2.32 6.66 4.71c.36.25.72.5 1.07.76zm70.38-.38l.12.24 1 3.52 1.15 3.78v.08c.31 1.18.61 2.35.91 3.53s.62 2.22 1 3.31v.05l1.53 5c.18.62.33 1.26.49 1.89.2.84.42 1.67.65 2.5s.45 1.52.71 2.27c.05.14.1.3.16.46a11.64 11.64 0 0 1 1.74.43 6.33 6.33 0 0 1 2.81 1.94 8.65 8.65 0 0 1 1.68 4.47 7.14 7.14 0 0 1-.27 3.28l-.14.45-.27.37a7.73 7.73 0 0 1-1.79 1.73c.17.45.34.91.5 1.36v.11l.84 3v.19a6.27 6.27 0 0 0 .51 1.57 5.68 5.68 0 0 1 .54 1.63l.83 3 .72 2.35a12.64 12.64 0 0 0 .61 1.42 9.94 9.94 0 0 0 1.3.78 6.14 6.14 0 0 1 3.61 4.22 5.38 5.38 0 0 1-.5 3.28 5 5 0 0 1-4.73 2.64c-.94 0-1.87-.08-2.81-.15-1.41 0-2.81 0-4.22.05s-3 0-4.46 0c-.67 0-1.35 0-2 .05q-1.5.06-3 .06c-1 0-2 0-2.92-.06a8.43 8.43 0 0 1-2.54-.4 4.34 4.34 0 0 1-3.4-5 6.41 6.41 0 0 1 1.84-3.69l.08-.08.09-.07a9 9 0 0 1 2.26-1.38 2.7 2.7 0 0 0 .34-.17 25.59 25.59 0 0 0-.78-2.72c-.38-1.09-.74-2.19-1.09-3.29v-.08l-.77-3v-.14c-.63.2-1.26.43-1.87.66l-2.13.75c-.71.26-1.43.49-2.16.68a7.55 7.55 0 0 1-2.17.65l-1.51.37a17.72 17.72 0 0 1-2.48.46c-.15.34-.28.69-.41 1-.23.63-.43 1.27-.61 1.91a15.05 15.05 0 0 0-.38 1.77v.45a.49.49 0 0 0 .13.12c.52.42 1 .83 1.58 1.23a9.2 9.2 0 0 1 2 2.1 5.6 5.6 0 0 1 .86 3.95v.3a4.27 4.27 0 0 1-2.46 2.9 7.86 7.86 0 0 1-2.47.66 14.57 14.57 0 0 1-2.38.07c-.53 0-1.06-.05-1.59-.05-.75 0-1.51 0-2.26.05-1.17 0-2.33.06-3.5.06s-2.32 0-3.47-.12a8.64 8.64 0 0 1-2.9-.56h-.1l-.09-.05a4.39 4.39 0 0 1-2.19-4.35 6.65 6.65 0 0 1 .77-3 7.49 7.49 0 0 1 1.76-2c.37-.29.75-.57 1.12-.87a7.92 7.92 0 0 0 .69-.61 3.81 3.81 0 0 0 .38-.65 9.85 9.85 0 0 0 .81-2.42 24.07 24.07 0 0 1 .67-2.66l-.42-.17a6.24 6.24 0 0 1-2.62-2.12l-.06-.09-.05-.09a7.53 7.53 0 0 1-1-3.69 6 6 0 0 1 1.2-4.29v-.05a5.15 5.15 0 0 1 4.11-1.73c.72 0 1.43.1 2.14.2l.18-.43a5.74 5.74 0 0 0 .31-.91c.11-.42.2-.84.29-1.26v-.27l.11-.26a10 10 0 0 0 .46-1.53v-.09l.7-2.27.15-.3a4.22 4.22 0 0 1 .1-.62 11.27 11.27 0 0 1 .28-1.11v-.12l.59-1.52.72-2.78.85-2.88a3.12 3.12 0 0 1 .11-.53v-.21l.59-1.49 1.09-4.25.13-.27a3.06 3.06 0 0 0 .24-.66c.11-.42.22-.85.34-1.27l.82-2.79a3.89 3.89 0 0 1 .17-.89 5.46 5.46 0 0 1 .28-.77l1-3.52c.1-.34.2-.68.31-1l-.57-2.87v-.25a3.76 3.76 0 0 1 .18-2.32 5 5 0 0 1 3.76-3.13l1.71-.58c1-.3 2-.62 3-1l2.88-1c2-.63 4.35-1.11 6.09.32a7.09 7.09 0 0 1 2.14 3.64 25.39 25.39 0 0 1 .81 2.7c.19.79.43 1.57.69 2.35l.15.45v.12zm-13.39 29.09c-.36 1-.76 2-1.17 2.94l-1.14 2.6c.79-.31 1.57-.64 2.35-1a12.56 12.56 0 0 0 1.5-.78c0-.08-.07-.16-.1-.23-.2-.45-.4-.91-.58-1.36-.09-.23-.18-.47-.29-.69l-.07-.13-.5-1.37zm76.75 24.48a12.28 12.28 0 0 0 .16-2.77c0-1.15-.1-2.31-.21-3.46v-3.98a4.8 4.8 0 0 0-.18-.77 4.93 4.93 0 0 0-.56-1.21l-.1-.15-.08-.16a3.39 3.39 0 0 0-.41-.65l-.82-1-.09-.1-.08-.11a12.45 12.45 0 0 1-.87-1.35 4.7 4.7 0 0 1-.46-.7 23.46 23.46 0 0 1-1.62-2l-1.29-1.77a12.72 12.72 0 0 1-1.18-1.89 4.37 4.37 0 0 0-.59-.77h-.05a40.39 40.39 0 0 1-2.47-3.33c-.64-1-1.31-2-2-2.9l-1-1.22-.62-1-.07-.13c-.06-.12-.14-.25-.22-.38v10.2a10.24 10.24 0 0 1-.1 1.46 2.59 2.59 0 0 0 0 .48 6.1 6.1 0 0 1 .14 1.27V112.76a5.07 5.07 0 0 0-.05 1.23c.06.75.08 1.5.08 2.25v.3a16.38 16.38 0 0 0-.06 2.62 26.61 26.61 0 0 1-.09 3.57 5.4 5.4 0 0 0 .12 2 4.88 4.88 0 0 0 1.19 1.16 5.9 5.9 0 0 1 2.47 2.5 7 7 0 0 1 .48 2.83 4.33 4.33 0 0 1-2.28 3.91 7 7 0 0 1-3.08.82c-.84.05-1.69 0-2.54 0-.69 0-1.39-.05-2.08-.05-1.39.06-2.77.11-4.16.15s-2.92 0-4.38-.05h-.52a4.22 4.22 0 0 0-.62-.1 4.64 4.64 0 0 1-2.19-.76 4.46 4.46 0 0 1-1.76-4.69 6 6 0 0 1 1.87-3.49 10.21 10.21 0 0 1 2.45-1.82v-.15a3 3 0 0 0 .07-.66v-1a7.54 7.54 0 0 1-.16-1.64v-.25a23.7 23.7 0 0 0 .06-3 30.19 30.19 0 0 1 .08-3.68c0-1.34-.06-2.69-.15-4a23 23 0 0 1 .14-4.62v-.35a10.25 10.25 0 0 1-.11-1.36V89.09q0-4.14.08-8.3.07-4-.07-8a4.34 4.34 0 0 0-.13-.79 12.4 12.4 0 0 0-1.64-1.24A6 6 0 0 1 156 68a5.1 5.1 0 0 1 0-3.67 5.15 5.15 0 0 1 4.82-3.08c1.06-.06 2.13-.11 3.2-.11h.12c1.5.07 3 .09 4.51 0s3.18 0 4.77 0c1.79 0 3.84.24 5.2 1.54a13.94 13.94 0 0 1 2.08 2.68c1 1.44 2 2.89 3 4.35s1.88 2.88 2.79 4.34 2 2.81 2.92 4.26l.54.85c0-1 0-2.07.07-3.11.05-1.41 0-2.82-.07-4.22v-.22a5.07 5.07 0 0 0-.65-.66 10.3 10.3 0 0 1-1.52-1.64 5.22 5.22 0 0 1 1.36-7.31 6.62 6.62 0 0 1 3.12-1 20.52 20.52 0 0 1 2.6.06c.67.06 1.35.09 2 .09h.14c1.47.06 2.95.08 4.42 0s3-.09 4.56-.16h.13a12.39 12.39 0 0 1 4.9.82c2.46 1.09 3 3.57 2.32 5.95a4.85 4.85 0 0 1-1.8 2.77c-.46.36-.94.7-1.42 1a2.57 2.57 0 0 0-.56.53.42.42 0 0 0-.06.18V82q0 3.24-.15 6.5c0 .6 0 1.2.06 1.79q.09 1.2.09 2.4v.14c-.09 2-.12 4-.07 6.06s.08 4.31.08 6.46v5.7c0 1.93-.06 3.86-.15 5.78 0 .58 0 1.16.06 1.73q.09 1.13.09 2.25v.35l-.09.34a2.57 2.57 0 0 0-.06.55v2.65l.34.28a20.63 20.63 0 0 1 1.91 1.71 5.6 5.6 0 0 1 1.84 5.08c-.42 2.55-2.61 3.75-5 4.07h-.11a24.84 24.84 0 0 1-3.11.06c-.93 0-1.86-.05-2.79-.05h-4.69a38.79 38.79 0 0 0-4.31.14h-.24a7.9 7.9 0 0 1-6.34-2.5l-.19-.23-.15-.27a4.65 4.65 0 0 1 0-4.79 9.36 9.36 0 0 1 1.74-2l1.62-1.42a.87.87 0 0 0 .2-.42zm76.7-46.11a4.64 4.64 0 0 0-.38-.39 7 7 0 0 0-2.35-1.08 23 23 0 0 0-3.49-.63V94.8c0 3.85-.05 7.71-.15 11.56 0 1.12 0 2.24.07 3.36s.08 2.44.08 3.66c0 1.37 0 2.74-.08 4.11s-.07 2.58-.07 3.88v.19a18.29 18.29 0 0 0 .05 3.39 5.41 5.41 0 0 0 1.57 1.48l.08.06.09.07a6.06 6.06 0 0 1 2.18 3.65 4.76 4.76 0 0 1-1.73 4.75l-.17.14-.2.11a8.3 8.3 0 0 1-4.33.85c-1 0-1.92-.05-2.88-.05h-2.43c-.87 0-1.75 0-2.63-.11-1.16-.06-2.34-.07-3.5 0s-2.56.08-3.84.15a9.15 9.15 0 0 1-3.41-.34 4.53 4.53 0 0 1-3.15-3.79 5.31 5.31 0 0 1 .9-3.8 6.71 6.71 0 0 1 2.16-2.21 4.94 4.94 0 0 0 .59-.43 2.15 2.15 0 0 0 .23-.28 3.89 3.89 0 0 0 0-.58v-1.1a43.2 43.2 0 0 0 .15-6c-.11-2.23-.16-4.45-.16-6.68V76.18h-2a13 13 0 0 0-2.43.26 7.42 7.42 0 0 0-1.41.95 4.88 4.88 0 0 0-.93.94 5.75 5.75 0 0 1-2.82 4.13 6.64 6.64 0 0 1-5.38.74 5.17 5.17 0 0 1-4.24-4.3 8.94 8.94 0 0 1-.1-2.31c0-.49.07-1 .07-1.47v-.32c.09-.92.14-1.85.14-2.78V69a4.78 4.78 0 0 0-.14-1.19c-.59-2.29.91-4 2.86-5h.05a8 8 0 0 1 4.12-.51c.95.08 1.89.16 2.83.26l2.86.31a50.124 50.124 0 0 0 4.27.19h.25c.87.08 1.75.1 2.63.1a7.1 7.1 0 0 0 1.9-.2 12.57 12.57 0 0 0 1.35-.45 8.13 8.13 0 0 1 1.86-.56 10.71 10.71 0 0 1 1.79-.14h2c1.06 0 2.12 0 3.18.05a19 19 0 0 1 3.54.33c.38.09.77.19 1.15.31a9.9 9.9 0 0 1 1.29.46 2 2 0 0 0 .77.15c.73 0 1.47-.06 2.2-.06h.13c1.27.06 2.54.09 3.8.06a27.92 27.92 0 0 0 3.76-.43c1.09-.19 2.19-.3 3.28-.4a6.65 6.65 0 0 1 4.8 1.2 5.31 5.31 0 0 1 1.84 4.85c-.07.73-.14 1.48-.14 2.21v3.53c0 1 .05 2 .13 3.07a4.64 4.64 0 0 1-1.25 4.42 7 7 0 0 1-5.12 1.89 5.7 5.7 0 0 1-5-2.92 8.52 8.52 0 0 1-1.11-2.29zm47-13.08a7 7 0 0 0-2.14-3.64c-1.73-1.43-4.14-1-6.08-.32h-.05l-2.88 1c-1 .34-2 .66-3 1l-1.7.58a5 5 0 0 0-3.76 3.13 3.84 3.84 0 0 0-.19 2.32v.25l.58 2.87c-.11.34-.22.68-.32 1l-1 3.52a7.15 7.15 0 0 0-.29.77 5.38 5.38 0 0 0-.17.89l-.79 2.79c-.13.42-.24.85-.34 1.27a3.71 3.71 0 0 1-.24.66l-.13.27-1.09 4.25-.59 1.49v.21a4.54 4.54 0 0 0-.12.53l-.84 2.88-.73 2.78-.59 1.52v.12c-.11.37-.21.74-.29 1.11a6.17 6.17 0 0 0-.09.62l-.15.3-.7 2.27v.09a10 10 0 0 1-.46 1.53l-.11.26-.06.27c-.09.42-.18.84-.28 1.26a7 7 0 0 1-.31.91l-.18.43c-.71-.1-1.42-.16-2.14-.2a5.17 5.17 0 0 0-4.12 1.73v.05a6.09 6.09 0 0 0-1.21 4.29 7.64 7.64 0 0 0 1 3.69l.06.09.06.09a6.21 6.21 0 0 0 2.61 2.12l.43.17a24.07 24.07 0 0 0-.67 2.66 9.47 9.47 0 0 1-.82 2.42 2.84 2.84 0 0 1-.38.65 5.78 5.78 0 0 1-.69.61c-.37.3-.74.58-1.12.87a7.45 7.45 0 0 0-1.75 2 6.92 6.92 0 0 0-.77 3 4.42 4.42 0 0 0 2.2 4.35l.09.05h.1a8.58 8.58 0 0 0 2.89.56c1.16.09 2.32.12 3.47.12s2.34 0 3.51-.06c.75 0 1.5-.05 2.25-.05.53 0 1.06 0 1.59.05a14.53 14.53 0 0 0 2.38-.07A7.92 7.92 0 0 0 296 135a4.29 4.29 0 0 0 2.46-2.9v-.3a5.55 5.55 0 0 0-.86-3.95 8.8 8.8 0 0 0-2-2.1c-.53-.4-1.06-.81-1.58-1.23a.71.71 0 0 1-.13-.12c0-.15 0-.33.05-.45a15.05 15.05 0 0 1 .38-1.77c.18-.64.38-1.28.61-1.91.12-.34.26-.69.4-1a17.59 17.59 0 0 0 2.49-.46l1.5-.37a7.36 7.36 0 0 0 2.17-.65c.73-.19 1.46-.42 2.17-.68l2.13-.75c.62-.23 1.25-.46 1.88-.66v.14l.76 3v.08c.34 1.1.71 2.2 1.08 3.29a23.43 23.43 0 0 1 .78 2.72 1.8 1.8 0 0 1-.34.17 9.2 9.2 0 0 0-2.26 1.38l-.08.07-.08.08a6.49 6.49 0 0 0-1.85 3.69 4.35 4.35 0 0 0 3.4 5 8.54 8.54 0 0 0 2.55.4c1 0 1.95.06 2.92.06s2 0 3-.06c.67 0 1.34-.05 2-.05h4.47c1.47 0 2.81-.05 4.22-.05.93.07 1.87.12 2.81.15a5 5 0 0 0 4.73-2.64 5.24 5.24 0 0 0 .5-3.28 6.15 6.15 0 0 0-3.6-4.22 9.32 9.32 0 0 1-1.3-.78 12.72 12.72 0 0 1-.62-1.42l-.71-2.35-.83-3a6 6 0 0 0-.54-1.63 6.73 6.73 0 0 1-.52-1.57v-.19l-.84-3v-.11c-.17-.45-.33-.91-.5-1.36a7.5 7.5 0 0 0 1.78-1.73l.4-.49.14-.45a7.28 7.28 0 0 0 .27-3.28 8.65 8.65 0 0 0-1.68-4.47 6.33 6.33 0 0 0-2.73-1.9 11.76 11.76 0 0 0-1.75-.43c0-.16-.1-.32-.16-.46-.26-.75-.49-1.51-.7-2.27s-.45-1.66-.66-2.5c-.15-.63-.3-1.27-.49-1.89l-1.54-5v-.05c-.38-1.09-.71-2.19-1-3.31s-.61-2.35-.91-3.53v-.08l-1.22-3.76-1-3.52-.12-.24v-.14l-.16-.45c-.26-.78-.49-1.56-.68-2.35a25.44 25.44 0 0 0-.82-2.7zm-10.19 38.49a12.69 12.69 0 0 1-1.51.78c-.77.34-1.55.67-2.34 1 .38-.87.76-1.73 1.13-2.6s.81-2 1.18-2.94l.5 1.37.07.13c.1.22.2.46.29.69.18.45.37.91.58 1.36 0 .07.06.15.1.23zm75.21 20.7a12.28 12.28 0 0 0 .16-2.77c0-1.15-.11-2.31-.22-3.46v-4a4.81 4.81 0 0 0-.19-.77 4.56 4.56 0 0 0-.55-1.21l-.1-.15-.08-.16a3 3 0 0 0-.42-.65c-.26-.33-.54-.66-.82-1l-.08-.1-.08-.11a11.11 11.11 0 0 1-.87-1.35 4 4 0 0 1-.46-.7 25.71 25.71 0 0 1-1.63-2l-1.28-1.77a11.94 11.94 0 0 1-1.18-1.89 4.37 4.37 0 0 0-.59-.77h-.05a38.23 38.23 0 0 1-2.47-3.33c-.65-1-1.31-2-2-2.9l-1-1.22-.63-1-.06-.13c-.06-.12-.14-.25-.22-.38v10.2a9 9 0 0 1-.11 1.46v.48a5.51 5.51 0 0 1 .15 1.27V112.74a5.63 5.63 0 0 0 0 1.23c0 .75.08 1.5.08 2.25v.3a16.39 16.39 0 0 0-.07 2.62 25 25 0 0 1-.08 3.57 5.62 5.62 0 0 0 .11 2 5.07 5.07 0 0 0 1.19 1.16 5.87 5.87 0 0 1 2.48 2.5 7 7 0 0 1 .47 2.83 4.34 4.34 0 0 1-2.27 3.91 7 7 0 0 1-3.08.82c-.85.05-1.7 0-2.54 0s-1.39-.05-2.09-.05c-1.38.06-2.77.11-4.15.15s-2.92 0-4.38-.05h-.52a4.22 4.22 0 0 0-.62-.1 4.68 4.68 0 0 1-2.2-.76 4.46 4.46 0 0 1-1.75-4.69 5.94 5.94 0 0 1 1.86-3.49 10.46 10.46 0 0 1 2.33-1.94v-.15a2.47 2.47 0 0 0 .07-.66v-1a8.21 8.21 0 0 1-.15-1.64v-.25a22 22 0 0 0 .07-3 28.29 28.29 0 0 1 .07-3.68c0-1.34 0-2.69-.14-4a22.3 22.3 0 0 1 .14-4.62v-.35a8.81 8.81 0 0 1-.11-1.36v-15.2q0-4.14.08-8.3c.05-2.67 0-5.34-.07-8a5.42 5.42 0 0 0-.13-.79 13.86 13.86 0 0 0-1.63-1.25 6 6 0 0 1-2.29-2.75 5.1 5.1 0 0 1 0-3.67 5.17 5.17 0 0 1 4.82-3.08c1.07-.06 2.14-.11 3.2-.11h.13c1.5.07 3 .09 4.51 0s3.17 0 4.76 0c1.8 0 3.85.24 5.21 1.54a13.94 13.94 0 0 1 2.08 2.68q1.5 2.16 3 4.35c.94 1.44 1.87 2.88 2.78 4.34s2 2.81 2.92 4.26l.54.85c0-1 0-2.07.07-3.11a39.57 39.57 0 0 0-.07-4.22v-.22a5.07 5.07 0 0 0-.65-.66 9.45 9.45 0 0 1-1.52-1.64 5.23 5.23 0 0 1 1.39-7.31 6.62 6.62 0 0 1 3.12-1 20.68 20.68 0 0 1 2.61.06c.67.06 1.35.09 2 .09h.13c1.48.06 2.95.08 4.43 0s3-.09 4.56-.16h.13a12.39 12.39 0 0 1 4.9.82c2.46 1.09 3 3.57 2.32 5.95a4.85 4.85 0 0 1-1.8 2.77c-.47.36-.94.7-1.42 1a2.62 2.62 0 0 0-.57.53 1.25 1.25 0 0 0-.06.18V82q0 3.24-.15 6.5c0 .6 0 1.2.07 1.79.06.8.08 1.6.08 2.4v.14q-.15 3-.07 6.06c.05 2.15.07 4.31.07 6.46v5.7c0 1.93-.05 3.86-.15 5.78 0 .58 0 1.16.07 1.73.06.75.08 1.5.08 2.25v.35l-.08.34a2.59 2.59 0 0 0-.07.55v2.65l.35.28a20.63 20.63 0 0 1 1.91 1.71 5.62 5.62 0 0 1 1.84 5.08c-.43 2.55-2.62 3.75-5 4.07h-.12a24.64 24.64 0 0 1-3.1.06c-.93 0-1.86-.05-2.79-.05h-4.69a38.71 38.71 0 0 0-4.31.14H382a7.89 7.89 0 0 1-6.33-2.5l-.2-.23-.14-.27a4.68 4.68 0 0 1-.05-4.79 9.69 9.69 0 0 1 1.75-2c.53-.48 1.07-1 1.61-1.42a.88.88 0 0 0 .21-.42zm70.21-59.19a25.44 25.44 0 0 1 .82 2.7c.19.79.42 1.57.69 2.35l.15.45v.14l.12.24 1 3.52 1.2 3.76v.08c.3 1.18.61 2.35.91 3.53s.62 2.22 1 3.31v.05l1.54 5c.19.62.34 1.26.49 1.89.21.84.43 1.67.66 2.5s.44 1.52.7 2.27c.06.14.11.3.16.46a11.47 11.47 0 0 1 1.75.43 6.33 6.33 0 0 1 2.79 1.94 8.65 8.65 0 0 1 1.68 4.47 7.28 7.28 0 0 1-.27 3.28l-.14.45-.28.37a7.5 7.5 0 0 1-1.78 1.73c.17.45.33.91.5 1.36v.11l.84 3v.19a6.73 6.73 0 0 0 .52 1.57 6 6 0 0 1 .54 1.63l.83 3 .72 2.35a12.64 12.64 0 0 0 .61 1.42 9.32 9.32 0 0 0 1.3.78 6.13 6.13 0 0 1 3.6 4.22 5.24 5.24 0 0 1-.5 3.28 5 5 0 0 1-4.73 2.64c-.94 0-1.88-.08-2.81-.15-1.41 0-2.82 0-4.22.05s-3 0-4.47 0c-.67 0-1.34 0-2 .05-1 0-2 .06-3 .06s-2 0-2.92-.06a8.54 8.54 0 0 1-2.55-.4 4.35 4.35 0 0 1-3.4-5 6.49 6.49 0 0 1 1.85-3.69l.08-.08.08-.07a9.2 9.2 0 0 1 2.26-1.38 2.26 2.26 0 0 0 .35-.17 23.48 23.48 0 0 0-.79-2.72c-.37-1.09-.74-2.19-1.08-3.29v-.08l-.76-3v-.14c-.63.2-1.26.43-1.87.66l-2.13.75c-.71.26-1.44.49-2.17.68a7.36 7.36 0 0 1-2.17.65l-1.5.37a17.59 17.59 0 0 1-2.49.46c-.14.34-.28.69-.4 1-.23.63-.43 1.27-.61 1.91a15.05 15.05 0 0 0-.38 1.77v.45a.71.71 0 0 0 .13.12c.52.42 1 .83 1.58 1.23a8.8 8.8 0 0 1 2 2.1 5.55 5.55 0 0 1 .86 3.95v.3a4.29 4.29 0 0 1-2.46 2.9 7.92 7.92 0 0 1-2.48.66 14.53 14.53 0 0 1-2.38.07c-.52 0-1.06-.05-1.59-.05-.75 0-1.5 0-2.25.05q-1.75.06-3.51.06c-1.15 0-2.31 0-3.47-.12a8.58 8.58 0 0 1-2.89-.56h-.1l-.09-.05a4.42 4.42 0 0 1-2.2-4.35 6.92 6.92 0 0 1 .77-3 7.31 7.31 0 0 1 1.76-2l1.11-.87a5.78 5.78 0 0 0 .69-.61 2.84 2.84 0 0 0 .38-.65 9.47 9.47 0 0 0 .82-2.42 24.07 24.07 0 0 1 .67-2.66l-.43-.17a6.21 6.21 0 0 1-2.61-2.12l-.06-.09-.06-.09a7.64 7.64 0 0 1-1-3.69 6.09 6.09 0 0 1 1.21-4.29v-.05a5.18 5.18 0 0 1 4.12-1.73c.72 0 1.43.1 2.14.2l.18-.43a7 7 0 0 0 .31-.91c.1-.42.2-.84.28-1.26l.06-.27.11-.26a10 10 0 0 0 .46-1.53v-.09l.7-2.27.15-.3a6.17 6.17 0 0 1 .09-.62c.08-.37.18-.74.29-1.11v-.12l.59-1.52.73-2.78.84-2.88a4.54 4.54 0 0 1 .12-.53v-.21l.59-1.49 1.09-4.25.13-.27a3.71 3.71 0 0 0 .24-.66c.1-.42.21-.85.34-1.27l.81-2.79a5.38 5.38 0 0 1 .17-.89 7.15 7.15 0 0 1 .29-.77l1-3.52c.09-.34.2-.68.31-1l-.58-2.87v-.25a3.84 3.84 0 0 1 .19-2.32 5 5 0 0 1 3.76-3.13l1.7-.58c1-.3 2-.62 3-1l2.88-1h.05c1.95-.63 4.35-1.11 6.08.32a7 7 0 0 1 2.14 3.64zm-10.19 38.49c0-.08-.07-.16-.1-.23-.21-.45-.4-.91-.58-1.36-.09-.23-.19-.47-.29-.69l-.07-.13-.5-1.37c-.37 1-.76 2-1.18 2.94s-.75 1.73-1.13 2.6c.79-.31 1.57-.64 2.34-1a12.69 12.69 0 0 0 1.51-.78zm109.7 13.11a9.43 9.43 0 0 1-.22 1.67l-.3 1.35v.21l-.07.2a5.15 5.15 0 0 0-.24.76 7.51 7.51 0 0 1-.85 2.24v.06a5.09 5.09 0 0 1-.57 1.39 16.73 16.73 0 0 1-2.36 3.35 27.14 27.14 0 0 1-3.06 2.91 22.07 22.07 0 0 1-4.49 2.77l-.18.13-.27.11a24.21 24.21 0 0 1-3.21 1.08c-1.08.27-2.16.51-3.26.68h-.13c-1.46.15-2.94.24-4.41.27a34.25 34.25 0 0 1-4.53-.17c-.72-.07-1.43-.16-2.14-.29s-1.24-.25-1.85-.39h-.12c-.69-.19-1.39-.38-2.08-.52a6.8 6.8 0 0 0-1.41.07c-1.07.2-2.15.38-3.23.53a7.29 7.29 0 0 1-4.8-1h-.13a3.83 3.83 0 0 1-1.39-1.62l-.48-.67v-.95a4.7 4.7 0 0 0-.1-.84c-.08-.43-.17-.85-.28-1.27v-.22a36.06 36.06 0 0 1-.42-4.14 95.15 95.15 0 0 0-.22-3.79v-.22c0-1.16.07-2.32.17-3.47a29.14 29.14 0 0 1 .49-3.48c.21-1.35.47-2.69.79-4a31.54 31.54 0 0 1 1.3-4l.71-2.23c.66-2.39 1.89-5.06 4.55-5.69a4.52 4.52 0 0 1 .75-.12c-.49-.41-1-.84-1.44-1.27-.52-.51-1-1-1.51-1.56a20.48 20.48 0 0 1-1.38-1.7 15.31 15.31 0 0 1-2.33-3.93 14 14 0 0 1-.83-2.49c-.13-.56-.28-1.11-.43-1.66a5.7 5.7 0 0 1-.48-2.26v-2.21a5.22 5.22 0 0 1 .15-1.25v-.52a6.22 6.22 0 0 1 .26-1.71c.22-.81.46-1.62.74-2.41a12.82 12.82 0 0 1 1.41-2.82 20.46 20.46 0 0 1 5.43-5.77 22.35 22.35 0 0 1 4.7-2.63l.1-.05h.1a23.5 23.5 0 0 1 7.62-1.3h.75a15.36 15.36 0 0 1 3.38.38h.12a9.21 9.21 0 0 0 1.14.23 17.21 17.21 0 0 1 1.87.38c.88.23 1.76.49 2.63.79a.8.8 0 0 0 .53 0l1.83-.65a12.92 12.92 0 0 1 2.53-.67 5.47 5.47 0 0 1 3.49.52 4.76 4.76 0 0 1 2.37 3.86 23.62 23.62 0 0 1 .09 3.57c-.05 1-.08 2-.08 3v3.27c0 1 0 2 .14 3v.27A6.12 6.12 0 0 1 542 84c-1.44 1.65-3.79 1.68-5.79 1.45s-3.91-1-4.77-3a20 20 0 0 1-.88-2.5c-.25-.76-.53-1.51-.82-2.26a13.79 13.79 0 0 0-.93-1.84 17.24 17.24 0 0 0-1.29-1.54 6.3 6.3 0 0 0-1.46-1 5.69 5.69 0 0 0-3.29-.61 11.83 11.83 0 0 0-1.82.62 6.19 6.19 0 0 0-1.65 1.49 3.5 3.5 0 0 0-.11 3.54l.07.16v.15a7 7 0 0 0 1.5 2.57l.11.12.09.13c.27.37.55.73.84 1.09a2.52 2.52 0 0 0 .58.5l.14.1.14.12c.7.62 1.39 1.26 2.07 1.91a13 13 0 0 0 1.74 1.4l5.35 3.87 2.34 1.71 3 2.47 2.84 2.41a12 12 0 0 1 1.35 1.32c.3.34.6.69.91 1a7.6 7.6 0 0 0 .68.71 6.86 6.86 0 0 1 1.3 1.59l1.78 3a12.3 12.3 0 0 1 1.45 3c.26.81.5 1.64.72 2.47v.17l.36 2.55v.21c0 .48 0 1 .06 1.46a9.25 9.25 0 0 1-.06 2.23zm-28.48-12a3.92 3.92 0 0 1-.16.74 6.46 6.46 0 0 1-1.24 2.08c-.41.48-.8 1-1.2 1.45a13.67 13.67 0 0 0-1.77 2.95 10.07 10.07 0 0 0-.35 3.05c0 .34 0 .7.06 1 .06.61.11 1.22.16 1.83a14.6 14.6 0 0 0 .19 1.48V119.57l.11.21a21.06 21.06 0 0 0 1.73 2.93 10.81 10.81 0 0 0 2.61 2 4.87 4.87 0 0 0 2.31.73 8 8 0 0 0 2.86-.62 5.28 5.28 0 0 0 2.06-1.49 6.57 6.57 0 0 0 1.23-1.85 12.58 12.58 0 0 0 .4-2.59 7.7 7.7 0 0 0-.28-2.43 14.61 14.61 0 0 0-1.59-3.73 26.7 26.7 0 0 0-2.58-3.65l-3.07-3c-.4-.42-.92-.88-1.45-1.31z" fill="#ed1c24" fill-rule="evenodd"/><path d="M486.21 38.58a23.5 23.5 0 0 1-3.14 0 8.21 8.21 0 0 1-2.72-.57h-.08v-.08A70.21 70.21 0 0 1 485 26.42v-.06h.06a10.35 10.35 0 0 0 6-.31 10.51 10.51 0 0 1-5.25-.67h-.09l.05-.09a32.6 32.6 0 0 1 7.23-8.35 6.36 6.36 0 0 0 3.07 0l-2.62-.47.16-.13a24 24 0 0 1 4.39-2.76 45 45 0 0 1 5-2.21 78.42 78.42 0 0 1 8.16-2.52l-.5.07c-.76.09-1.53.17-2.29.28a21.16 21.16 0 0 0-2.35.45 23.94 23.94 0 0 0-2.83.92c-1.31.51-2.59 1.11-3.85 1.73-1.8.9-3.59 1.86-5.35 2.86l-.18.09.75-2.84-.05.08a10.83 10.83 0 0 0-.77 1.32 6.63 6.63 0 0 0-.54 1.74 44.82 44.82 0 0 0-3.91 3.65 30.16 30.16 0 0 0-3.56 4.58l-.18.28.21-2.72-.96 3.66a24.26 24.26 0 0 0-2.31 4.11 55.05 55.05 0 0 0-2.31 5.89v.08h-.14l.32-3.75a18.5 18.5 0 0 0-1.2 7.14 62.05 62.05 0 0 0-1.67 10.44c-.27 3.34-.36 6.69-.46 10v.63l-.15-.61a49.51 49.51 0 0 1-1.28-12.86 54.67 54.67 0 0 1 1.65-11.83 56 56 0 0 1 3.52-10 42.31 42.31 0 0 1 4.34-7.44A37.29 37.29 0 0 1 505 5.18 56.55 56.55 0 0 1 517.41 4c4.26 0 8.52.33 12.76.69h.42l-.4.15a15.84 15.84 0 0 0-7.12 5.32c-2.65 3.44-4.26 7.9-5.71 12.08-1.58 4.54-3.09 9.16-5.51 13.24a22.68 22.68 0 0 1-11 9.8 31.64 31.64 0 0 1-9.35 2.16 51.23 51.23 0 0 1-5.94.15c-2.31-.07-4.62-.27-6.91-.57h-.09l1.35-7.78h.09a19.33 19.33 0 0 0 6.21-.66z" fill-rule="evenodd" fill="url(#a)"/><path d="M476.9 59c-4.13-17.44 2.36-34.25 8.21-42.08 13.17-14.38 29.08-13.48 45.06-12.16-20.76 7.74-5.1 48.12-51.53 42.18l1.32-7.6a19.6 19.6 0 0 0 7.13-.92c-3.09.26-5.38.13-6.71-.47a69.56 69.56 0 0 1 4.73-11.48 10.74 10.74 0 0 0 6.67-.54 11.59 11.59 0 0 1-5.91-.61A32.45 32.45 0 0 1 493 17a7.2 7.2 0 0 0 3.62-.08l-2.93-.52c5-4.15 14-6.7 19.69-8-6.47 1.21-7-.3-19.47 6.67l.83-3.18a9.24 9.24 0 0 0-1.67 3.65 34.94 34.94 0 0 0-7.49 8.24l.26-3.36-1.12 4.58a39 39 0 0 0-4.62 10l.35-4.11c-.85 1.58-1.36 4-1.41 7.57-1.81 7-1.93 14.05-2.14 20.54z" fill-rule="evenodd" fill="url(#b)"/><path d="M486.24 44.68c13.16-.45 24.14-7.8 31.21-26.62-2.95 12.66-13.6 29.15-31.21 26.62z" fill-rule="evenodd" fill="url(#c)"/><path d="M468 32.6a17.15 17.15 0 0 0 2.15 0 5.6 5.6 0 0 0 1.85-.38h.05v-.05a47.28 47.28 0 0 0-3.22-7.84 7 7 0 0 1-4.06-.21 7.13 7.13 0 0 0 3.58-.46h.06v-.06a22.34 22.34 0 0 0-4.89-5.68 4.34 4.34 0 0 1-2.09 0l1.79-.32-.11-.09a17.07 17.07 0 0 0-3.11-1.96 30.92 30.92 0 0 0-3.45-1.55 51 51 0 0 0-5.55-1.67h.34l1.56.19a14.57 14.57 0 0 1 1.6.31 16.87 16.87 0 0 1 1.94.63c.88.35 1.76.75 2.62 1.18 1.23.61 2.44 1.27 3.65 1.95l.12.06-.51-1.94v.06a7.33 7.33 0 0 1 .53.9 4.45 4.45 0 0 1 .37 1.19 31.23 31.23 0 0 1 2.67 2.48 21.2 21.2 0 0 1 2.43 3.12l.12.2-.15-1.86.63 2.48a17.41 17.41 0 0 1 1.58 2.8 36.59 36.59 0 0 1 1.56 4v.05h.1l-.16-2.48a12.83 12.83 0 0 1 .82 4.87 42.76 42.76 0 0 1 1.18 7.13c.18 2.28.24 4.56.31 6.85v.43l.1-.42a33.94 33.94 0 0 0 .87-8.77 38.46 38.46 0 0 0-1.12-8.07 39.21 39.21 0 0 0-2.4-6.83 29.07 29.07 0 0 0-3-5.08 25.41 25.41 0 0 0-13.57-7.94 38.49 38.49 0 0 0-8.47-.82c-2.9 0-5.81.22-8.7.46h-.29l.27.1a10.73 10.73 0 0 1 4.86 3.63 29.27 29.27 0 0 1 3.9 8.23 48.53 48.53 0 0 0 3.75 9 15.44 15.44 0 0 0 7.49 6.75 21.33 21.33 0 0 0 6.37 1.48 34.23 34.23 0 0 0 4.05.1c1.58 0 3.15-.19 4.71-.39h.06l-.92-5.31h-.05a13.63 13.63 0 0 1-4.22-.45z" fill-rule="evenodd" fill="url(#d)"/><path d="M474.34 46.5a36.81 36.81 0 0 0-5.6-28.7C459.76 8 448.92 8.63 438 9.54c14.16 5.28 3.48 32.81 35.14 28.76l-.9-5.18a13.27 13.27 0 0 1-4.86-.63 10.18 10.18 0 0 0 4.57-.32 47.35 47.35 0 0 0-3.22-7.83 7.37 7.37 0 0 1-4.56-.37 7.8 7.8 0 0 0 4-.42 22.12 22.12 0 0 0-4.88-5.66 4.9 4.9 0 0 1-2.46-.05l2-.36c-3.43-2.83-9.54-4.56-13.42-5.46 4.41.82 4.79-.2 13.27 4.55l-.56-2.17a6.26 6.26 0 0 1 1.13 2.49 23.29 23.29 0 0 1 5.11 5.62l-.18-2.29.79 3.11a26.46 26.46 0 0 1 3.15 6.83l-.24-2.8a11.46 11.46 0 0 1 1 5.16c1.24 4.77 1.32 9.58 1.46 13.98z" fill-rule="evenodd" fill="url(#e)"/><path d="M468 36.76c-9-.31-16.45-5.32-21.28-18.15C448.7 27.24 456 38.48 468 36.76z" fill-rule="evenodd" fill="url(#f)"/><path d="M523.07 10.17c-2.65 3.44-4.26 7.9-5.71 12.08-1.58 4.54-3.09 9.16-5.51 13.24a22.68 22.68 0 0 1-11 9.8 31.64 31.64 0 0 1-9.35 2.16 51.23 51.23 0 0 1-5.94.15c-2.31-.07-4.62-.27-6.91-.57h-.09l-1.09 1.9c-.27 3.34-.36 6.69-.46 10v.63l-.15-.61a49.51 49.51 0 0 1-1.28-12.86 54.67 54.67 0 0 1 1.65-11.83 56 56 0 0 1 3.52-10 42.31 42.31 0 0 1 4.34-7.44h0A37.29 37.29 0 0 1 505 5.18 56.55 56.55 0 0 1 517.41 4c4.26 0 8.52.33 12.76.69h.42l-.4.15a15.84 15.84 0 0 0-7.12 5.32zm-48.92 19.5a38.46 38.46 0 0 1 1.12 8.07 33.94 33.94 0 0 1-.87 8.77l-.1.42v-.43l-1.12-8.14c-2.73-.09-5.31.44-8 .34a26.12 26.12 0 0 1-7.18-1.53 15.44 15.44 0 0 1-7.52-6.68 48.53 48.53 0 0 1-3.75-9 29.27 29.27 0 0 0-3.9-8.23A10.73 10.73 0 0 0 438 9.6l-.27-.1h.29c2.89-.24 5.8-.46 8.7-.46a38.49 38.49 0 0 1 8.49.81 25.41 25.41 0 0 1 13.57 7.94h0a29.07 29.07 0 0 1 3 5.08 39.21 39.21 0 0 1 2.37 6.8z" fill="none" stroke="#231f20" stroke-miterlimit="2.61" stroke-width=".5"/></svg>