<svg id="Layer_1" data-name="Layer 1" xmlns="http://www.w3.org/2000/svg" viewBox="0 0 873.82 105.35"><title>cars</title><path d="M871.23,67H860.4V75h10.83a2.59,2.59,0,0,0,2.59-2.59V69.62A2.59,2.59,0,0,0,871.23,67Z" fill="#ededed"/><path d="M860.4,72.64h13.41a2.26,2.26,0,0,0,0-.26V69.62a2.17,2.17,0,0,0,0-.26H860.4Z" fill="#57585e"/><path d="M857.54,51h3.33a2.4,2.4,0,0,1,2.4,2.4V65.75a0,0,0,0,1,0,0h-5.73a0,0,0,0,1,0,0V51A0,0,0,0,1,857.54,51Z" fill="#57585e"/><path d="M856.39,52.53c-2.25-7.77-28.17-25-63.45-22.61-2.78-3.43-6.72-9.14-10-14A28.58,28.58,0,0,0,765,3.82c-19.85-4.12-60.31-9.08-90.2,9.87-42.29,26.82-43.48,43.5-45.9,49.54a43.62,43.62,0,0,1-7.23,11.34L633.35,81H693.1L697,86.19H802.07l12.2-30.82,26.46-4Z" fill="#ede5a5"/><polygon points="695.66 84.41 697.01 86.19 802.07 86.19 808.85 69.06 808.92 67.72 695.19 67.72 695.66 84.41" fill="#f7efc4"/><path d="M728.31,84.26V4.54C763.06,4.6,771.92,10.22,778,16c5.82,5.5,12.85,21.12,13.47,22.51V82.91h1V38.27l0-.1c-.31-.7-7.54-17.08-13.76-23s-15.37-11.7-50.93-11.7c-17.92,0-32.9,3.6-45.79,11s-23.59,18.55-32.83,34.11l.89.53c18-30.3,42.53-44.48,77.21-44.62V84.26Z" fill="#c6ba7d"/><path d="M853.78,48.45c-20-11.36-49.69-13-57.45-12.33a4,4,0,0,1-1.87-2.91A6.17,6.17,0,0,1,795,29.8l-1.16.06a7.16,7.16,0,0,0-.45,3.5,5.1,5.1,0,0,0,2.5,3.73l.15.09.17,0c7.68-.7,39.43,1,59.27,13.53A15,15,0,0,0,853.78,48.45Z" fill="#c6ba7d"/><rect x="698.81" y="81.87" width="103.26" height="4.32" fill="#57585e"/><path d="M849.47,52.3,834,52.35l-19.71,3L802.68,84.65c5.1,5.19,11.83,7.7,16,7.7s26.59-6.68,31.89-8.09,11.45-6.08,12.75-8.58Z" fill="#181a1c"/><path d="M685.27,56.27c-.92-.52-18.35-5.81-19.07-6.27s-16.26,6.27-16.26,6.27-8.28,12.14-10.41,14c-1,.9-4.12,5.67-7,10.31l-4.31-2.37L627.45,84h11.44l2,4H649s19.6,8,30.08,8.19c7.93.18,14.82-6.94,17.7-10.4l.25.33h.92l-1.86-13.06S686.19,56.79,685.27,56.27Z" fill="#181a1c"/><path d="M636.59,62.54h-3.28a2.12,2.12,0,0,1-2.12-2.13V52.13A2.12,2.12,0,0,1,633.31,50h7.6a1.24,1.24,0,0,1,1.1,1.8Z" fill="#f26f75"/><path d="M638.06,51.07h-4.74a.83.83,0,0,0,0,1.66h4.74a.83.83,0,1,0,0-1.66Z" fill="#fcd9dc"/><rect x="641.31" y="55.37" width="0.35" height="16.26" fill="#ed1c24"/><rect x="633.35" y="63.33" width="16.26" height="0.35" fill="#ed1c24"/><circle cx="668.58" cy="81.87" r="23.48" transform="translate(137.93 496.74) rotate(-45)" fill="#57585e"/><circle cx="668.58" cy="81.87" r="18.64" transform="translate(137.93 496.74) rotate(-45)" fill="#ededed"/><circle cx="668.58" cy="81.87" r="14.15" fill="#89b5e1"/><path d="M668.58,76.46A5.41,5.41,0,1,0,674,81.87,5.41,5.41,0,0,0,668.58,76.46Z" fill="#a0cdee"/><path d="M669.82,69.1h-2.47a1.15,1.15,0,1,0,0,2.3h2.47a1.15,1.15,0,0,0,0-2.3Z" fill="#32353a"/><path d="M660.43,72l-1.75,1.75a1.14,1.14,0,0,0,0,1.62,1.15,1.15,0,0,0,1.63,0l1.74-1.75A1.15,1.15,0,1,0,660.43,72Z" fill="#32353a"/><path d="M655.81,80.64v2.47a1.15,1.15,0,0,0,2.3,0V80.64a1.15,1.15,0,0,0-2.3,0Z" fill="#32353a"/><path d="M658.68,90l1.75,1.75a1.14,1.14,0,0,0,1.62,0,1.15,1.15,0,0,0,0-1.63l-1.74-1.75A1.15,1.15,0,1,0,658.68,90Z" fill="#32353a"/><path d="M667.35,94.65h2.47a1.15,1.15,0,0,0,0-2.3h-2.47a1.15,1.15,0,1,0,0,2.3Z" fill="#32353a"/><path d="M676.74,91.78,678.49,90a1.15,1.15,0,0,0-1.63-1.63l-1.75,1.75a1.17,1.17,0,0,0,0,1.63A1.15,1.15,0,0,0,676.74,91.78Z" fill="#32353a"/><path d="M681.36,83.11V80.64a1.15,1.15,0,0,0-2.3,0v2.47a1.15,1.15,0,0,0,2.3,0Z" fill="#32353a"/><path d="M678.49,73.72,676.74,72a1.15,1.15,0,1,0-1.63,1.62l1.75,1.75a1.15,1.15,0,0,0,1.63,0A1.14,1.14,0,0,0,678.49,73.72Z" fill="#32353a"/><circle cx="835.32" cy="81.87" r="23.48" fill="#57585e"/><circle cx="835.32" cy="81.87" r="18.64" fill="#ededed"/><circle cx="835.32" cy="81.87" r="14.15" fill="#89b5e1"/><path d="M835.32,76.46a5.41,5.41,0,1,0,5.41,5.41A5.41,5.41,0,0,0,835.32,76.46Z" fill="#a0cdee"/><path d="M836.55,69.1h-2.47a1.15,1.15,0,1,0,0,2.3h2.47a1.15,1.15,0,1,0,0-2.3Z" fill="#32353a"/><path d="M827.16,72l-1.75,1.75a1.14,1.14,0,0,0,0,1.62,1.15,1.15,0,0,0,1.63,0l1.75-1.75a1.14,1.14,0,0,0,0-1.62A1.15,1.15,0,0,0,827.16,72Z" fill="#32353a"/><path d="M822.54,80.64v2.47a1.16,1.16,0,0,0,2.31,0V80.64a1.16,1.16,0,0,0-2.31,0Z" fill="#32353a"/><path d="M825.41,90l1.75,1.75a1.15,1.15,0,0,0,1.63-1.63L827,88.4A1.15,1.15,0,1,0,825.41,90Z" fill="#32353a"/><path d="M834.08,94.65h2.47a1.15,1.15,0,1,0,0-2.3h-2.47a1.15,1.15,0,1,0,0,2.3Z" fill="#32353a"/><path d="M843.48,91.78,845.22,90a1.15,1.15,0,0,0,0-1.63,1.14,1.14,0,0,0-1.62,0l-1.75,1.75a1.15,1.15,0,1,0,1.63,1.63Z" fill="#32353a"/><path d="M848.09,83.11V80.64a1.15,1.15,0,0,0-2.3,0v2.47a1.15,1.15,0,0,0,2.3,0Z" fill="#32353a"/><path d="M845.22,73.72,843.48,72a1.15,1.15,0,0,0-1.63,0,1.14,1.14,0,0,0,0,1.62l1.75,1.75a1.15,1.15,0,1,0,1.62-1.62Z" fill="#32353a"/><path d="M667.89,44.36c-14.73,0-19,1.07-28.19,11-2.86,3.09-13.61,17.35-17.11,24.9a2.19,2.19,0,0,0,2,3.1h4.06a16.11,16.11,0,0,0,8.45-2.25,19.48,19.48,0,0,0,8.19-9.3A25.37,25.37,0,0,1,694,81.87c0,.45,0,.89,0,1.33a3,3,0,0,0,3,3.16h1.93a3,3,0,0,0,3-3.14C701.1,65.2,693.33,44.36,667.89,44.36Z" fill="#d3c888"/><path d="M617.72,70.25H629.8l-4.71,8.63h-7.37a2.65,2.65,0,0,1-2.65-2.65V72.9A2.65,2.65,0,0,1,617.72,70.25Z" fill="#ededed"/><polygon points="615.08 76 626.66 76 628.23 73.13 615.08 73.13 615.08 76" fill="#57585e"/><path d="M809.09,79.49c0-4.26,5-19.62,16-22.82s20.72-1.9,27.61,7.08c5.13,6.69,8.13,12.93,9.29,14.43a.91.91,0,0,0,1.13.24h0a.89.89,0,0,0,.49-.74c.22-3.36,1.11-24-6.51-27.48-8.37-3.88-19.1-7.25-35.92-3.45S794.68,66.34,793,80.58c-.43,5.7,8.55,5.61,10.45,5.61A6.36,6.36,0,0,0,809.09,79.49Z" fill="#d3c888"/><path d="M783.39,26.91c-1.24-1.74-2.5-3.57-3.7-5.35A30,30,0,0,0,760.35,8.89a174.25,174.25,0,0,0-28.07-3,2.53,2.53,0,0,0-2.59,2.53V34.11a2.54,2.54,0,0,0,2.54,2.54h46a6.35,6.35,0,0,0,4.95-2.28A6.2,6.2,0,0,0,783.39,26.91Z" fill="#e1d599"/><path d="M732.23,34.92a.81.81,0,0,1-.81-.81V8.44a.8.8,0,0,1,.8-.81,171.84,171.84,0,0,1,27.81,3,28.51,28.51,0,0,1,18.23,11.93c1.33,2,2.58,3.77,3.72,5.39a4.47,4.47,0,0,1-.18,5.37,4.64,4.64,0,0,1-3.61,1.64Z" fill="#695c61"/><path d="M726,8.52A2.53,2.53,0,0,0,723.37,6c-18.08.74-33.35,5-45.45,12.66-.7.44-1.39.88-2.06,1.32a9.14,9.14,0,0,0-3.8,10.48,9,9,0,0,0,8.56,6.2h42.85A2.54,2.54,0,0,0,726,34.11Z" fill="#e1d599"/><path d="M680.62,34.92a7.3,7.3,0,0,1-6.93-5,7.4,7.4,0,0,1,3.1-8.49l2.06-1.31c11.82-7.5,26.82-11.67,44.59-12.4h0a.82.82,0,0,1,.84.81V34.11a.81.81,0,0,1-.81.81Z" fill="#695c61"/><path d="M711.84,8.73,709.77,9,705.5,34.92h2Z" fill="#847a7e"/><path d="M696.07,34.92h7l4.2-25.46q-3.75.67-7.29,1.62Z" fill="#847a7e"/><path d="M760.68,10.73l-.65-.14-1.6-.28-5.25,24.61h2.33Z" fill="#847a7e"/><path d="M746.27,34.92h4.67l5.34-25c-1.52-.25-3-.48-4.53-.69Z" fill="#847a7e"/><path d="M662.52,28.08l10.05-9.17a10,10,0,0,0,3.13-5.79l-.92.57a198.92,198.92,0,0,0-22.55,16.36A10,10,0,0,0,662.52,28.08Z" fill="#695c61"/><path d="M668.59,44a.88.88,0,0,1-.75-.43.86.86,0,0,1,.31-1.18c8-4.7,47.1-4.84,51.53-4.84h65.8c17.54,0,34.22,2.39,44.18,3.82l1.13.16a.87.87,0,0,1,.73,1,.86.86,0,0,1-1,.73L829.42,43c-9.92-1.42-26.52-3.8-43.94-3.8h-65.8c-15.91,0-44.47,1-50.66,4.6A.88.88,0,0,1,668.59,44Z" fill="#ededed"/><path d="M781.82,28.48a13,13,0,0,0,0,10.7h.06a5.36,5.36,0,0,0,5.35-5.35h0a5.35,5.35,0,0,0-5.35-5.35Z" fill="#89b5e1"/><path d="M780.92,36.3a13.86,13.86,0,0,0,.9,2.88h.06a5.36,5.36,0,0,0,5.35-5.35C787.23,35.14,784.44,36.21,780.92,36.3Z" fill="#629abf"/><ellipse cx="739.01" cy="45.24" rx="6.65" ry="3.84" fill="#e1d599"/><path d="M744.15,47H733.88a1.77,1.77,0,0,1-1.77-1.77h0a1.77,1.77,0,0,1,1.77-1.77h10.27a1.77,1.77,0,0,1,1.77,1.77h0A1.78,1.78,0,0,1,744.15,47Z" fill="#57585e"/><path d="M730,60.12h0a.69.69,0,0,1-.69-.69V50.67A.69.69,0,0,1,730,50h0a.69.69,0,0,1,.69.69v8.76A.69.69,0,0,1,730,60.12Z" fill="#f7efc4"/><path d="M806.33,58a.85.85,0,0,1-.56-.21.87.87,0,0,1-.1-1.22c.88-1,9.05-10,24.69-10.43a.87.87,0,0,1,0,1.73c-15.15.38-23.08,9.44-23.42,9.82A.86.86,0,0,1,806.33,58Z" fill="#ede5a5"/><path d="M643.12,55.46a.83.83,0,0,1-.6-.25.87.87,0,0,1,0-1.22c2.54-2.55,8.47-8.54,16.67-8.54a.87.87,0,0,1,0,1.73c-7.48,0-13.06,5.63-15.44,8A.86.86,0,0,1,643.12,55.46Z" fill="#ede5a5"/><path d="M643.54,38.24l4.21,2.92a.52.52,0,1,0,.59-.85l-4.08-2.83Z" fill="#c6ba7d"/><path d="M646.5,43a.52.52,0,1,0,.59-.85l-4.36-3-.7.77Z" fill="#c6ba7d"/><path d="M645.24,44.77a.49.49,0,0,0,.3.1.54.54,0,0,0,.43-.23.52.52,0,0,0-.14-.72l-4.58-3.17-.68.78Z" fill="#c6ba7d"/><path d="M249.8,83.26S248.32,89,235,89s-38.22.63-38.22.63H28.59a2.33,2.33,0,0,1-2.26-1.76h0a2.3,2.3,0,0,0-1.68-1.7L9.38,82.28s12.81-28.8,13.36-28.6,56.42-3.26,56.42-3.26H223.62s23.88,11.89,24,13.49S249.8,83.26,249.8,83.26Z" fill="#181a1c"/><circle cx="56.55" cy="84.33" r="18.41" transform="translate(-43.07 64.69) rotate(-45)" fill="#181a1c"/><circle cx="212.56" cy="84.33" r="18.41" transform="translate(108.66 288.04) rotate(-84.62)" fill="#181a1c"/><path d="M252.76,57.11A6.14,6.14,0,0,0,248,52.86L195.34,43.2,176.29,29.3a55.83,55.83,0,0,0-32.92-10.74H108.61a6.31,6.31,0,0,0-6,4.45L96,44.56H7.24A3.4,3.4,0,0,0,3.84,48V79.9a3,3,0,0,0,2.72,3l18.69,1.63c.8-4.29,2.07-10.27,2.07-10.27l5.43-11.81,7-3.69H62.28l5,2.72s3.68,5.14,3.88,5.38,4.65,14.59,7,21.79l112.51.18c1.6-6.36,4.51-17.65,4.51-17.65l5.43-10.38,6.14-1.16h15.41S233.17,62,233.46,62a48.48,48.48,0,0,1,3.78,4.08s5.44,15.42,5.44,15.81c0,.19.26,2.48.49,4.77,3-.52,5.94-1,8.24-1.4C256.61,73.64,254.47,62.61,252.76,57.11Z" fill="#f26f75"/><path d="M236.6,50.77,195.34,43.2,176.29,29.3a55.83,55.83,0,0,0-32.92-10.74H108.61a6.31,6.31,0,0,0-6,4.45L96,44.56H7.24A3.4,3.4,0,0,0,3.84,48v2.81Z" fill="#f4848d"/><path d="M49.68,84.33a2.14,2.14,0,1,0,2.14,2.14A2.14,2.14,0,0,0,49.68,84.33Z" fill="#847a7e"/><path d="M49.68,82a.64.64,0,0,0-.64.63.64.64,0,0,0,.64.64.64.64,0,0,0,.63-.64A.63.63,0,0,0,49.68,82Z" fill="#847a7e"/><path d="M45.41,85.09a.63.63,0,0,0,.41.8.64.64,0,0,0,.39-1.21A.63.63,0,0,0,45.41,85.09Z" fill="#847a7e"/><path d="M47,90.1a.63.63,0,1,0-.14-.88A.63.63,0,0,0,47,90.1Z" fill="#847a7e"/><path d="M52.31,90.1a.63.63,0,1,0-.88-.14A.62.62,0,0,0,52.31,90.1Z" fill="#847a7e"/><path d="M53.94,85.09a.63.63,0,0,0-.8-.41.64.64,0,1,0,.8.41Z" fill="#847a7e"/><circle cx="49.68" cy="85.7" r="19.65" fill="#57585e"/><circle cx="49.68" cy="85.7" r="12.25" transform="translate(-46.05 60.23) rotate(-45)" fill="#424449"/><circle cx="49.68" cy="85.7" r="10.31" transform="translate(-46.05 60.23) rotate(-45)" fill="#ededed"/><path d="M47,94.74l.49-1.18a2,2,0,0,0-.68-2.43l-1.41-1a2.06,2.06,0,0,0-2.53.1l-1,.84A9.43,9.43,0,0,0,47,94.74Z" fill="#32353a"/><path d="M43.63,84.65,44.16,83a2,2,0,0,0-.87-2.37L42.2,80a9.37,9.37,0,0,0-2,5.75c0,.08,0,.16,0,.25l1.27.1A2.05,2.05,0,0,0,43.63,84.65Z" fill="#32353a"/><path d="M57.45,91l-1-.84A2.06,2.06,0,0,0,54,90.1l-1.4,1a2,2,0,0,0-.69,2.43l.49,1.18A9.43,9.43,0,0,0,57.45,91Z" fill="#32353a"/><path d="M57.16,80l-1.09.67A2,2,0,0,0,55.19,83l.54,1.66a2,2,0,0,0,2.1,1.4L59.1,86a2.18,2.18,0,0,0,0-.25A9.43,9.43,0,0,0,57.16,80Z" fill="#32353a"/><path d="M52.53,78.05l.3-1.24a9.32,9.32,0,0,0-6.31,0l.3,1.24a2,2,0,0,0,2,1.57h1.74A2,2,0,0,0,52.53,78.05Z" fill="#32353a"/><circle cx="218.72" cy="85.7" r="19.65" transform="translate(-13.9 53.01) rotate(-13.4)" fill="#57585e"/><circle cx="218.72" cy="85.7" r="12.25" transform="translate(-13.88 52.83) rotate(-13.35)" fill="#424449"/><circle cx="218.72" cy="85.7" r="10.31" transform="translate(-13.87 52.79) rotate(-13.34)" fill="#ededed"/><path d="M216,94.74l.49-1.18a2,2,0,0,0-.68-2.43l-1.41-1a2.06,2.06,0,0,0-2.53.1l-1,.84A9.43,9.43,0,0,0,216,94.74Z" fill="#32353a"/><path d="M212.67,84.65,213.2,83a2,2,0,0,0-.87-2.37l-1.1-.67a9.43,9.43,0,0,0-1.95,5.75c0,.08,0,.16,0,.25l1.27.1A2.07,2.07,0,0,0,212.67,84.65Z" fill="#32353a"/><path d="M226.49,91l-1-.84a2.06,2.06,0,0,0-2.53-.1l-1.41,1a2,2,0,0,0-.68,2.43l.49,1.18A9.43,9.43,0,0,0,226.49,91Z" fill="#32353a"/><path d="M226.2,80l-1.1.67a2,2,0,0,0-.87,2.37l.53,1.66a2.07,2.07,0,0,0,2.11,1.4l1.27-.1c0-.09,0-.17,0-.25A9.43,9.43,0,0,0,226.2,80Z" fill="#32353a"/><path d="M221.57,78.05l.3-1.24a9.32,9.32,0,0,0-6.31,0l.3,1.24a2,2,0,0,0,2,1.57h1.73A2,2,0,0,0,221.57,78.05Z" fill="#32353a"/><rect x="131.05" y="52.01" width="9.99" height="5.38" rx="1.59" fill="#c65d67"/><path d="M141.62,53.5H130.47a1.2,1.2,0,1,0,0,2.4h11.15a1.2,1.2,0,0,0,0-2.4Z" fill="#57585e"/><path d="M252.77,57.11l-.14-.39H244a2.72,2.72,0,0,0-2.47,3.85l4.13,9a2.64,2.64,0,0,0,2.4,1.54h6.6A42.87,42.87,0,0,0,252.77,57.11Z" fill="#ede5a5"/><path d="M9.24,50.77H3.84V65.83l3.39-.44A2.12,2.12,0,0,0,9,63.74l2.29-10.4A2.11,2.11,0,0,0,9.24,50.77Z" fill="#db636b"/><path d="M3.84,51.88h5.4a1,1,0,0,1,.78.37,1,1,0,0,1,.19.85L7.93,63.51a1,1,0,0,1-.85.77l-3.24.28Z" fill="#ede5a5"/><path d="M2.91,75.47H13.32a5.43,5.43,0,0,1,5.43,5.43v3.17a2.4,2.4,0,0,1-2.4,2.4H2.91A2.91,2.91,0,0,1,0,83.56V78.38a2.91,2.91,0,0,1,2.91-2.91Z" fill="#db636b"/><path d="M95.54,44.56H94.39c-.21,6.92,1.23,35.41,3,44l1.19,0C96.76,80.43,95.31,51.13,95.54,44.56Z" fill="#91363e"/><path d="M76.47,83.26c.63,2,1.24,3.82,1.75,5.35l112.51.18,1.4-5.53Z" fill="#db636b"/><path d="M187,42l-.51.28c7.34,13.45,1.41,37,.75,39.47H126.35c.36-3.86-.35-32.07-.44-35.38l2.48-27.73-.29,0h-.29L125.33,46.3c.34,13.22.72,33,.44,35.4H97v.58h90.69l.06-.21C187.81,81.81,194.82,56.3,187,42Z" fill="#91363e"/><path d="M186.2,40.63,174.1,31.8A52.37,52.37,0,0,0,143,21.67h-11a1.57,1.57,0,0,0-1.56,1.39l-2.4,21.44a1.58,1.58,0,0,0,1.56,1.75l54.74-.1A3.06,3.06,0,0,0,186.2,40.63Z" fill="#3d3036"/><path d="M129.67,45.09a.41.41,0,0,1-.4-.46l2.4-21.44a.4.4,0,0,1,.4-.36h11a51.23,51.23,0,0,1,30.4,9.92l12.09,8.82A1.89,1.89,0,0,1,184.4,45l-54.73.11Z" fill="#695c61"/><path d="M123,21.67H108.78a2.85,2.85,0,0,0-2.85,2.84V43.44a2.85,2.85,0,0,0,2.85,2.85l11.87,0a2,2,0,0,0,1.94-1.74l2.32-20.69A2,2,0,0,0,123,21.67Z" fill="#3d3036"/><path d="M108.78,45.13a1.69,1.69,0,0,1-1.68-1.69V24.51a1.68,1.68,0,0,1,1.68-1.68H123a.81.81,0,0,1,.79.88L121.43,44.4a.78.78,0,0,1-.79.7Z" fill="#695c61"/><polygon points="121.5 22.83 120.26 22.83 115.38 45.11 116.63 45.11 121.5 22.83" fill="#847a7e"/><path d="M107.89,44.86a1.59,1.59,0,0,0,.89.27h4.48l4.88-22.29h-5.43Z" fill="#847a7e"/><path d="M138.77,45.07h5.43L149,23.17a52.82,52.82,0,0,0-5.36-.33Z" fill="#847a7e"/><path d="M152.25,23.66l-1.2-.21-4.73,21.6h1.25Z" fill="#847a7e"/><path d="M183.32,50.78h-2a3.15,3.15,0,0,1-3-2.15l-1.21-3.55h6.21a2.78,2.78,0,0,1,2.79,2.78V48A2.79,2.79,0,0,1,183.32,50.78Z" fill="#424449"/><path d="M175.68,35.84V48.35h4.37a4.24,4.24,0,0,0,4.23-4.24v-4a4.23,4.23,0,0,0-4.23-4.23Z" fill="#57585e"/><rect x="175.68" y="35.84" width="4.36" height="12.51" fill="#717175"/><path d="M178.53,37.63h-1.7a.51.51,0,0,1-.51-.51h0a.51.51,0,0,1,.51-.52h1.7a.52.52,0,0,1,.52.52h0A.51.51,0,0,1,178.53,37.63Z" fill="#9a9b9e"/><path d="M255.05,72.11h-16.3c1.49,4.29,3.19,9.19,3.19,9.41s.35,3.11.58,5.4c1.85-.32,10.88-1.81,10.88-1.81a5.9,5.9,0,0,0,5-5.82V75.43A3.33,3.33,0,0,0,255.05,72.11Z" fill="#ef8990"/><path d="M241.22,79.27c.43,1.29.72,2.16.72,2.25s.35,3.11.58,5.4c1.85-.32,10.88-1.81,10.88-1.81a5.9,5.9,0,0,0,5-5.82v-1.6Z" fill="#32353a"/><path d="M73.84,68.54A17,17,0,0,0,57.65,56.46H43.55A17,17,0,0,0,27.33,68.61L22.74,84.3l3.54.31,4.4-15A13.41,13.41,0,0,1,43.55,60h14.1A13.41,13.41,0,0,1,70.5,69.54l5.77,19,3.66.08Z" fill="#c6545f"/><path d="M236.14,62.28c-4.67-3.66-15.1-5-22.62-5-8.54,0-14,1.43-16.08,4.25-3.31,4.37-7,17.2-8.56,27.18l3.52.08c1.57-9.78,5.09-21.55,7.82-25.16,3.3-4.36,27.46-3.59,33.76,1.36,4.87,3.82,6.68,16.41,7.24,21.92l3.47-.59C244.06,80,242.07,66.93,236.14,62.28Z" fill="#c6545f"/><path d="M117.71,52h-20a.74.74,0,0,0-.74.74.73.73,0,0,0,.74.73h20a.73.73,0,0,0,.73-.73A.74.74,0,0,0,117.71,52Z" fill="#f7acb7"/><path d="M91.06,52h-20a.74.74,0,0,0-.74.74.73.73,0,0,0,.74.73h20a.73.73,0,0,0,.74-.73A.74.74,0,0,0,91.06,52Z" fill="#f7acb7"/><path d="M166.47,52h-20a.74.74,0,0,0-.73.74.73.73,0,0,0,.73.73h20a.73.73,0,0,0,.74-.73A.74.74,0,0,0,166.47,52Z" fill="#f7acb7"/><path d="M7.92,53.24H5.76a.8.8,0,0,0,0,1.6H7.92a.8.8,0,1,0,0-1.6Z" fill="#ededed"/><path d="M249.67,57.38H243.8a.81.81,0,0,0,0,1.61h5.87a.81.81,0,1,0,0-1.61Z" fill="#ededed"/><path d="M381.21,93.87H554.12a7.51,7.51,0,0,0,7.51-7.51v-13a13.34,13.34,0,0,0-7-11.74c-10.56-5.68-34.17-13.89-56.11-14.15-24.87-13.17-47.2-23.86-63-24.23S386.68,19.15,342,40.66c-10.7,1.48-20,.92-21.83.37s-9.46,9.27-6.3,15.76-.37,13.87-1.86,20.47,4.45,10,11.87,11.94S381.21,93.87,381.21,93.87Z" fill="#89ca86"/><path d="M342,40.66c-1,.14-2,.26-3,.37,21.49,3.43,40.26,12.06,75.55,18.17C460.27,67.11,492,48.86,498.5,47.46c-24.87-13.17-47.2-23.86-63-24.23S386.68,19.15,342,40.66Z" fill="#94ce91"/><circle cx="367.57" cy="85.94" r="17.56" transform="translate(-4.77 148.04) rotate(-22.63)" fill="#181a1c"/><path d="M501.92,89.86H392.23c-13.46,0-64-12.25-78.65-18.28-.54,1.93-1.11,3.83-1.53,5.68-1.48,6.6,4.45,10,11.87,11.94s57.29,4.67,57.29,4.67H554.12a7.51,7.51,0,0,0,6.64-4Z" fill="#73b571"/><path d="M340.85,91.15c17.12,1.43,40.36,2.72,40.36,2.72h2.9a5.72,5.72,0,0,0,.38-1.53c0-.88.64-4.46.64-5.43s-1.84-4.72-1.67-5.83a9.31,9.31,0,0,0-1.32-4.7c-.86-1.61-1.61-3.58-2.6-4.08A19.67,19.67,0,0,1,376,70.23c-.91-.77-5.37-3.74-5.37-3.74s-8.58-.62-9-.62-8.93,2.51-8.93,2.51L346.05,73l-5.2,9.15Z" fill="#181a1c"/><path d="M527.39,71.44c-.25-.37-9-5.57-9.26-5.69s-10.45-1.11-10.45-1.11L497,71.19,491.29,79l-.49,9.85,1,5H534c.43-1.72,1-4.22,1-4.67,0-.7-2.23-10.21-2.23-10.21S527.63,71.81,527.39,71.44Z" fill="#181a1c"/><circle cx="362.75" cy="87.79" r="17.56" transform="translate(-9.4 59.57) rotate(-9.27)" fill="#424449"/><circle cx="362.75" cy="87.79" r="14.13" fill="#f4f4f4"/><path d="M359,88.1a.69.69,0,0,0,.76-.57.7.7,0,0,0-.52-.8l-8.94-2.21a12.47,12.47,0,0,0-.4,2.6Z" fill="#32353a"/><path d="M359.94,90.47a.69.69,0,0,0,.22-.92.7.7,0,0,0-.91-.28l-8.11,4a12.3,12.3,0,0,0,1.34,2.24Z" fill="#32353a"/><path d="M359.88,85.7a.69.69,0,0,0,1.06-.89l-5.51-7.55a12.75,12.75,0,0,0-2,1.73Z" fill="#32353a"/><path d="M359.69,100.25l2.47-8.54a.7.7,0,0,0-1.31-.48l-3.6,8.15A12.63,12.63,0,0,0,359.69,100.25Z" fill="#32353a"/><path d="M366.22,86.73a.7.7,0,0,0,.24,1.37l9.1-1a12.47,12.47,0,0,0-.4-2.6Z" fill="#32353a"/><path d="M364.65,91.23a.7.7,0,0,0-.87-.37.69.69,0,0,0-.43.85l2.46,8.54a13,13,0,0,0,2.45-.87Z" fill="#32353a"/><path d="M363.45,84.4l.63-9.37a12.67,12.67,0,0,0-2.66,0l.64,9.37a.69.69,0,0,0,.69.65A.7.7,0,0,0,363.45,84.4Z" fill="#32353a"/><path d="M374.36,93.24l-8.11-4a.69.69,0,0,0-.69,1.2l7.46,5A12.3,12.3,0,0,0,374.36,93.24Z" fill="#32353a"/><path d="M364.68,85.75a.69.69,0,0,0,.95,0L372.08,79a12.75,12.75,0,0,0-2-1.73l-5.51,7.55A.7.7,0,0,0,364.68,85.75Z" fill="#32353a"/><circle cx="362.75" cy="87.95" r="1.04" fill="#57585e"/><path d="M362.75,90.13a.31.31,0,1,1,.31-.3A.3.3,0,0,1,362.75,90.13Z" fill="#57585e"/><path d="M360.68,88.63a.31.31,0,1,1,.58-.2.3.3,0,0,1-.2.39A.29.29,0,0,1,360.68,88.63Z" fill="#57585e"/><path d="M361.47,86.19a.3.3,0,1,1,.36.49.31.31,0,0,1-.43-.06A.31.31,0,0,1,361.47,86.19Z" fill="#57585e"/><path d="M364,86.19a.31.31,0,0,1,.07.43.31.31,0,0,1-.43.06.3.3,0,1,1,.36-.49Z" fill="#57585e"/><path d="M364.83,88.63a.3.3,0,0,1-.39.19.31.31,0,0,1-.2-.39.3.3,0,0,1,.39-.19A.31.31,0,0,1,364.83,88.63Z" fill="#57585e"/><circle cx="512.63" cy="87.79" r="17.56" fill="#424449"/><circle cx="512.63" cy="87.79" r="14.13" fill="#f4f4f4"/><path d="M508.92,88.1a.7.7,0,0,0,.76-.57.71.71,0,0,0-.52-.8l-8.94-2.21a13.18,13.18,0,0,0-.41,2.6Z" fill="#32353a"/><path d="M509.82,90.47a.7.7,0,0,0-.7-1.2l-8.11,4a12.94,12.94,0,0,0,1.35,2.24Z" fill="#32353a"/><path d="M509.75,85.7a.69.69,0,0,0,.95,0,.7.7,0,0,0,.12-.94l-5.51-7.55a12.32,12.32,0,0,0-2,1.73Z" fill="#32353a"/><path d="M509.56,100.25,512,91.71a.69.69,0,0,0-1.3-.48l-3.61,8.15A12.87,12.87,0,0,0,509.56,100.25Z" fill="#32353a"/><path d="M516.09,86.73a.69.69,0,0,0-.51.8.69.69,0,0,0,.75.57l9.11-1a13.18,13.18,0,0,0-.41-2.6Z" fill="#32353a"/><path d="M514.52,91.23a.7.7,0,0,0-.87-.37.71.71,0,0,0-.43.85l2.47,8.54a12.63,12.63,0,0,0,2.44-.87Z" fill="#32353a"/><path d="M513.32,84.4,514,75a11.73,11.73,0,0,0-1.33-.07,11.61,11.61,0,0,0-1.33.07l.63,9.37a.7.7,0,0,0,.7.65A.69.69,0,0,0,513.32,84.4Z" fill="#32353a"/><path d="M524.24,93.24l-8.11-4a.7.7,0,0,0-.7,1.2l7.47,5A12.3,12.3,0,0,0,524.24,93.24Z" fill="#32353a"/><path d="M514.55,85.75a.69.69,0,0,0,1,0L522,79a12.75,12.75,0,0,0-2-1.73l-5.51,7.55A.69.69,0,0,0,514.55,85.75Z" fill="#32353a"/><circle cx="512.63" cy="87.95" r="1.04" fill="#57585e"/><path d="M512.63,90.13a.31.31,0,1,1,0-.61.31.31,0,0,1,0,.61Z" fill="#57585e"/><path d="M510.55,88.63a.31.31,0,0,1,.2-.39.3.3,0,0,1,.39.19.31.31,0,0,1-.2.39A.3.3,0,0,1,510.55,88.63Z" fill="#57585e"/><path d="M511.34,86.19a.3.3,0,0,1,.43.06.31.31,0,0,1-.06.43.33.33,0,0,1-.44-.06A.31.31,0,0,1,511.34,86.19Z" fill="#57585e"/><path d="M513.91,86.19a.31.31,0,0,1,.07.43.31.31,0,0,1-.43.06.3.3,0,1,1,.36-.49Z" fill="#57585e"/><path d="M514.7,88.63a.31.31,0,1,1-.58-.2.29.29,0,0,1,.38-.19A.3.3,0,0,1,514.7,88.63Z" fill="#57585e"/><path d="M550.29,75a1.83,1.83,0,0,0-1.68,2.54l4.2,9.91a1.83,1.83,0,0,0,1.68,1.12h6.82a7.75,7.75,0,0,0,.32-2.17V75Z" fill="#487545"/><path d="M489.23,48.86h-.56c0,.28.33,28.77-2.36,41H429.75c3.18-18.67-3-43.27-3-43.52l-.54.13c.06.25,6.2,24.83,3,43.39h-37c-3.11-9.58-6.35-15.67-13.76-25.91-3.73-5.16-9-15.94-8.39-19.69l-.55-.09c-.66,3.95,4.61,14.75,8.49,20.11,7.42,10.25,10.63,16.31,13.75,25.94l.26.19h94.5l.27-.21C489.56,78,489.23,49.15,489.23,48.86Z" fill="#487545"/><path d="M492.3,50.36a1.42,1.42,0,0,0,.7-2.67c-20.27-10.53-40.35-19.69-54.24-20L435,27.56c-3.31-.1-7.06-.22-11.39-.22a180.42,180.42,0,0,0-51.68,7.3,6.79,6.79,0,0,0-4.78,7.51v0a3.59,3.59,0,0,0,3.4,3.06Z" fill="#3d3036"/><path d="M388.36,32.13a181.66,181.66,0,0,1,32.41-3.28,1.79,1.79,0,0,1,1.8,1.49l2.37,13.5A1.8,1.8,0,0,1,423.09,46L390.2,44.58a1.82,1.82,0,0,1-1.71-1.5l-1.55-8.86A1.81,1.81,0,0,1,388.36,32.13Zm46,14.3L492,48.86c-18.45-9.58-39.17-19.37-53.31-19.7l-3.81-.11L432,29a1.81,1.81,0,0,0-1.84,2.12l2.44,13.86A1.8,1.8,0,0,0,434.32,46.43Zm-52.06-11A1.8,1.8,0,0,0,380.05,34q-3.87.95-7.72,2.09A5.35,5.35,0,0,0,368.6,42a2.11,2.11,0,0,0,2,1.8l11,.46a1.81,1.81,0,0,0,1.86-2.12Z" fill="#695c61"/><path d="M481.58,48.76,483.67,51a1.07,1.07,0,0,1-.79,1.79h-3.1a1.08,1.08,0,0,1-.81-.37l-2.76-3.23Z" fill="#424449"/><path d="M470.08,46.34v1.73a2.36,2.36,0,0,0,2.36,2.36h7.89A2.63,2.63,0,0,0,483,47.8h0a3.14,3.14,0,0,0-1.29-2.54L478.54,43a3.12,3.12,0,0,0-3-.39l-4,1.54A2.38,2.38,0,0,0,470.08,46.34Z" fill="#73b571"/><path d="M481.67,45.26,478.54,43a3.12,3.12,0,0,0-3-.39l-1.48.57L477,45.26a3.14,3.14,0,0,1,1.29,2.54,2.63,2.63,0,0,1-2.63,2.63h4.72A2.63,2.63,0,0,0,483,47.8,3.14,3.14,0,0,0,481.67,45.26Z" fill="#5e995b"/><path d="M436.23,46.51l7.75.33,7.56-15.5a66.43,66.43,0,0,0-7.13-1.61Z" fill="#847a7e"/><path d="M455.84,32.65c-.64-.21-1.28-.42-1.92-.61L446.65,47l2.18.09Z" fill="#847a7e"/><path d="M414.59,29q-1.14,0-2.28.12l-7.81,16,2.18.09Z" fill="#847a7e"/><path d="M409.5,29.33c-2.79.2-5.56.47-8.3.79l-7.12,14.62,7.75.32Z" fill="#847a7e"/><path d="M385.63,93.87a23.47,23.47,0,0,0,.8-6.08,23.68,23.68,0,0,0-47.36,0A24.56,24.56,0,0,0,339.3,91l3,.25a21,21,0,0,1-.3-3.48,20.71,20.71,0,1,1,40.51,6.08Z" fill="#5e995b"/><path d="M512.63,64.11a23.69,23.69,0,0,0-22.89,29.76h3.09a20.71,20.71,0,1,1,39.6,0h3.08a23.69,23.69,0,0,0-22.88-29.76Z" fill="#5e995b"/><path d="M441.26,53.91c-2.06,0-3.73,1.19-3.73,2.65s1.67,2.64,3.73,2.64S445,58,445,56.56,443.33,53.91,441.26,53.91Z" fill="#73b571"/><path d="M444.65,55.4h-6.77a1.16,1.16,0,0,0,0,2.32h6.77a1.16,1.16,0,0,0,0-2.32Z" fill="#5e995b"/><ellipse cx="385.13" cy="53.91" rx="3.73" ry="2.64" fill="#73b571"/><path d="M388.51,52.76h-6.76a1.16,1.16,0,1,0,0,2.31h6.76a1.16,1.16,0,1,0,0-2.31Z" fill="#5e995b"/><path d="M327.28,55.88l4.27-5a1.94,1.94,0,0,0-1.47-3.21h-15.6c-1.26,2.85-1.88,6.12-.67,8.86h12A2,2,0,0,0,327.28,55.88Z" fill="#3d3036"/><path d="M330.83,49.3a.79.79,0,0,0-.75-.48H314a11.25,11.25,0,0,0-.61,6.62h12.39a.84.84,0,0,0,.63-.28l4.27-5A.79.79,0,0,0,330.83,49.3Z" fill="#f26f75"/><path d="M322.28,49.37h-6.8a.9.9,0,0,0,0,1.79h6.8a.9.9,0,1,0,0-1.79Z" fill="#fcd9dc"/><path d="M556.77,73a3.15,3.15,0,0,1-1.17-.22l-16.7-6.66a2.52,2.52,0,0,1-1.5-3.06,2.55,2.55,0,0,1,2.44-1.83H540l12.31.71a6.53,6.53,0,0,1,5.11,3l2,3.2A3.15,3.15,0,0,1,556.77,73Z" fill="#3d3036"/><path d="M556.77,65.35l2,3.21a2.4,2.4,0,0,1-.06,2.68h0a2.42,2.42,0,0,1-2.87.86l-16.71-6.65a1.81,1.81,0,0,1-1.06-2.18h0A1.81,1.81,0,0,1,539.94,62l12.3.71A5.77,5.77,0,0,1,556.77,65.35Z" fill="#ededed"/><path d="M551.57,69A13.46,13.46,0,0,0,550,62.56l-10-.58a1.8,1.8,0,0,0-.77,3.47l12.33,4.9C551.54,69.9,551.57,69.44,551.57,69Z" fill="#ede5a5"/><path d="M542,62.1l-2-.12a1.8,1.8,0,0,0-.77,3.47L543.05,67A13.53,13.53,0,0,0,542,62.1Z" fill="#f26f75"/><path d="M454.62,49.67,432.5,48.8a.69.69,0,0,0-.71.67.68.68,0,0,0,.66.71l22.13.87a.69.69,0,0,0,0-1.38Z" fill="#aed8a8"/><path d="M401.12,47.49,379,46.62A.69.69,0,1,0,379,48l22.13.87a.68.68,0,0,0,.71-.66A.69.69,0,0,0,401.12,47.49Z" fill="#aed8a8"/></svg>