<?xml version="1.0" encoding="utf-8"?>
<!-- Generator: Adobe Illustrator 23.0.1, SVG Export Plug-In . SVG Version: 6.00 Build 0)  -->
<svg version="1.1" id="Layer_1" xmlns="http://www.w3.org/2000/svg" xmlns:xlink="http://www.w3.org/1999/xlink" x="0px" y="0px"
	 viewBox="0 0 2424.22 1704.22" enable-background="new 0 0 2424.22 1704.22" xml:space="preserve">
<rect x="40.11" y="40.11" fill-rule="evenodd" clip-rule="evenodd" fill="#64725E" stroke="#160A0C" stroke-width="0.216" stroke-miterlimit="22.9256" width="2384" height="1664"/>
<rect x="0.11" y="0.11" fill-rule="evenodd" clip-rule="evenodd" fill="#160A0C" stroke="#160A0C" stroke-width="0.216" stroke-miterlimit="22.9256" width="2384" height="1664"/>
<line fill-rule="evenodd" clip-rule="evenodd" fill="none" stroke="#FAD297" stroke-width="1.9998" stroke-linecap="round" stroke-miterlimit="22.9256" stroke-dasharray="3.9997,9.9992" x1="339.11" y1="839.92" x2="472.61" y2="839.92"/>
<line fill-rule="evenodd" clip-rule="evenodd" fill="none" stroke="#FAD297" stroke-width="1.9998" stroke-linecap="round" stroke-miterlimit="22.9256" stroke-dasharray="3.9997,9.9992" x1="409.9" y1="990.77" x2="472.61" y2="990.77"/>
<polygon fill-rule="evenodd" clip-rule="evenodd" fill="#709222" points="2069.05,379.93 1528.5,379.93 1533.89,412.92 
	1528.5,445.91 2069.05,445.91 2062.19,412.92 "/>
<path fill-rule="evenodd" clip-rule="evenodd" fill="#C85C00" d="M1654.64,316c-0.18-1.16-0.37-2.33-0.55-3.51
	c-0.29,2.21-0.63,4.97-1.03,8.28c-0.49,4.02-0.87,7.24-1.13,9.63c-0.38,3.46-0.68,6.3-0.89,8.53l-0.06,0.56
	c-0.29,1.71-0.66,3.17-1.13,4.39c-0.72,1.89-1.75,3.45-3.09,4.67l0.02,0.02c-3.04,2.78-7.04,3.4-12.01,1.85l-0.13-0.06
	c-1.22-0.41-2.37-0.83-3.44-1.27c-1.2-0.49-2.33-0.99-3.39-1.51c-1.23-0.6-2.41-1.24-3.54-1.94c-1.14-0.7-2.25-1.47-3.34-2.3l0-0.01
	c-1.54-1.16-2.84-2.4-3.89-3.71c-1.25-1.55-2.19-3.19-2.8-4.91c-0.56-1.56-0.91-3.35-1.06-5.36c-0.13-1.68-0.11-3.55,0.05-5.61
	l0.01,0c0.15-2.77,0.32-5.39,0.52-7.86c0.17-2.11,0.45-5.25,0.85-9.4c0.37-3.9,0.73-7.37,1.06-10.42c0.46-4.26,0.88-7.96,1.25-11.09
	c0.33-2.81,0.82-6.67,1.47-11.6c0.61-4.62,1.15-8.6,1.63-11.93l3.36-23.35c0.64-4.47,1.19-8.16,1.63-11.06
	c0.39-2.53,0.94-6.01,1.67-10.43c0.65-4,1.17-7.11,1.56-9.33c0.44-2.51,0.92-5.17,1.45-7.96l0.06-0.31
	c0.52-2.25,1.17-4.18,1.94-5.77c1.11-2.29,2.56-4.07,4.35-5.32c3.16-2.21,7.13-2.84,11.89-1.89l0,0.01
	c2.12,0.41,4.11,0.86,5.97,1.36c1.28,0.34,2.52,0.71,3.71,1.12l0.41-2.43l0.21,2.65c0.34,0.12,0.68,0.24,1.01,0.36
	c1.6,0.59,3.12,1.21,4.56,1.84c1.39,0.61,2.92,1.33,4.58,2.16c1.29,0.65,2.4,1.29,3.34,1.92c1.16,0.79,2.16,1.6,2.98,2.43
	c0.83,0.83,1.59,1.74,2.28,2.73v0.03c0.7,1,1.28,2.03,1.75,3.08c0.42,0.94,0.8,1.96,1.12,3.05c0.3,1.03,0.54,2.08,0.72,3.15
	c0.18,1.06,0.32,1.93,0.42,2.61c0.02,0.1,0.14,1.04,0.38,2.86l0.09,0.7v0.33c0,1-0.01,1.11-0.01,1.27c0.01,0.29,0.03,0.84,0.07,1.62
	c0.03,0.58,0.09,1.36,0.19,2.36c0.06,0.63,0.21,2.05,0.46,4.25l0.65,5.96c0.17-0.47,0.33-0.9,0.48-1.31c0.48-1.3,1.42-3.74,2.8-7.32
	c1.63-4.23,2.55-6.59,2.71-7c0.72-1.83,1.6-4,2.6-6.48l0.02,0.01c1.11-3.07,1.86-5.12,2.25-6.14c0.59-1.54,1.28-3.29,2.09-5.23
	c0.73-1.77,1.48-3.35,2.26-4.73c0.86-1.54,1.77-2.89,2.74-4.05c1.24-1.49,2.63-2.68,4.16-3.58c1.73-1.01,3.56-1.63,5.48-1.85
	c1.66-0.19,3.42-0.1,5.27,0.26c1.51,0.3,3.15,0.8,4.94,1.52l0,0c1.71,0.58,3.25,1.12,4.62,1.64l0.63,0.24l3.76,1.49
	c0.33,0.13,0.65,0.27,0.98,0.41c3.96,1.66,7.76,3.61,11.4,5.85l-0.01,0.01c1.82,1.12,3.35,2.36,4.59,3.74
	c0.57,0.63,1.07,1.28,1.52,1.96l0.51-3.84l4.61-1.63c3.23-1.14,6.93-2.32,11.08-3.54c4.07-1.19,8.28-2.33,12.63-3.41
	c4.71-1.17,9.37-2.1,13.95-2.8c4.56-0.69,9.27-1.18,14.1-1.45v0c4.12-0.25,7.66,0.8,10.64,3.16c2.64,2.09,4.52,5,5.64,8.75
	c0.36,0.87,0.68,1.67,0.95,2.41l0.02-0.15c0.48-2.22,1.17-4.15,2.06-5.76c1.26-2.28,2.93-3.99,5.01-5.13
	c3.5-1.91,7.45-2.09,11.85-0.53l0.19,0.06c0.95,0.36,2.35,0.92,4.2,1.68c1.47,0.6,2.85,1.18,4.12,1.74
	c1.57,0.69,3.11,1.44,4.61,2.25c1.32,0.71,2.77,1.57,4.35,2.57c1.81,1.02,3.36,2.16,4.63,3.44c1.43,1.43,2.59,3.06,3.48,4.9
	c0.72,1.5,1.34,3.24,1.84,5.21c0.42,1.65,0.78,3.65,1.09,5.97c0.19,1.47,0.42,3.18,0.67,5.12l0.13,0.97c0.29-1.8,0.57-3.5,0.83-5.12
	c1.16-7.06,2.14-12.88,2.95-17.46l0.03-0.03c0.39-2.14,0.96-3.99,1.72-5.53c1.15-2.35,2.73-4.1,4.72-5.26
	c3.28-1.9,7.21-2.09,11.79-0.56c1.46,0.49,2.68,0.92,3.64,1.31c1.06,0.42,2.12,0.9,3.18,1.43l0.01-0.02
	c1.12,0.56,2.36,1.32,3.74,2.27c1.08,0.75,2.44,1.79,4.07,3.11l0.03,0.03c1.68,1.38,3.03,2.81,4.06,4.28
	c0.62,0.88,1.14,1.8,1.56,2.74c0.25-1.08,0.5-2.17,0.75-3.25l0.01,0c0.48-2.11,1.13-3.9,1.94-5.39c1.3-2.38,3.04-4.09,5.21-5.11
	c1.99-0.94,4.21-1.26,6.64-0.95c1.58,0.2,3.28,0.69,5.08,1.48l0-0.01c1.34,0.55,2.68,1.19,4,1.91c1.32,0.72,2.6,1.51,3.84,2.36
	c1.22,0.84,2.38,1.7,3.49,2.6c1.17,0.94,2.29,1.92,3.37,2.92l0.22,0.19c3.04,3.04,5.09,6.55,6.14,10.54l0.01,0
	c1.01,3.83,1.01,7.92,0.02,12.27c-0.9,3.85-1.56,6.74-1.99,8.68c-0.15,0.69-0.86,3.95-2.11,9.67c-0.69,3.15-1.39,6.53-2.11,10.14
	c-0.87,4.36-1.54,7.79-1.99,10.27c-0.66,3.58-1.24,6.98-1.75,10.18c-0.52,3.28-1,6.63-1.46,10.07c-0.44,3.31-0.79,6.44-1.07,9.4
	c-0.27,2.87-0.47,5.63-0.59,8.3c-0.03,0.64-0.05,1.27-0.07,1.88c0.42-1.31,0.83-2.67,1.23-4.09c1.79-6.42,3.5-13.92,5.13-22.5
	c0.76-4.02,1.55-8.41,2.37-13.16c0.9-5.22,1.63-9.69,2.21-13.4c0.61-3.91,1.26-8.35,1.96-13.35c0.72-5.14,1.31-9.48,1.76-13.02
	c0.51-4.08-0.05,0.25,1.48-12.12c0.56-4.5,0.98-7.99,1.28-10.43l0,0c0.16-2.23,0.62-4.17,1.38-5.82c1.25-2.7,3.17-4.62,5.77-5.75
	c3.4-1.48,7.18-1.49,11.32-0.03c1.4,0.5,2.86,1.13,4.36,1.9c1.32,0.68,2.74,1.52,4.27,2.53c1.31,0.86,2.54,1.7,3.69,2.5
	c1.22,0.86,2.37,1.69,3.44,2.49l0.28,0.22c1.49,1.23,2.74,2.47,3.75,3.73c1.33,1.67,2.24,3.38,2.72,5.13
	c0.67,2.45,0.75,5.5,0.25,9.15l0,0c-0.78,6.81-1.71,14.39-2.77,22.71c-1.03,8.06-1.97,15.11-2.83,21.13
	c-0.95,6.64-2,13.13-3.16,19.46c-1.16,6.37-2.36,12.18-3.59,17.45c-1.26,5.42-2.65,10.55-4.14,15.4c-1.5,4.87-3.08,9.28-4.72,13.23
	c-1.74,4.19-3.66,7.9-5.75,11.13c-2.21,3.4-4.62,6.24-7.23,8.53l-0.5,0.41c-1.86,1.37-3.72,2.53-5.6,3.48
	c-1.95,0.98-3.93,1.76-5.96,2.32c-2.06,0.57-4.21,0.93-6.45,1.07c-2.1,0.14-4.35,0.09-6.73-0.15c-4.56-0.46-8.75-1.42-12.57-2.9
	c-3.95-1.53-7.48-3.61-10.61-6.24l-0.13-0.09c-1.31-1.15-2.52-2.33-3.63-3.56c-1.13-1.24-2.23-2.6-3.32-4.07
	c-1.18-1.6-2.24-3.32-3.19-5.18l0.02-0.01c-0.99-1.95-1.84-3.9-2.54-5.87l0.01,0c-1.37-3.64-2.41-7.72-3.12-12.25
	c-0.18-1.14-0.34-2.32-0.47-3.52l-0.11,0.79c-0.95,7.02-1.63,12.17-2.09,15.6c-0.64,4.8-1.24,9.35-1.8,13.66l0.01,0
	c-0.12,1.52-0.41,2.97-0.87,4.35c-0.96,2.87-2.58,5.07-4.86,6.58c-2.3,1.53-4.94,2.17-7.92,1.94c-1.27-0.1-2.66-0.4-4.18-0.9
	l-0.01,0.02c-1.03-0.32-2.16-0.71-3.39-1.16c-1.24-0.45-2.36-0.89-3.35-1.3h-0.03c-0.83-0.35-1.91-0.83-3.25-1.45
	c-0.74-0.34-1.83-0.87-3.27-1.59l-0.47-0.25c-2.9-1.7-5.34-4-7.32-6.89c-1.77-2.59-3.17-5.67-4.17-9.24l-0.01,0
	c-0.6-2-1.21-4.14-1.82-6.42c-0.49-1.82-1.1-4.23-1.83-7.25c-0.44-1.81-0.9-3.77-1.37-5.86c-0.3,2.14-0.6,4.23-0.88,6.29
	c-0.45,3.22-0.88,6.34-1.3,9.36c-0.51,3.68-0.88,6.49-1.13,8.41c-0.24,1.9-0.53,4.34-0.86,7.32v0.03c-0.21,1.82-0.58,3.38-1.1,4.7
	c-0.86,2.17-2.17,3.87-3.94,5.09c-2.04,1.41-4.42,1.98-7.13,1.69c-1.49-0.16-3.14-0.61-4.95-1.36l0,0
	c-0.57-0.22-1.56-0.59-2.92-1.12c-2.88-1.11-2.54-0.96-3.2-1.22c-1.57-0.62-3.1-1.43-4.58-2.42c-1.39-0.93-2.65-1.95-3.79-3.06
	c-1.27-1.06-2.37-2.23-3.29-3.49c-0.45-0.62-0.86-1.27-1.22-1.95c-0.67,0.67-1.45,1.28-2.33,1.82c-1.25,0.76-2.76,1.41-4.53,1.92
	l-0.06,0.03c-5.59,1.6-7.9,2.25-8.14,2.32c-1.45,0.42-4.24,1.24-8.32,2.45c-3.75,1.11-6.52,1.92-8.32,2.43
	c-1.04,0.3-3.5,0.98-7.4,2.05c-2.29,0.84-4.4,1.37-6.34,1.59c-2.64,0.29-5.02,0.01-7.12-0.84c-1.28-0.52-2.55-1.2-3.8-2.02
	c-1.3-0.86-2.43-1.76-3.37-2.71c-0.54-0.53-1.29-1.32-2.25-2.36c-0.65-0.69-1.37-1.49-2.16-2.4c-0.68-0.78-1.46-1.73-2.32-2.83
	c-0.74-0.95-1.52-1.99-2.34-3.12l-0.01,0.01c-0.99-1.26-1.89-2.7-2.69-4.31c-0.75-1.51-1.37-3.09-1.85-4.75
	c-0.2-0.69-0.37-1.39-0.52-2.1c-0.17,1.34-0.49,3.92-0.97,7.82c-0.4,3.24-0.7,5.7-0.89,7.38l-0.03,0.22l-0.13,0.59
	c-0.34,1.52-0.74,2.89-1.21,4.1c-0.59,1.54-1.3,2.86-2.12,3.96c-1.83,2.43-4.28,3.78-7.37,4.05c-1.82,0.16-3.79-0.13-5.92-0.86
	c-2.24-0.71-4.53-1.57-6.85-2.58c-1.29-0.57-2.57-1.23-3.82-1.99c-1.1-0.67-2.13-1.39-3.08-2.15c-1.59-1.11-2.94-2.36-4.05-3.74
	c-1.25-1.55-2.2-3.28-2.83-5.19c-0.55-1.67-0.88-3.5-0.98-5.49c-0.09-1.76-0.02-3.62,0.22-5.58c0.03-0.45,0.06-0.9,0.1-1.34
	c-0.78,2.47-1.38,4.4-1.79,5.81l-0.09,0.25c-0.56,1.69-1.04,3-1.44,3.94c-0.61,1.43-1.26,2.6-1.95,3.53
	c-1.8,2.4-4.31,3.67-7.54,3.81c-1.56,0.07-3.32-0.17-5.28-0.71l-0.09-0.03c-1.88-0.55-3.61-1.13-5.21-1.76
	c-1.57-0.61-3.23-1.36-4.98-2.23l-0.38-0.19c-0.58-0.33-1.21-0.74-1.9-1.23c-0.78-0.55-1.38-1.02-1.81-1.4
	c-0.62-0.55-1.23-1.23-1.85-2.02c-0.59-0.75-1.08-1.47-1.47-2.16c-0.41-0.72-0.82-1.6-1.22-2.63c-0.31-0.79-0.6-1.69-0.88-2.7
	c-0.5-1.83-0.95-3.86-1.34-6.1V316L1654.64,316z M1805.36,307.3c0.52,1.24,1.01,2.48,1.46,3.71c0.12-1.1,0.23-2.15,0.34-3.16
	c0.44-3.95,0.78-7.04,1.03-9.33c0.37-3.28,0.76-6.75,1.18-10.4v-0.03c0.18-1.6,0.36-3.14,0.54-4.62c-0.85,0.97-1.92,1.83-3.19,2.56
	l0.01,0.01c-1.18,0.68-2.64,1.27-4.36,1.78l-0.22,0.06c-2.88,0.76-5.36,1.4-7.47,1.93c-1.11,0.28-3.67,0.9-7.61,1.85
	c-1.86,0.45-4.28,1.07-7.25,1.87c-0.78,0.21-1.54,0.42-2.28,0.62l-0.1,0.57c-0.3,1.69-0.08,0.37-0.73,3.97
	c2.25-0.36,4.16-0.64,5.72-0.83c1.39-0.17,3.4-0.38,6.02-0.63l0-0.02c3.9-0.46,7.29,0.13,10.16,1.77l-0.01,0.01
	c1.62,0.93,3.03,2.19,4.23,3.76v0.03C1803.81,304.08,1804.66,305.59,1805.36,307.3L1805.36,307.3L1805.36,307.3z M1810.9,267.19
	c0.2,0.83,0.43,1.8,0.67,2.89c0.21-1.55,0.44-3.31,0.7-5.27c0.88-6.6,1.46-10.88,1.63-12.19c0.54-4.04,1.09-8.06,1.63-12.06
	c0.65-4.79,1.21-8.72,1.66-11.79c0.12-0.84,0.26-1.74,0.4-2.69c-0.98,0.35-2.07,0.63-3.25,0.84l-0.25,0.03
	c-1.78,0.25-4.07,0.59-6.87,1.01c-4.66,0.7-7.02,1.05-7.16,1.07c-1.67,0.26-4.15,0.68-7.44,1.25c-0.88,0.15-1.73,0.3-2.55,0.45
	c-0.18,0.84-0.32,1.51-0.42,2.01c-0.25,1.23-0.76,3.77-1.51,7.62c-0.3,1.55-0.69,3.46-1.16,5.72c1.23-0.08,2.56-0.15,3.99-0.22v0
	c3.71-0.22,6.88,0.39,9.5,1.83c1.64,0.9,3.08,2.17,4.31,3.8c0.92,1.21,1.73,2.67,2.44,4.38c0.66,1.48,1.18,2.77,1.57,3.87
	c0.44,1.22,0.84,2.55,1.22,3.97C1810.26,264.6,1810.56,265.76,1810.9,267.19z"/>
<path fill-rule="evenodd" clip-rule="evenodd" fill="#575C00" d="M1651.15,246.26c0.9,11.27,1.98,22.42,3.27,33.44
	c1.28,11.02,2.63,20.95,4.04,29.78c0.38,2.18,0.77,3.97,1.15,5.38c0.38,1.41,0.83,2.56,1.34,3.46c0.51,0.9,1.09,1.63,1.73,2.21
	c0.64,0.58,1.41,1.12,2.3,1.63c2.82,1.41,5.77,2.56,8.84,3.46c2.31,0.64,3.75,0.58,4.32-0.19c0.58-0.77,1.31-2.5,2.21-5.19
	c1.28-4.36,2.98-9.7,5.09-16.04c2.12-6.34,4.42-13,6.92-19.98c2.5-6.98,5.03-14.03,7.59-21.14c2.56-7.11,4.93-13.55,7.11-19.31
	c-1.15,6.66-2.24,13.64-3.27,20.95c-1.02,7.3-1.95,14.35-2.79,21.14c-0.83,6.79-1.54,13.07-2.11,18.83
	c-0.58,5.77-0.99,10.5-1.25,14.22c-0.38,3.2-0.26,5.76,0.38,7.69c0.64,1.92,1.98,3.59,4.04,5c1.54,1.28,3.33,2.37,5.38,3.27
	c2.05,0.9,4.1,1.67,6.15,2.31c2.18,0.77,3.65,0.64,4.42-0.38c0.77-1.02,1.41-2.69,1.92-5c0.51-4.48,1.18-9.93,2.02-16.33
	c0.83-6.41,1.79-13.29,2.88-20.66c1.09-7.37,2.21-15.05,3.36-23.06c1.15-8.01,2.34-15.79,3.55-23.35c1.22-7.56,2.37-14.7,3.46-21.43
	c1.09-6.73,2.08-12.59,2.98-17.58c0.64-3.33,0.64-5.93,0-7.78c-0.64-1.86-2.11-3.49-4.42-4.9c-3.33-2.05-6.76-3.81-10.28-5.28
	c-3.52-1.47-6.82-2.72-9.9-3.75c-2.56-1.02-4.68-1.44-6.34-1.25c-1.66,0.19-3.14,1.06-4.42,2.59s-2.53,3.78-3.75,6.73
	s-2.66,6.73-4.32,11.34c-1.66,4.1-3.43,8.55-5.28,13.35c-1.86,4.8-3.65,9.64-5.38,14.51c-1.73,4.87-3.43,9.67-5.09,14.41
	c-1.67,4.74-3.14,9.1-4.42,13.07c-1.15-11.15-2.08-19.95-2.79-26.42c-0.71-6.47-1.25-11.43-1.63-14.89
	c-0.38-3.46-0.61-5.83-0.67-7.11c-0.06-1.28-0.1-2.37-0.1-3.27c-0.26-1.92-0.51-3.65-0.77-5.19c-0.26-1.54-0.67-2.95-1.25-4.23
	c-0.58-1.28-1.38-2.43-2.4-3.46c-1.02-1.02-2.43-1.99-4.23-2.88c-2.82-1.41-5.61-2.63-8.36-3.65c-2.75-1.03-6.12-1.92-10.09-2.69
	c-2.56-0.51-4.48-0.32-5.77,0.58c-1.28,0.9-2.3,3.01-3.07,6.34c-0.9,4.74-1.89,10.44-2.98,17.1c-1.09,6.66-2.18,13.77-3.27,21.33
	c-1.09,7.56-2.21,15.34-3.36,23.35c-1.15,8.01-2.18,15.79-3.07,23.35c-0.9,7.56-1.67,14.67-2.31,21.33
	c-0.64,6.66-1.09,12.36-1.35,17.1c-0.26,3.33-0.06,5.89,0.58,7.69c0.64,1.79,1.99,3.46,4.04,5c1.66,1.28,3.49,2.4,5.48,3.36
	c1.98,0.96,3.94,1.76,5.86,2.4c2.05,0.64,3.46,0.61,4.23-0.1c0.77-0.7,1.35-2.21,1.73-4.52c0.51-5.38,1.19-11.5,2.02-18.35
	c0.83-6.85,1.79-14.06,2.88-21.62c1.09-7.56,2.24-15.31,3.46-23.25C1648.62,261.76,1649.87,253.94,1651.15,246.26L1651.15,246.26z
	 M1751.84,197.64c6.53-2.31,14.19-4.55,22.96-6.73c8.78-2.18,17.65-3.52,26.61-4.04c4.23-0.26,6.98,1.92,8.26,6.53
	c1.03,2.43,1.76,4.61,2.21,6.53c0.45,1.92,0.93,4.04,1.44,6.34c0.38,2.69,0.29,4.52-0.29,5.48c-0.58,0.96-1.96,1.63-4.13,2.02
	c-4.48,0.64-9.19,1.35-14.12,2.11c-4.93,0.77-10.09,1.67-15.47,2.69c-1.03,4.74-2.05,9.74-3.07,14.99
	c-1.03,5.25-2.18,10.76-3.46,16.53c2.43-0.51,4.84-0.86,7.21-1.06c2.37-0.19,4.84-0.35,7.4-0.48c2.18-0.13,3.91,0.16,5.19,0.86
	c1.28,0.71,2.37,2.15,3.27,4.32c1.03,2.31,1.83,4.55,2.4,6.73c0.58,2.18,1.12,4.42,1.63,6.73c0.64,2.69,0.71,4.48,0.19,5.38
	c-0.51,0.9-1.86,1.67-4.04,2.31c-4.87,1.28-9.83,2.53-14.89,3.75c-5.06,1.22-9.96,2.53-14.7,3.94c-0.64,3.71-1.28,7.33-1.92,10.86
	c-0.64,3.52-1.28,6.95-1.92,10.28c3.84-1.02,7.56-1.83,11.15-2.4c3.59-0.58,7.43-1.06,11.53-1.44c2.18-0.26,3.94,0,5.29,0.77
	c1.34,0.77,2.46,2.24,3.36,4.42c1.03,2.43,1.86,4.74,2.5,6.92c0.64,2.18,1.28,4.42,1.92,6.73c0.51,2.56,0.54,4.32,0.1,5.28
	c-0.45,0.96-1.76,1.76-3.94,2.4c-5.38,1.54-10.89,3.14-16.53,4.8c-5.64,1.67-11.02,3.2-16.14,4.61c-3.46,1.28-6.05,1.57-7.78,0.87
	c-1.73-0.71-3.23-1.7-4.52-2.98c-1.41-1.41-2.75-2.85-4.04-4.32c-1.28-1.47-2.75-3.36-4.42-5.67c-1.41-1.79-2.46-3.91-3.17-6.34
	c-0.71-2.43-0.93-5.32-0.67-8.65L1751.84,197.64L1751.84,197.64z M1866.76,273.73c-0.9-5.77-1.79-11.75-2.69-17.97
	c-0.9-6.21-1.76-12.17-2.59-17.87s-1.57-10.95-2.21-15.76c-0.64-4.8-1.15-8.68-1.54-11.63c-0.51-3.84-1.25-6.76-2.21-8.74
	c-0.96-1.99-2.59-3.62-4.9-4.9c-2.82-1.79-5.54-3.27-8.17-4.42c-2.63-1.15-5.29-2.24-7.97-3.27c-2.18-0.77-3.97-0.77-5.38,0
	c-1.41,0.77-2.43,2.63-3.07,5.57c-1.03,5.38-2.11,11.66-3.27,18.83c-1.15,7.17-2.27,14.76-3.36,22.77
	c-1.09,8.01-2.18,16.08-3.27,24.21c-1.09,8.13-2.05,15.85-2.88,23.16c-0.83,7.3-1.57,13.87-2.21,19.7
	c-0.64,5.83-1.09,10.41-1.35,13.74c-0.38,3.33-0.29,5.92,0.29,7.78c0.58,1.86,1.76,3.49,3.55,4.9c1.79,1.79,3.75,3.11,5.86,3.94
	c2.11,0.83,4.2,1.63,6.24,2.4c2.18,0.9,3.68,1.06,4.52,0.48c0.83-0.58,1.38-1.95,1.63-4.13c0.51-4.61,1.19-9.93,2.02-15.95
	c0.83-6.02,1.73-12.43,2.69-19.22c0.96-6.79,1.99-13.87,3.07-21.23c1.09-7.37,2.15-14.64,3.17-21.81
	c1.03,6.02,2.12,12.04,3.27,18.06s2.31,11.88,3.46,17.58c1.15,5.7,2.34,11.05,3.55,16.05s2.4,9.42,3.55,13.26
	c1.54,5.51,4.16,9.35,7.88,11.53c2.05,1.02,4.07,1.95,6.05,2.79c1.99,0.83,4,1.57,6.05,2.21c4.61,1.54,7.11-0.13,7.49-5
	c1.15-8.84,2.47-18.74,3.94-29.69c1.47-10.95,2.98-22,4.52-33.15c1.54-11.15,3.11-21.94,4.71-32.38c1.6-10.44,3.11-19.57,4.52-27.38
	c0.51-2.69,0.58-4.96,0.19-6.82c-0.38-1.86-1.66-3.68-3.84-5.48c-2.69-2.18-4.8-3.65-6.34-4.42c-1.54-0.77-3.46-1.54-5.77-2.31
	c-2.3-0.77-4.07-0.8-5.28-0.1c-1.22,0.7-2.08,2.47-2.6,5.28c-1.92,10.89-3.94,23.16-6.05,36.8
	C1869.93,244.81,1868.16,259,1866.76,273.73L1866.76,273.73z M1907.11,314.47c1.28,3.59,2.82,6.6,4.61,9.03
	c1.79,2.43,3.71,4.55,5.76,6.34c4.87,4.1,11.15,6.53,18.83,7.3c3.84,0.38,7.27,0.16,10.28-0.67c3.01-0.83,5.99-2.34,8.94-4.52
	c4.1-3.59,7.72-9.16,10.86-16.72c3.14-7.56,5.96-16.69,8.46-27.38c2.5-10.7,4.71-22.77,6.63-36.22c1.92-13.45,3.78-27.99,5.57-43.62
	c0.38-2.69,0.38-4.74,0-6.15c-0.38-1.41-1.67-3.01-3.84-4.8c-2.05-1.54-4.29-3.11-6.73-4.71c-2.43-1.6-4.74-2.79-6.92-3.56
	c-2.18-0.77-4-0.83-5.48-0.19c-1.47,0.64-2.27,2.37-2.4,5.19c-0.77,6.41-1.7,13.93-2.79,22.58c-1.09,8.65-2.34,17.52-3.75,26.61
	c-1.41,9.1-2.95,18.03-4.61,26.81c-1.67,8.78-3.43,16.49-5.29,23.16c-1.86,6.66-3.84,11.88-5.96,15.66
	c-2.11,3.78-4.32,5.22-6.63,4.32c-1.79-0.77-3.01-2.98-3.65-6.63c-0.64-3.65-0.83-8.2-0.58-13.64c0.26-5.44,0.83-11.56,1.73-18.35
	c0.9-6.79,1.99-13.68,3.27-20.66c1.28-6.98,2.66-13.87,4.13-20.66c1.47-6.79,2.85-12.94,4.13-18.45c1.41-6.15,0.06-11.27-4.04-15.37
	c-1.92-1.79-3.91-3.4-5.96-4.8c-2.05-1.41-4.16-2.56-6.34-3.46c-2.3-1.02-4.07-1.25-5.28-0.67c-1.22,0.58-2.15,2.27-2.79,5.09
	c-2.3,9.86-4.58,20.4-6.82,31.61c-2.24,11.21-4,22.23-5.28,33.05c-1.28,10.83-1.89,21.01-1.83,30.55
	C1903.43,300.09,1904.67,308.07,1907.11,314.47z"/>
<line fill-rule="evenodd" clip-rule="evenodd" fill="none" stroke="#BA2A22" stroke-width="2.9999" stroke-linecap="round" stroke-miterlimit="22.9256" stroke-dasharray="5.9998,14.9995" x1="1797.1" y1="626.17" x2="1797.1" y2="1448.66"/>
<line fill-rule="evenodd" clip-rule="evenodd" fill="none" stroke="#BA2A22" stroke-width="2.9999" stroke-linecap="round" stroke-miterlimit="22.9256" stroke-dasharray="5.9998,14.9995" x1="1747.23" y1="956.66" x2="1287.86" y2="956.66"/>
<line fill-rule="evenodd" clip-rule="evenodd" fill="none" stroke="#BA2A22" stroke-width="2.9999" stroke-linecap="round" stroke-miterlimit="22.9256" stroke-dasharray="5.9998,14.9995" x1="1299.6" y1="956.66" x2="1299.6" y2="1448.66"/>
<line fill-rule="evenodd" clip-rule="evenodd" fill="none" stroke="#BA2A22" stroke-width="2.9999" stroke-linecap="round" stroke-miterlimit="22.9256" stroke-dasharray="5.9998,14.9995" x1="1747.23" y1="1448.66" x2="1287.86" y2="1448.66"/>
<rect x="222.3" y="369.12" opacity="0.1" fill-rule="evenodd" clip-rule="evenodd" fill="none" width="749.33" height="115.43"/>
<text transform="matrix(1 0 0 1 233.6222 382.6168)"><tspan x="0" y="0" fill="#FFFFFF" font-family="'Roboto-Medium'" font-size="18px">L</tspan><tspan x="9.74" y="0" fill="#FFFFFF" font-family="'Roboto-Medium'" font-size="18px">orem ipsum dolor sit amet, eos erroribus gubergren splendide ex, quot omnesque an nec. </tspan><tspan x="20.73" y="21.6" fill="#FFFFFF" font-family="'Roboto-Medium'" font-size="18px">Qui id impedit repudiare abhorreant, eum homero doming ut. Elit assum vel ne. Ius no </tspan><tspan x="19.15" y="43.2" fill="#FFFFFF" font-family="'Roboto-Medium'" font-size="18px">commodo pertinax, pro ei ipsum errem graeco. Ut eum zril nusquam dignissim, ipsum </tspan><tspan x="258.5" y="64.8" fill="#FFFFFF" font-family="'Roboto-Medium'" font-size="18px">numquam meliore quo ex.</tspan></text>
<g>
	<text transform="matrix(1 0 0 1 1625.2404 424.2599)"><tspan x="0" y="0" fill="#FFFFFF" font-family="'Roboto-Medium'" font-size="27.8297px">1</tspan><tspan x="15.82" y="0" fill="#FFFFFF" font-family="'Roboto-Medium'" font-size="27.8297px">00% VEGAN GREATNESS</tspan></text>
</g>
<rect x="1407.31" y="474.12" opacity="0.1" fill-rule="evenodd" clip-rule="evenodd" fill="none" width="749.33" height="62.18"/>
<text transform="matrix(1 0 0 1 1418.6222 488.6212)"><tspan x="0" y="0" fill="#FFFFFF" font-family="'Roboto-Medium'" font-size="18px">L</tspan><tspan x="9.74" y="0" fill="#FFFFFF" font-family="'Roboto-Medium'" font-size="18px">orem ipsum dolor sit amet, eos erroribus gubergren splendide ex, quot omnesque an nec. </tspan><tspan x="122.6" y="21.6" fill="#FFFFFF" font-family="'Roboto-Medium'" font-size="18px">Qui id impedit repudiare abhorreant, eum homero doming ut</tspan></text>
<g>
	<text transform="matrix(1 0 0 1 52.4435 717.736)"><tspan x="0" y="0" fill="#FAD297" font-family="'Roboto-Bold'" font-size="36.0774px"> </tspan><tspan x="8.98" y="0" fill="#FAD297" font-family="'Roboto-Bold'" font-size="36.0774px">       SMALL FRIES</tspan></text>
</g>
<g>
	<text transform="matrix(1 0 0 1 126.471 843.2531)"><tspan x="0" y="0" fill="#FAD297" font-family="'Roboto-Bold'" font-size="36.0774px">L</tspan><tspan x="19.54" y="0" fill="#FAD297" font-family="'Roboto-Bold'" font-size="36.0774px">ARGE FRIES</tspan></text>
</g>
<rect x="127.8" y="731.19" opacity="0.1" fill-rule="evenodd" clip-rule="evenodd" fill="none" width="410.9" height="67.3"/>
<text transform="matrix(1 0 0 1 127.8043 745.6925)"><tspan x="0" y="0" fill="#FFFFFF" font-family="'Roboto-Medium'" font-size="18px">L</tspan><tspan x="9.74" y="0" fill="#FFFFFF" font-family="'Roboto-Medium'" font-size="18px">orem ipsum dolor sit amet, eos erroribus </tspan><tspan x="0" y="23.4" fill="#FFFFFF" font-family="'Roboto-Medium'" font-size="18px">gubergren splendide ex, quot omnesque an nec. </tspan></text>
<rect x="127.8" y="856.94" opacity="0.1" fill-rule="evenodd" clip-rule="evenodd" fill="none" width="410.9" height="109.67"/>
<text transform="matrix(1 0 0 1 127.8043 871.442)"><tspan x="0" y="0" fill="#FFFFFF" font-family="'Roboto-Medium'" font-size="18px">L</tspan><tspan x="9.74" y="0" fill="#FFFFFF" font-family="'Roboto-Medium'" font-size="18px">orem ipsum dolor sit amet, eos erroribus </tspan><tspan x="0" y="23.4" fill="#FFFFFF" font-family="'Roboto-Medium'" font-size="18px">gubergren splendide ex, quot omnesque an nec. </tspan><tspan x="0" y="46.8" fill="#FFFFFF" font-family="'Roboto-Medium'" font-size="18px">Qui id impedit repudiare abhorreant, eum homero </tspan><tspan x="0" y="70.2" fill="#FFFFFF" font-family="'Roboto-Medium'" font-size="18px">doming ut. Elit assum vel ne. </tspan></text>
<rect x="127.8" y="1009.94" opacity="0.1" fill-rule="evenodd" clip-rule="evenodd" fill="none" width="353.53" height="177.92"/>
<text transform="matrix(1 0 0 1 127.8043 1024.441)"><tspan x="0" y="0" fill="#FFFFFF" font-family="'Roboto-Medium'" font-size="18px">L</tspan><tspan x="9.74" y="0" fill="#FFFFFF" font-family="'Roboto-Medium'" font-size="18px">orem ipsum dolor sit amet, eos erroribus </tspan><tspan x="0" y="23.4" fill="#FFFFFF" font-family="'Roboto-Medium'" font-size="18px">gubergren splendide ex, quot omnesque an </tspan><tspan x="0" y="46.8" fill="#FFFFFF" font-family="'Roboto-Medium'" font-size="18px">nec. Qui id impedit repudiare abhorreant, </tspan><tspan x="0" y="70.2" fill="#FFFFFF" font-family="'Roboto-Medium'" font-size="18px">eum homero doming ut. Elit assum vel ne. </tspan><tspan x="0" y="93.6" fill="#FFFFFF" font-family="'Roboto-Medium'" font-size="18px">Ius no commodo pertinax, pro ei ipsum </tspan><tspan x="0" y="117" fill="#FFFFFF" font-family="'Roboto-Medium'" font-size="18px">errem graeco. </tspan></text>
<g>
	<text transform="matrix(1 0 0 1 1332.6398 1084.2983)"><tspan x="0" y="0" fill="#FAD297" font-family="'Roboto-Medium'" font-size="24.2252px">D</tspan><tspan x="15.83" y="0" fill="#FAD297" font-family="'Roboto-Medium'" font-size="24.2252px">RINKS</tspan></text>
</g>
<g>
	<text transform="matrix(1 0 0 1 1335.2664 652.3243)"><tspan x="0" y="0" fill="#FAD297" font-family="'Roboto-Medium'" font-size="24.2252px">S</tspan><tspan x="14.62" y="0" fill="#FAD297" font-family="'Roboto-Medium'" font-size="24.2252px">IDES</tspan></text>
</g>
<text transform="matrix(1 0 0 1 1873.1486 683.9508)"><tspan x="0" y="0" fill="#FFF09A" font-family="'Roboto-Medium'" font-size="18.8133px">L</tspan><tspan x="10.18" y="0" fill="#FFF09A" font-family="'Roboto-Medium'" font-size="18.8133px">OREM IPSUM DOLOR SIT AMET</tspan></text>
<text transform="matrix(1 0 0 1 2197.7942 688.8683)"><tspan x="0" y="0" fill="#FFF09A" font-family="'Roboto-Medium'" font-size="25.5047px">$</tspan><tspan x="14.5" y="0" fill="#FFF09A" font-family="'Roboto-Medium'" font-size="25.5047px">5</tspan></text>
<rect x="1873.15" y="697.51" fill-rule="evenodd" clip-rule="evenodd" fill="none" width="316.39" height="58.11"/>
<text transform="matrix(1 0 0 1 1873.1456 710.5114)"><tspan x="0" y="0" fill="#FFFFFF" font-family="'Roboto-Medium'" font-size="15.9987px">L</tspan><tspan x="8.66" y="0" fill="#FFFFFF" font-family="'Roboto-Medium'" font-size="15.9987px">orem ipsum dolor sit amet, eos posse </tspan></text>
<text transform="matrix(1 0 0 1 1873.1486 767.505)"><tspan x="0" y="0" fill="#FFF09A" font-family="'Roboto-Medium'" font-size="18.8133px">L</tspan><tspan x="10.18" y="0" fill="#FFF09A" font-family="'Roboto-Medium'" font-size="18.8133px">OREM IPSUM DOLOR SIT AMET</tspan></text>
<text transform="matrix(1 0 0 1 2197.7942 772.424)"><tspan x="0" y="0" fill="#FFF09A" font-family="'Roboto-Medium'" font-size="25.5047px">$</tspan><tspan x="14.5" y="0" fill="#FFF09A" font-family="'Roboto-Medium'" font-size="25.5047px">5</tspan></text>
<rect x="1873.15" y="781.07" fill-rule="evenodd" clip-rule="evenodd" fill="none" width="316.39" height="68.99"/>
<text transform="matrix(1 0 0 1 1873.1456 794.0675)"><tspan x="0" y="0" fill="#FFFFFF" font-family="'Roboto-Medium'" font-size="15.9999px">L</tspan><tspan x="8.66" y="0" fill="#FFFFFF" font-family="'Roboto-Medium'" font-size="15.9999px">orem ipsum dolor sit amet, eos posse </tspan></text>
<text transform="matrix(1 0 0 1 1873.1486 851.0621)"><tspan x="0" y="0" fill="#FFF09A" font-family="'Roboto-Medium'" font-size="18.8133px">L</tspan><tspan x="10.18" y="0" fill="#FFF09A" font-family="'Roboto-Medium'" font-size="18.8133px">OREM IPSUM DOLOR SIT AMET</tspan></text>
<text transform="matrix(1 0 0 1 2197.7942 855.9796)"><tspan x="0" y="0" fill="#FFF09A" font-family="'Roboto-Medium'" font-size="25.5047px">$</tspan><tspan x="14.5" y="0" fill="#FFF09A" font-family="'Roboto-Medium'" font-size="25.5047px">5</tspan></text>
<rect x="1873.15" y="864.62" fill-rule="evenodd" clip-rule="evenodd" fill="none" width="316.39" height="74.99"/>
<text transform="matrix(1 0 0 1 1873.1456 877.6237)"><tspan x="0" y="0" fill="#FFFFFF" font-family="'Roboto-Medium'" font-size="15.9999px">L</tspan><tspan x="8.66" y="0" fill="#FFFFFF" font-family="'Roboto-Medium'" font-size="15.9999px">orem ipsum dolor sit amet, eos posse </tspan></text>
<text transform="matrix(1 0 0 1 1873.1486 931.0045)"><tspan x="0" y="0" fill="#FFF09A" font-family="'Roboto-Medium'" font-size="18.8133px">L</tspan><tspan x="10.18" y="0" fill="#FFF09A" font-family="'Roboto-Medium'" font-size="18.8133px">OREM IPSUM DOLOR SIT AMET</tspan></text>
<text transform="matrix(1 0 0 1 2197.7942 935.9244)"><tspan x="0" y="0" fill="#FFF09A" font-family="'Roboto-Medium'" font-size="25.5047px">$</tspan><tspan x="14.5" y="0" fill="#FFF09A" font-family="'Roboto-Medium'" font-size="25.5047px">5</tspan></text>
<rect x="1873.15" y="944.57" fill-rule="evenodd" clip-rule="evenodd" fill="none" width="316.39" height="88.05"/>
<text transform="matrix(1 0 0 1 1873.1456 957.568)"><tspan x="0" y="0" fill="#FFFFFF" font-family="'Roboto-Medium'" font-size="15.9999px">L</tspan><tspan x="8.66" y="0" fill="#FFFFFF" font-family="'Roboto-Medium'" font-size="15.9999px">orem ipsum dolor sit amet, eos posse </tspan></text>
<text transform="matrix(1 0 0 1 1873.1486 1014.5621)"><tspan x="0" y="0" fill="#FFF09A" font-family="'Roboto-Medium'" font-size="18.8133px">L</tspan><tspan x="10.18" y="0" fill="#FFF09A" font-family="'Roboto-Medium'" font-size="18.8133px">OREM IPSUM DOLOR SIT AMET</tspan></text>
<text transform="matrix(1 0 0 1 2197.7942 1019.4801)"><tspan x="0" y="0" fill="#FFF09A" font-family="'Roboto-Medium'" font-size="25.5047px">$</tspan><tspan x="14.5" y="0" fill="#FFF09A" font-family="'Roboto-Medium'" font-size="25.5047px">5</tspan></text>
<rect x="1873.15" y="1028.12" fill-rule="evenodd" clip-rule="evenodd" fill="none" width="316.39" height="63.49"/>
<text transform="matrix(1 0 0 1 1873.1456 1041.1237)"><tspan x="0" y="0" fill="#FFFFFF" font-family="'Roboto-Medium'" font-size="15.9999px">L</tspan><tspan x="8.66" y="0" fill="#FFFFFF" font-family="'Roboto-Medium'" font-size="15.9999px">orem ipsum dolor sit amet, eos posse </tspan></text>
<text transform="matrix(1 0 0 1 1334.6486 683.9508)"><tspan x="0" y="0" fill="#FFF09A" font-family="'Roboto-Medium'" font-size="18.8133px">L</tspan><tspan x="10.18" y="0" fill="#FFF09A" font-family="'Roboto-Medium'" font-size="18.8133px">OREM IPSUM DOLOR SIT AMET</tspan></text>
<text transform="matrix(1 0 0 1 1659.2941 688.8683)"><tspan x="0" y="0" fill="#FFF09A" font-family="'Roboto-Medium'" font-size="25.5047px">$</tspan><tspan x="14.5" y="0" fill="#FFF09A" font-family="'Roboto-Medium'" font-size="25.5047px">5</tspan></text>
<rect x="1334.65" y="697.51" fill-rule="evenodd" clip-rule="evenodd" fill="none" width="316.39" height="98.04"/>
<text transform="matrix(1 0 0 1 1334.6456 710.5123)"><tspan x="0" y="0" fill="#FFFFFF" font-family="'Roboto-Medium'" font-size="15.9999px">L</tspan><tspan x="8.66" y="0" fill="#FFFFFF" font-family="'Roboto-Medium'" font-size="15.9999px">orem ipsum dolor sit amet, eos posse </tspan></text>
<text transform="matrix(1 0 0 1 1334.6486 767.505)"><tspan x="0" y="0" fill="#FFF09A" font-family="'Roboto-Medium'" font-size="18.8133px">L</tspan><tspan x="10.18" y="0" fill="#FFF09A" font-family="'Roboto-Medium'" font-size="18.8133px">OREM IPSUM DOLOR SIT AMET</tspan></text>
<text transform="matrix(1 0 0 1 1659.2941 772.424)"><tspan x="0" y="0" fill="#FFF09A" font-family="'Roboto-Medium'" font-size="25.5047px">$</tspan><tspan x="14.5" y="0" fill="#FFF09A" font-family="'Roboto-Medium'" font-size="25.5047px">5</tspan></text>
<rect x="1334.65" y="781.07" fill-rule="evenodd" clip-rule="evenodd" fill="none" width="316.39" height="84.55"/>
<text transform="matrix(1 0 0 1 1334.6456 794.0675)"><tspan x="0" y="0" fill="#FFFFFF" font-family="'Roboto-Medium'" font-size="15.9999px">L</tspan><tspan x="8.66" y="0" fill="#FFFFFF" font-family="'Roboto-Medium'" font-size="15.9999px">orem ipsum dolor sit amet, eos posse </tspan></text>
<text transform="matrix(1 0 0 1 1334.6486 851.0621)"><tspan x="0" y="0" fill="#FFF09A" font-family="'Roboto-Medium'" font-size="18.8133px">L</tspan><tspan x="10.18" y="0" fill="#FFF09A" font-family="'Roboto-Medium'" font-size="18.8133px">OREM IPSUM DOLOR SIT AMET</tspan></text>
<text transform="matrix(1 0 0 1 1659.2941 855.9796)"><tspan x="0" y="0" fill="#FFF09A" font-family="'Roboto-Medium'" font-size="25.5047px">$</tspan><tspan x="14.5" y="0" fill="#FFF09A" font-family="'Roboto-Medium'" font-size="25.5047px">5</tspan></text>
<rect x="1334.65" y="864.62" fill-rule="evenodd" clip-rule="evenodd" fill="none" width="316.39" height="71.99"/>
<text transform="matrix(1 0 0 1 1334.6456 877.6237)"><tspan x="0" y="0" fill="#FFFFFF" font-family="'Roboto-Medium'" font-size="15.9999px">L</tspan><tspan x="8.66" y="0" fill="#FFFFFF" font-family="'Roboto-Medium'" font-size="15.9999px">orem ipsum dolor sit amet, eos posse </tspan></text>
<text transform="matrix(1 0 0 1 1331.6486 1113.1783)"><tspan x="0" y="0" fill="#FFF09A" font-family="'Roboto-Medium'" font-size="18.8133px">L</tspan><tspan x="10.18" y="0" fill="#FFF09A" font-family="'Roboto-Medium'" font-size="18.8133px">OREM IPSUM DOLOR SIT AMET</tspan></text>
<text transform="matrix(1 0 0 1 1656.2931 1118.0963)"><tspan x="0" y="0" fill="#FFF09A" font-family="'Roboto-Medium'" font-size="25.5047px">$</tspan><tspan x="14.5" y="0" fill="#FFF09A" font-family="'Roboto-Medium'" font-size="25.5047px">5</tspan></text>
<rect x="1331.65" y="1126.74" fill-rule="evenodd" clip-rule="evenodd" fill="none" width="316.39" height="68.99"/>
<text transform="matrix(1 0 0 1 1331.6456 1139.7408)"><tspan x="0" y="0" fill="#FFFFFF" font-family="'Roboto-Medium'" font-size="15.9999px">L</tspan><tspan x="8.66" y="0" fill="#FFFFFF" font-family="'Roboto-Medium'" font-size="15.9999px">orem ipsum dolor sit amet, eos posse </tspan></text>
<text transform="matrix(1 0 0 1 1331.6486 1196.733)"><tspan x="0" y="0" fill="#FFF09A" font-family="'Roboto-Medium'" font-size="18.8133px">L</tspan><tspan x="10.18" y="0" fill="#FFF09A" font-family="'Roboto-Medium'" font-size="18.8133px">OREM IPSUM DOLOR SIT AMET</tspan></text>
<text transform="matrix(1 0 0 1 1656.2931 1201.652)"><tspan x="0" y="0" fill="#FFF09A" font-family="'Roboto-Medium'" font-size="25.5047px">$</tspan><tspan x="14.5" y="0" fill="#FFF09A" font-family="'Roboto-Medium'" font-size="25.5047px">5</tspan></text>
<rect x="1331.65" y="1210.3" fill-rule="evenodd" clip-rule="evenodd" fill="none" width="316.39" height="74.32"/>
<text transform="matrix(1 0 0 1 1331.6456 1223.2955)"><tspan x="0" y="0" fill="#FFFFFF" font-family="'Roboto-Medium'" font-size="15.9999px">L</tspan><tspan x="8.66" y="0" fill="#FFFFFF" font-family="'Roboto-Medium'" font-size="15.9999px">orem ipsum dolor sit amet, eos posse </tspan></text>
<text transform="matrix(1 0 0 1 1331.6486 1280.2906)"><tspan x="0" y="0" fill="#FFF09A" font-family="'Roboto-Medium'" font-size="18.8133px">L</tspan><tspan x="10.18" y="0" fill="#FFF09A" font-family="'Roboto-Medium'" font-size="18.8133px">OREM IPSUM DOLOR SIT AMET</tspan></text>
<text transform="matrix(1 0 0 1 1656.2931 1285.2076)"><tspan x="0" y="0" fill="#FFF09A" font-family="'Roboto-Medium'" font-size="25.5047px">$</tspan><tspan x="14.5" y="0" fill="#FFF09A" font-family="'Roboto-Medium'" font-size="25.5047px">5</tspan></text>
<rect x="1331.65" y="1293.85" fill-rule="evenodd" clip-rule="evenodd" fill="none" width="316.39" height="70.77"/>
<text transform="matrix(1 0 0 1 1331.6456 1306.8522)"><tspan x="0" y="0" fill="#FFFFFF" font-family="'Roboto-Medium'" font-size="15.9999px">L</tspan><tspan x="8.66" y="0" fill="#FFFFFF" font-family="'Roboto-Medium'" font-size="15.9999px">orem ipsum dolor sit amet, eos posse </tspan></text>
<text transform="matrix(1 0 0 1 1331.6486 1359.4821)"><tspan x="0" y="0" fill="#FFF09A" font-family="'Roboto-Medium'" font-size="18.8133px">L</tspan><tspan x="10.18" y="0" fill="#FFF09A" font-family="'Roboto-Medium'" font-size="18.8133px">OREM IPSUM DOLOR SIT AMET</tspan></text>
<text transform="matrix(1 0 0 1 1656.2931 1364.4)"><tspan x="0" y="0" fill="#FFF09A" font-family="'Roboto-Medium'" font-size="25.5047px">$</tspan><tspan x="14.5" y="0" fill="#FFF09A" font-family="'Roboto-Medium'" font-size="25.5047px">5</tspan></text>
<rect x="1331.65" y="1373.04" fill-rule="evenodd" clip-rule="evenodd" fill="none" width="316.39" height="68.57"/>
<text transform="matrix(1 0 0 1 1331.6456 1386.0436)"><tspan x="0" y="0" fill="#FFFFFF" font-family="'Roboto-Medium'" font-size="15.9999px">L</tspan><tspan x="8.66" y="0" fill="#FFFFFF" font-family="'Roboto-Medium'" font-size="15.9999px">orem ipsum dolor sit amet, eos posse </tspan></text>
<text transform="matrix(1 0 0 1 497.8239 839.1769)"><tspan x="0" y="0" fill="#FFF09A" font-family="'Roboto-Medium'" font-size="37.5212px">$</tspan><tspan x="21.33" y="0" fill="#FFF09A" font-family="'Roboto-Medium'" font-size="37.5212px">2.99</tspan></text>
<text transform="matrix(1 0 0 1 496.1349 996.9454)"><tspan x="0" y="0" fill="#FFF09A" font-family="'Roboto-Medium'" font-size="37.5212px">$</tspan><tspan x="21.33" y="0" fill="#FFF09A" font-family="'Roboto-Medium'" font-size="37.5212px">5</tspan></text>
<g>
	<text transform="matrix(1 0 0 1 126.8582 998.8781)"><tspan x="0" y="0" fill="#FAD297" font-family="'Roboto-Bold'" font-size="32.4072px">C</tspan><tspan x="21.2" y="0" fill="#FAD297" font-family="'Roboto-Bold'" font-size="32.4072px">HIPS AND SALSA</tspan></text>
</g>
<g>
	<g>
		<path fill="#C85C00" d="M958.15,163.95c-2.2,5.26-4.07,11.79-5.18,16.46l-2.17,0.22c-3.7-5.72-8.63-10.05-16.26-10.05
			c-6.64,0-10.81,3.54-10.81,8.92c0,16.21,37.89,12.14,37.89,39.89c0,17.64-15.64,30.39-37.28,30.39c-8.14,0-15.99-1.74-23.86-5.04
			c1.38-3.51,3.55-14.42,4.19-18.13l2.59-0.22c4.42,6.51,10.16,12.01,19.27,12.01c7.87,0,12.93-3.96,12.93-10.05
			c0-16.39-37.87-12.75-37.87-40.31c0-17.22,14.01-29.01,34.69-29.01C943.77,159.03,950.8,160.66,958.15,163.95z M939.48,238.28
			c2.57-1.25,9.6-5.8,9.6-14.22c0-9.09-8.36-13.83-15.25-16.88c-12.68-5.63-23.14-10.64-23.14-24.02c0-5.04,0.89-11.25,5.06-15.55
			c-5.4,4.05-9.23,11.05-9.23,18.28c0,14.54,10.93,19.58,21.51,24.25c7.25,3.17,16.36,7.59,16.36,17.34
			C944.39,232.48,942.56,235.41,939.48,238.28z"/>
		<path fill="#575C00" d="M897.45,147.32c0,0,0.99,42.17-33.46,56.86c0,0,5.23-25.39,17.72-38.67c0,0-14.33,0.81-22.92,36.25
			C858.79,201.75,850.26,143.1,897.45,147.32z"/>
		<path fill="#C85C00" d="M852.59,225.95c2.34,6.8,7.15,17.76,9.35,21.64c-2.59-0.12-7.87-0.25-14.01-0.25
			c-5.67,0-12.56,0-17.71,0.25c-0.12-7-0.59-9.58-2.69-16.63l4.47-1.35c1.18,4.05,2.47,8.52,3.16,11.89h6.14
			c-1.36-5.7-3.92-13.22-5.8-19.5l-11.18-37.07l-5.28-17.17l-0.72-6.85c4.42-0.42,8.88-0.93,12.66-1.6
			c0.99,5.28,1.46,7.25,3.28,12.63L852.59,225.95z"/>
		<path fill="#C85C00" d="M831.99,229.92l-4.47,1.36l-2.71-9.06c-2.94-0.12-8.59-0.25-14.38-0.25c-5.77,0-11.69,0.12-15,0.25
			l-2.81,9.31c-1.11,3.45-1.63,7.42-1.63,10.4c0,2.23,0.12,3.42,0.99,6.15c-3.18-0.12-6.39-0.25-9.7-0.25c-4.05,0-8.24,0-12.78,0.25
			l-0.49-1.39c3.31-5.68,6.64-12.68,9.35-19.75l19.54-49.85c2.96-7.54,3.55-9.53,5.03-15.58c3.85-0.07,9.57-0.42,15.39-0.99
			l0.72,6.92l-5.4,0.6c1.83,5.43,4.17,12.46,5.77,17.89l10.68,37.45C830.61,225.18,831.3,227.46,831.99,229.92z M821.88,210.98
			l-10.46-35.93l-12.16,35.93c2.81,0.12,7.13,0.25,11.3,0.25S818.92,211.11,821.88,210.98z"/>
		<path fill="#C85C00" d="M760.85,161.99c-1.48,7.15-0.87,23.65-0.87,23.65v40.3c0,7.46,0.61,14.94,2.08,24.34
			c-2.7-0.12-6.59-0.12-10.39-0.12c-3.9,0-7.7,0-10.39,0.12c-4.14-6.56-5.98-9.4-8.16-12.25l-28.83-38.34
			c-2.21-2.84-5.12-6.68-6.13-8.43l3.43-2.07c0.64,0.82,1.3,1.67,1.96,2.54l28.58,37.41c3.55,4.74,8.16,9.83,10.74,14.09h6.35
			c-3.43-4.99-8.53-11.47-12.57-16.81l-28.34-37.29c-7.82-10.33-11.72-14.72-13.8-16.76c-2.08-2.12-3.43-3.17-8.06-3.17h-3.55
			c0,0,1.7-0.12,2.81,0.96l-5.25,0.23c-0.99-0.98-2.59-1.38-5.06,1.06h-0.96l2.57-9.47c4.07,0.13,10.46,0.13,15.52,0.13
			c6.12,0,11.52-0.13,16.08-0.38c2.71,5.37,4.54,8.69,8.24,13.81l22.01,30.63c1.36,1.88,5.53,7.76,6.27,9.11
			c-0.27-2.08-0.39-5.62-0.5-9.11v-20.53c0.11-7.76-0.73-16.02-3.69-23.65c3.08,0.13,6.66,0.13,10.09,0.13
			C754.46,162.11,757.89,162.11,760.85,161.99z"/>
		<path fill="#C85C00" d="M702.3,186.19l-3.69,2.18c-0.11,1.84-0.11,3.39-0.11,6.46v30.29c0,8.11,1.05,16.35,4.06,24.72
			c-2.87-0.13-6.83-0.26-10.39-0.26c-3.53,0-8.28,0.13-10.75,0.26c1.45-6.64,1.71-13.62,1.71-24.86v-41.15
			c0-6.46-0.13-11-0.82-13.67c-0.24-1.1-0.63-1.94-1.29-2.57l5.61-0.24C689.94,170.47,694.84,176.67,702.3,186.19z"/>
		<path fill="#C85C00" d="M660.59,225.95c2.32,6.8,7.13,17.76,9.33,21.64c-2.59-0.12-7.87-0.25-13.99-0.25
			c-5.67,0-12.56,0-17.71,0.25c-0.12-7-0.62-9.58-2.71-16.63l-1.36-4.57l4.49-1.33c1.43,4.81,3.53,11.72,4.49,16.43h6.17
			c-1.36-5.7-3.95-13.22-5.8-19.5l-11.18-37.07l-5.28-17.17l-0.72-6.85c4.42-0.42,8.86-0.93,12.63-1.6
			c0.99,5.28,1.48,7.25,3.31,12.63L660.59,225.95z"/>
		<path fill="#C85C00" d="M638.63,226.95l-4.49,1.37l-1.33-4.55c-2.96-0.13-8.61-0.25-14.41-0.25c-5.75,0-11.67,0.13-14.97,0.25
			l-2.81,9.54c-1.11,3.54-1.63,7.61-1.63,10.66c0,2.29,0.12,3.51,0.99,6.31c-3.18-0.13-6.39-0.25-9.7-0.25c-4.07,0-8.26,0-12.8,0.25
			l-0.47-1.42c3.31-5.83,6.64-13,9.33-20.25l19.56-51.1c2.94-7.73,3.53-9.77,5.01-15.97c3.85-0.08,9.57-0.43,15.42-1.02l0.72,7.1
			l-5.4,0.61c1.83,5.57,4.17,12.77,5.75,18.34l10.71,38.39C638.26,225.55,638.44,226.24,638.63,226.95z M629.85,212.25l-10.44-36.83
			l-12.16,36.83c2.81,0.13,7.1,0.25,11.27,0.25C622.72,212.5,626.91,212.38,629.85,212.25z"/>
		<path fill="#C85C00" d="M589.77,161.8c-1.46,5.44-3.27,12.56-3.9,17.09l-2.54,0.25c-2.93-5.95-10.22-6.69-17.39-6.69h-5.22
			c-0.39,3.08-0.51,10.76-0.51,13.99v39.88c0,11.52,0.76,19.63,2.32,23.96c-3.41-0.25-8.49-0.38-13.59-0.38
			c-5.22,0-10.46,0.13-14.61,0.38c1.22-7.73,1.73-15.72,1.73-24.08v-39.88c0-3.1,0-10.88-0.39-13.86h-3.63
			c-8.17,0-16.54,1.22-22.73,7.6l-2.44-1.3c1.56-6.56,2.32-11.39,3.02-16.96c10.83,0.48,16.54,0.61,22.98,0.61h30.76
			C573.23,162.41,582.21,162.18,589.77,161.8z M542.64,217.47v-33.55c0.52-7.23,0.4-9.3-0.43-15.48h-5.28
			c0.94,6.18,1.06,8.25,1.32,15.48v33.55c-0.26,5.41-0.49,8.57-0.99,17.27h5.17C542.92,226.04,543.16,222.88,542.64,217.47z"/>
		<path fill="#C85C00" d="M496.41,161.98c-1.48,7-2.06,23.14-2.06,23.14v39.43c0,7.3,0.61,14.62,2.08,23.82
			c-2.67-0.12-6.59-0.12-10.37-0.12c-3.92,0-7.72,0-10.39,0.12c-4.14-6.42-6.01-9.2-8.19-11.98l-28.83-37.52
			c-2.21-2.78-5.12-6.54-6.1-8.25l3.41-2.03c0.64,0.81,1.3,1.64,1.96,2.49l28.58,36.61c3.55,4.64,8.19,9.62,10.74,13.79h6.37
			c-3.43-4.88-8.53-11.23-12.6-16.45l-28.31-36.49c-7.82-10.1-11.74-14.4-13.82-16.4c-2.08-2.07-3.43-3.1-8.06-3.1h-2.38
			c0,0,1.7-0.12,2.84,0.94l-5.25,0.22c-1.01-0.96-2.59-1.35-5.08,1.04h-0.96l2.59-9.27c4.05,0.12,10.44,0.12,15.49,0.12
			c6.12,0,11.52-0.12,16.08-0.37c2.71,5.26,4.54,8.5,8.24,13.51l22.01,29.97c1.36,1.84,5.53,7.59,6.29,8.92
			c-0.27-2.04-0.39-5.5-1.69-8.92v-20.09c1.3-7.59,0.46-15.67-2.53-23.14c3.11,0.12,6.66,0.12,10.09,0.12
			C490,162.11,493.43,162.11,496.41,161.98z"/>
		<path fill="#C85C00" d="M436.68,186.19l-3.66,2.18c-0.13,1.84-0.13,3.39-0.13,6.46v30.29c0,8.11,1.05,16.35,4.09,24.72
			c-2.9-0.13-6.85-0.26-10.41-0.26c-3.53,0-8.28,0.13-10.75,0.26c1.45-6.64,1.71-13.62,1.71-24.86v-41.15c0-6.46-0.13-11-0.79-13.67
			c-0.24-1.1-0.66-1.94-1.29-2.57l5.61-0.24C424.34,170.47,429.22,176.67,436.68,186.19z"/>
		<path fill="#C85C00" d="M396.13,225.95c2.34,6.8,7.15,17.76,9.35,21.64c-2.59-0.12-7.87-0.25-14.01-0.25
			c-5.67,0-12.56,0-17.71,0.25c-0.12-7-0.59-9.58-2.69-16.63l4.47-1.35c1.18,4.05,2.47,8.52,3.16,11.89h6.14
			c-1.36-5.7-3.92-13.22-5.8-19.5l-11.18-37.07l-5.28-17.17l-0.72-6.85c4.42-0.42,8.88-0.93,12.66-1.6
			c0.99,5.28,1.46,7.25,3.28,12.63L396.13,225.95z"/>
		<path fill="#C85C00" d="M375.53,231.66l-4.47,1.4l-2.71-9.28c-2.94-0.13-8.59-0.25-14.38-0.25c-5.77,0-11.69,0.13-15,0.25
			l-2.81,9.54c-1.11,3.54-1.63,7.61-1.63,10.66c0,2.29,0.12,3.51,0.99,6.31c-3.18-0.13-6.39-0.25-9.7-0.25
			c-4.05,0-8.26,0-12.78,0.25l-0.49-1.42c3.31-5.83,6.64-13,9.35-20.25l19.54-51.1c2.96-7.73,3.55-9.77,5.03-15.97
			c3.85-0.08,9.57-0.43,15.39-1.02l0.72,7.1l-5.4,0.61c1.83,5.57,4.17,12.77,5.77,18.34l10.68,38.39
			C374.12,226.8,374.82,229.14,375.53,231.66z M365.42,212.25l-10.46-36.83l-12.16,36.83c2.81,0.13,7.13,0.25,11.3,0.25
			S362.46,212.38,365.42,212.25z"/>
		<path fill="#C85C00" d="M299.65,151.44c-2.36,6.05-4.35,13.58-5.51,18.95l-2.39,0.25c-3.98-6.59-9.25-11.57-17.47-11.57
			c-7.13,0-11.61,4.07-11.61,10.27c0,18.67,40.69,13.97,40.69,45.94c0,20.31-16.78,34.99-40,34.99c-8.75,0-17.2-2.01-25.66-5.8
			c1.46-4.05,3.84-16.6,4.51-20.88l2.78-0.25c4.74,7.5,10.95,13.83,20.73,13.83c8.46,0,13.86-4.55,13.86-11.57
			c0-18.87-40.69-14.68-40.69-46.42c0-19.83,15.08-33.41,37.27-33.41C284.2,145.78,291.75,147.65,299.65,151.44z M279.58,237.04
			c2.78-1.44,10.28-6.68,10.28-16.38c0-10.47-8.96-15.93-16.35-19.43c-13.6-6.48-24.84-12.25-24.84-27.66
			c0-5.8,0.93-12.96,5.41-17.91c-5.81,4.67-9.89,12.73-9.89,21.05c0,16.75,11.74,22.54,23.09,27.92c7.82,3.65,17.6,8.74,17.6,19.97
			C284.89,230.36,282.9,233.73,279.58,237.04z"/>
		<path fill="#575C00" d="M958.4,264.89c0,0,17.79,22.36-614.45,18.76c0,0,96.13-11.56,325.51-14.41c0,0-262.88-4.27-420.83,11.44
			C248.63,280.68,92.67,247.24,958.4,264.89z"/>
	</g>
	<g>
		<path fill="#575C00" d="M921.32,278.1c0,0,0.15,6.18-4.9,8.33c0,0,0.77-3.72,2.6-5.67c0,0-2.1,0.12-3.36,5.31
			C915.65,286.08,914.4,277.48,921.32,278.1z"/>
		<g>
			<path fill="#575C00" d="M682.68,295.17c0.19,0.7,0.5,1.64,0.93,2.79c0.43,1.16,0.93,2.44,1.5,3.85c0.57,1.41,1.18,2.9,1.83,4.47
				c0.64,1.57,1.29,3.12,1.93,4.63c0.64,1.51,1.25,2.95,1.83,4.32c0.57,1.37,1.07,2.55,1.5,3.54h0.29c0.57-1.45,1.3-3.27,2.19-5.47
				c0.88-2.19,1.78-4.44,2.69-6.74c0.91-2.3,1.74-4.47,2.51-6.52c0.76-2.05,1.31-3.67,1.65-4.88h5.78
				c-0.68,1.17-1.46,2.72-2.35,4.64c-0.89,1.92-1.83,4.02-2.82,6.3c-0.99,2.28-2.01,4.64-3.07,7.09c-1.06,2.45-2.05,4.78-2.97,6.99
				l-2.1,5.02h-4.63l-2.46-5.14c-1.06-2.17-2.16-4.48-3.29-6.93c-1.13-2.45-2.23-4.8-3.29-7.05c-1.06-2.26-2.05-4.35-2.97-6.27
				c-0.92-1.92-1.69-3.47-2.31-4.64H682.68z"/>
			<path fill="#575C00" d="M724.21,293.05c2.28,0,4.26,0.31,5.94,0.93c1.68,0.62,3.07,1.43,4.16,2.41c1.09,0.99,1.91,2.1,2.45,3.35
				c0.54,1.25,0.82,2.49,0.82,3.73c0,0.94-0.07,1.7-0.22,2.25c-0.15,0.56-0.32,1.07-0.52,1.55c-0.74,0.13-1.79,0.3-3.16,0.51
				c-1.36,0.21-2.87,0.43-4.53,0.64c-1.66,0.22-3.38,0.41-5.16,0.58c-1.78,0.17-3.47,0.28-5.05,0.32l-5.42,0.39
				c0.05,1.99,0.41,3.68,1.08,5.08c0.67,1.4,1.53,2.55,2.6,3.43c1.06,0.89,2.31,1.53,3.75,1.94c1.44,0.41,2.97,0.61,4.6,0.61
				c1.88,0,3.7-0.23,5.46-0.68c1.76-0.45,3.16-1,4.2-1.64c0.3,0.3,0.57,0.74,0.82,1.32c0.25,0.58,0.37,1.04,0.37,1.38
				c-0.5,0.42-1.19,0.84-2.08,1.27c-0.89,0.42-1.91,0.81-3.04,1.17c-1.14,0.36-2.38,0.64-3.71,0.85c-1.34,0.21-2.7,0.32-4.08,0.32
				c-5.2,0-9.2-1.42-11.99-4.25c-2.8-2.83-4.19-6.65-4.19-11.46c0-2.06,0.35-4.05,1.04-5.99c0.69-1.93,1.74-3.64,3.16-5.12
				c1.41-1.48,3.18-2.67,5.31-3.57C718.91,293.5,721.39,293.05,724.21,293.05z M713.59,306.5c0.74,0,1.95-0.03,3.64-0.1
				c1.68-0.06,3.43-0.15,5.23-0.26c1.81-0.11,3.49-0.24,5.05-0.39c1.56-0.15,2.61-0.31,3.16-0.49c0.35-0.43,0.52-1.08,0.52-1.94
				c0-2.03-0.78-3.66-2.34-4.89c-1.56-1.23-3.45-1.85-5.68-1.85c-1.58,0-2.83,0.16-3.75,0.49c-0.92,0.32-1.7,0.66-2.34,1
				c-0.45,0.39-0.87,0.92-1.26,1.59c-0.4,0.67-0.77,1.4-1.11,2.2c-0.35,0.8-0.62,1.61-0.82,2.43
				C713.69,305.12,713.59,305.85,713.59,306.5z"/>
			<path fill="#575C00" d="M773.69,292.79c0.25,0.47,0.36,1.15,0.33,2.03c-0.03,0.88-0.14,1.56-0.33,2.03l-7.05-0.71v0.26
				c1.19,0.64,2.24,1.61,3.16,2.9c0.92,1.29,1.37,2.81,1.37,4.57c0,1.29-0.32,2.55-0.97,3.8c-0.64,1.25-1.58,2.34-2.82,3.28
				c-1.24,0.94-2.76,1.71-4.57,2.28c-1.81,0.58-3.85,0.87-6.13,0.87c-1.63,0-3.18-0.15-4.64-0.45c-1.46-0.3-2.59-0.64-3.38-1.03
				c-0.69,0.34-1.24,0.8-1.63,1.38c-0.4,0.58-0.59,1.11-0.59,1.58c0,1.03,0.99,1.83,2.97,2.41c1.98,0.58,5.15,1.15,9.5,1.71
				c2.38,0.3,4.49,0.65,6.35,1.06c1.86,0.41,3.42,0.93,4.68,1.58c1.26,0.64,2.23,1.43,2.9,2.35c0.67,0.92,1,2.07,1,3.44
				c0,1.2-0.36,2.38-1.08,3.54c-0.72,1.16-1.82,2.2-3.3,3.12c-1.48,0.92-3.35,1.66-5.61,2.22c-2.25,0.56-4.91,0.84-7.98,0.84
				c-2.38,0-4.54-0.18-6.5-0.55c-1.96-0.36-3.65-0.88-5.09-1.55c-1.44-0.67-2.55-1.46-3.34-2.38c-0.79-0.92-1.19-1.92-1.19-2.99
				c0-2.02,0.79-3.58,2.38-4.7c0.15-0.13,0.4-0.19,0.74-0.19c0.35,0,0.72,0.03,1.11,0.1c0.4,0.06,0.8,0.17,1.22,0.32
				c0.42,0.15,0.75,0.31,1,0.48c-0.5,0.34-0.89,0.74-1.19,1.19c-0.3,0.45-0.45,0.95-0.45,1.51c0,0.69,0.25,1.35,0.74,2
				c0.49,0.64,1.25,1.22,2.26,1.74c1.01,0.51,2.3,0.92,3.86,1.22c1.56,0.3,3.43,0.45,5.61,0.45c3.56,0,6.22-0.49,7.98-1.48
				c1.76-0.99,2.64-2.15,2.64-3.47c0-1.5-1.06-2.66-3.19-3.48c-2.13-0.82-5.17-1.52-9.13-2.12c-2.52-0.39-4.64-0.8-6.35-1.25
				c-1.71-0.45-3.08-0.95-4.12-1.51c-1.04-0.56-1.78-1.18-2.23-1.87c-0.45-0.69-0.67-1.46-0.67-2.32c0-1.12,0.48-2.15,1.45-3.09
				c0.96-0.94,1.94-1.76,2.93-2.45c-1.39-0.69-2.56-1.68-3.53-2.99c-0.97-1.31-1.45-2.89-1.45-4.73c0-1.72,0.41-3.25,1.22-4.6
				c0.82-1.35,1.93-2.5,3.34-3.44c1.41-0.94,3.06-1.66,4.94-2.16c1.88-0.49,3.91-0.74,6.09-0.74c1.73,0,3.23,0.1,4.49,0.29
				c1.26,0.19,2.54,0.33,3.82,0.42c1.93-0.04,3.5-0.12,4.71-0.23C771.22,293.16,772.45,293,773.69,292.79z M754.73,296.33
				c-2.57,0-4.62,0.54-6.13,1.63c-1.51,1.08-2.26,2.88-2.26,5.39c0,1.02,0.21,1.98,0.63,2.87c0.42,0.89,1.01,1.67,1.78,2.33
				c0.77,0.66,1.72,1.19,2.86,1.59c1.14,0.4,2.45,0.61,3.94,0.61c2.77,0,4.84-0.57,6.2-1.72c1.36-1.15,2.04-2.79,2.04-4.91
				c0-2.34-0.74-4.22-2.23-5.65C760.07,297.04,757.8,296.33,754.73,296.33z"/>
			<path fill="#575C00" d="M803.11,312.49c0,1.89,0,3.52,0,4.89c0,1.37,0.02,2.56,0.07,3.57c0.05,1.01,0.1,1.87,0.15,2.57
				c0.05,0.71,0.15,1.34,0.3,1.9l-6.01,0.52c-0.2-0.73-0.32-1.57-0.37-2.51c-0.05-0.94-0.1-1.78-0.15-2.51h-0.22
				c-0.5,0.56-1.11,1.14-1.86,1.74c-0.74,0.6-1.61,1.15-2.6,1.64c-0.99,0.49-2.09,0.9-3.3,1.22c-1.21,0.32-2.56,0.48-4.05,0.48
				c-2.72,0-5.02-0.72-6.91-2.16c-1.88-1.44-2.82-3.44-2.82-6.02c0-1.8,0.42-3.34,1.26-4.6c0.84-1.26,2.13-2.29,3.86-3.09
				c1.73-0.79,3.95-1.37,6.64-1.74c2.7-0.36,5.9-0.57,9.62-0.61c0-1.61-0.09-3-0.26-4.19c-0.17-1.18-0.55-2.17-1.11-2.95
				c-0.57-0.78-1.35-1.36-2.34-1.75c-0.99-0.38-2.25-0.57-3.79-0.57c-1.68,0-3.44,0.24-5.27,0.7c-1.83,0.47-3.61,1.09-5.35,1.87
				c-0.4-0.34-0.72-0.85-0.97-1.51c-0.25-0.66-0.37-1.23-0.37-1.71c2.18-0.9,4.48-1.68,6.91-2.35c2.42-0.67,4.97-1,7.65-1
				c3.71,0,6.52,0.87,8.43,2.61c1.9,1.74,2.86,4.75,2.86,9.04V312.49z M781.68,315.38c0,0.93,0.19,1.74,0.56,2.42
				c0.37,0.68,0.84,1.24,1.41,1.69c0.57,0.45,1.22,0.77,1.97,0.99c0.74,0.21,1.49,0.32,2.23,0.32c1.93,0,3.67-0.41,5.23-1.24
				c1.56-0.83,2.76-1.81,3.6-2.96v-6.23c-0.54-0.08-1.22-0.19-2.04-0.32c-0.82-0.13-1.55-0.19-2.19-0.19
				c-1.88,0-3.64,0.12-5.27,0.35c-1.63,0.23-2.87,0.63-3.71,1.18c-0.64,0.6-1.1,1.24-1.37,1.94
				C781.81,314.01,781.68,314.7,781.68,315.38z"/>
			<path fill="#575C00" d="M832.54,325.21c0.1-0.34,0.19-0.94,0.27-1.81c0.08-0.86,0.14-1.89,0.19-3.1c0.05-1.2,0.09-2.53,0.11-3.97
				c0.02-1.44,0.04-2.91,0.04-4.42v-2.84c0-4.04-0.49-6.93-1.48-8.68c-0.99-1.74-2.87-2.61-5.66-2.61c-2.02,0-3.91,0.47-5.66,1.42
				c-1.75,0.95-3.2,2.09-4.37,3.42v4.77c0,1.64,0.01,3.19,0.04,4.68c0.02,1.48,0.05,2.94,0.08,4.35c0.02,1.42,0.08,2.85,0.15,4.29
				c0.08,1.44,0.16,2.94,0.26,4.48h-7.5c0.26-2.49,0.41-5.04,0.46-7.65c0.05-2.61,0.08-5.1,0.08-7.46v-1.39
				c0-1.73-0.04-3.78-0.11-6.17c-0.08-2.38-0.27-4.71-0.57-6.99l6.97-0.7c0,0.76-0.01,1.54-0.04,2.34c-0.02,0.8-0.06,1.56-0.11,2.28
				h0.31c0.61-0.55,1.34-1.13,2.18-1.74c0.84-0.61,1.8-1.17,2.87-1.68c1.07-0.51,2.26-0.92,3.56-1.23c1.3-0.32,2.72-0.47,4.25-0.47
				c3.93,0,6.7,1.05,8.31,3.16c1.61,2.11,2.41,5.17,2.41,9.17v4.24c0,1.35,0,2.73,0,4.14c0,1.41,0.01,2.76,0.04,4.05
				c0.02,1.29,0.08,2.47,0.15,3.54c0.08,1.07,0.17,1.93,0.27,2.56H832.54z"/>
			<path fill="#575C00" d="M887.41,292.79c0.25,0.47,0.36,1.15,0.33,2.03c-0.02,0.88-0.14,1.56-0.33,2.03l-7.06-0.71v0.26
				c1.19,0.64,2.24,1.61,3.16,2.9c0.92,1.29,1.37,2.81,1.37,4.57c0,1.29-0.32,2.55-0.96,3.8c-0.64,1.25-1.59,2.34-2.82,3.28
				c-1.24,0.94-2.76,1.71-4.57,2.28c-1.81,0.58-3.85,0.87-6.12,0.87c-1.63,0-3.18-0.15-4.64-0.45c-1.46-0.3-2.59-0.64-3.38-1.03
				c-0.69,0.34-1.24,0.8-1.63,1.38c-0.4,0.58-0.59,1.11-0.59,1.58c0,1.03,0.99,1.83,2.97,2.41c1.98,0.58,5.15,1.15,9.5,1.71
				c2.38,0.3,4.49,0.65,6.35,1.06c1.86,0.41,3.42,0.93,4.68,1.58c1.26,0.64,2.23,1.43,2.9,2.35c0.67,0.92,1,2.07,1,3.44
				c0,1.2-0.36,2.38-1.08,3.54c-0.72,1.16-1.82,2.2-3.3,3.12c-1.49,0.92-3.35,1.66-5.61,2.22c-2.25,0.56-4.91,0.84-7.98,0.84
				c-2.38,0-4.54-0.18-6.5-0.55c-1.96-0.36-3.65-0.88-5.09-1.55c-1.44-0.67-2.55-1.46-3.34-2.38c-0.79-0.92-1.19-1.92-1.19-2.99
				c0-2.02,0.79-3.58,2.38-4.7c0.15-0.13,0.4-0.19,0.74-0.19c0.35,0,0.72,0.03,1.11,0.1c0.4,0.06,0.8,0.17,1.23,0.32
				c0.42,0.15,0.75,0.31,1,0.48c-0.5,0.34-0.89,0.74-1.19,1.19c-0.3,0.45-0.44,0.95-0.44,1.51c0,0.69,0.25,1.35,0.74,2
				c0.49,0.64,1.25,1.22,2.26,1.74c1.01,0.51,2.3,0.92,3.86,1.22c1.56,0.3,3.43,0.45,5.61,0.45c3.56,0,6.22-0.49,7.98-1.48
				s2.64-2.15,2.64-3.47c0-1.5-1.07-2.66-3.19-3.48c-2.13-0.82-5.17-1.52-9.13-2.12c-2.52-0.39-4.64-0.8-6.35-1.25
				c-1.71-0.45-3.08-0.95-4.12-1.51c-1.04-0.56-1.78-1.18-2.23-1.87c-0.45-0.69-0.67-1.46-0.67-2.32c0-1.12,0.48-2.15,1.45-3.09
				c0.97-0.94,1.94-1.76,2.93-2.45c-1.39-0.69-2.56-1.68-3.53-2.99c-0.97-1.31-1.45-2.89-1.45-4.73c0-1.72,0.41-3.25,1.22-4.6
				c0.82-1.35,1.93-2.5,3.34-3.44c1.41-0.94,3.05-1.66,4.94-2.16c1.88-0.49,3.91-0.74,6.09-0.74c1.73,0,3.23,0.1,4.49,0.29
				c1.26,0.19,2.54,0.33,3.83,0.42c1.93-0.04,3.5-0.12,4.71-0.23C884.94,293.16,886.17,293,887.41,292.79z M869.96,296.33
				c-2.57,0-4.62,0.54-6.13,1.63c-1.51,1.08-2.26,2.88-2.26,5.39c0,1.02,0.21,1.98,0.63,2.87c0.42,0.89,1.01,1.67,1.78,2.33
				c0.77,0.66,1.72,1.19,2.86,1.59c1.14,0.4,2.45,0.61,3.94,0.61c2.77,0,4.84-0.57,6.2-1.72c1.36-1.15,2.04-2.79,2.04-4.91
				c0-2.34-0.74-4.22-2.23-5.65C875.31,297.04,873.03,296.33,869.96,296.33z"/>
			<path fill="#575C00" d="M910.72,293.87c-0.05,0.63-0.24,1.43-0.56,2.38c-0.32,0.95-0.83,1.73-1.52,2.33
				c-0.35-0.26-0.74-0.47-1.19-0.64c-0.44-0.17-1.09-0.26-1.93-0.26c-1.24,0-2.46,0.36-3.67,1.07c-1.21,0.71-2.22,1.69-2.19,2.94
				v5.87v3.74c-0.82,1.42-0.8,2.88-0.75,4.39c0.05,1.51,0.12,3,0.22,4.48c0.1,1.48,0.22,2.83,0.37,5.04h-7.28
				c0.25-3.54,0.38-6.14,0.41-8.8c0.02-2.66,0.04-5.19,0.58-7.59v-1.74c-0.55-1.8-0.58-3.69-0.66-5.66
				c-0.07-1.97-0.24-4.44-0.48-7.4l6.61-0.71c0.05,0.77,0.06,1.59,0.04,2.45c-0.03,0.86-0.06,1.67-0.11,3.71h0.22
				c1.09-2.85,2.4-4.07,3.94-4.9c1.53-0.84,3.17-1.26,4.9-1.26C908.81,293.3,909.83,293.49,910.72,293.87z"/>
			<path fill="#575C00" d="M914.68,307.08c0.5-0.69,0.48-1.63,0.46-2.83c-0.03-1.2-0.05-2.46-0.07-3.76
				c-0.03-1.31-0.09-2.56-0.19-3.77c-0.1-1.2-0.22-2.14-0.37-3.69h7.87c-0.15,1.55-0.26,2.5-0.33,3.72
				c-0.07,1.22-0.14,2.5-0.18,3.83c-0.05,1.33-0.09,2.61-0.11,3.83c-0.03,1.22-0.04,2.18-0.63,2.86v2.12
				c0.59,0.64,0.6,1.65,0.63,3.02c0.02,1.37,0.06,2.82,0.11,4.35c0.05,1.52,0.11,2.97,0.18,4.34c0.07,1.37,0.19,2.4,0.33,1.95h-7.87
				c0.15,0.49,0.26-0.39,0.33-1.5c0.07-1.12,0.14-2.34,0.18-3.67c0.05-1.33,0.09-2.72,0.11-4.18c0.02-1.46,0.04-2.9-0.46-4.31
				V307.08z"/>
			<path fill="#575C00" d="M929.7,295.54c1.13-0.64,1.11-1.57,1.09-2.78c-0.02-1.21-0.05-2.5-0.07-3.87
				c-0.02-1.37-0.07-2.69-0.14-3.96c-0.07-1.27-0.13-2.29-0.18-3.06c0.48-0.04,1.02-0.09,1.64-0.15c0.62-0.06,1.25-0.1,1.89-0.12
				c0.64-0.02,1.25-0.01,1.82,0.03c0.57,0.04,1.07,0.1,1.5,0.18c0,1.05-0.01,2.38-0.04,3.99c-0.02,1.61-0.06,3.44-0.11,5.48
				c-0.05,2.04-0.08,4.23-0.11,6.56c-0.02,2.34-0.04,4.74-0.87,7.2v9.8c0.83,1.57,0.91,2.8,1.05,3.69s0.44,1.53,0.89,1.94
				c0.45,0.4,1.07,0.62,1.86,0.64c0.79,0.02,1.82-0.09,3.11-0.33c0.09,0.32,0.17,0.73,0.21,1.21c0.05,0.48-0.02,0.89-0.21,1.21
				c-0.67,0.32-1.69,0.64-3.07,0.94c-1.38,0.3-2.76,0.45-4.15,0.45c-1.48,0-2.68-0.4-3.61-1.21c-0.93-0.81-1.39-2.32-2.52-4.54
				V295.54z"/>
			<path fill="#575C00" d="M946.87,293.69c-0.06-0.69-0.07-1.67-0.1-2.96c-0.03-1.29-0.05-2.66-0.07-4.12
				c-0.03-1.46-0.07-2.86-0.15-4.22c-0.07-1.35-0.14-2.43-0.19-3.25c0.49-0.04,1.06-0.1,1.71-0.16c0.64-0.06,1.3-0.11,1.97-0.13
				c0.67-0.02,1.3-0.01,1.89,0.03c0.59,0.04,1.11,0.11,1.56,0.19c0,1.12-0.01,2.53-0.04,4.25c-0.03,1.72-0.06,3.66-0.11,5.83
				c-0.05,2.17-0.09,4.5-0.11,6.98c-0.03,2.49-0.04,5.04,0.07,7.66v10.43c-0.11,1.67-0.04,2.98,0.11,3.93
				c0.15,0.94,0.46,1.63,0.93,2.06c0.47,0.43,1.11,0.65,1.93,0.68c0.82,0.02,1.89-0.1,3.23-0.35c0.1,0.34,0.17,0.77,0.22,1.29
				c0.05,0.51-0.03,0.94-0.22,1.29c-0.69,0.34-1.76,0.68-3.19,1c-1.44,0.32-2.87,0.48-4.31,0.48c-1.53,0-2.78-0.43-3.75-1.29
				c-0.97-0.86-1.45-2.47-1.39-4.83V293.69z"/>
		</g>
	</g>
</g>
<text transform="matrix(1 0 0 1 498.2819 746.5328)"><tspan x="0" y="0" fill="#FFF09A" font-family="'Roboto-Medium'" font-size="37.5212px">$</tspan><tspan x="21.33" y="0" fill="#FFF09A" font-family="'Roboto-Medium'" font-size="37.5212px">1.99</tspan></text>
<g>
	<text transform="matrix(1 0 0 1 1872.3429 655.6827)"><tspan x="0" y="0" fill="#FAD297" font-family="'Roboto-Medium'" font-size="24.2252px">B</tspan><tspan x="15.28" y="0" fill="#FAD297" font-family="'Roboto-Medium'" font-size="24.2252px">URGERS</tspan></text>
</g>
</svg>
