<svg id="Layer_1" data-name="Layer 1" xmlns="http://www.w3.org/2000/svg" viewBox="0 0 33.02 8.76"><defs><style>.cls-1{fill:#c85c00;}.cls-2{fill:#575c00;}</style></defs><title>logo</title><path class="cls-1" d="M32.86.83a5.37,5.37,0,0,0-.24.75h-.1a.85.85,0,0,0-.74-.46c-.3,0-.49.16-.49.41,0,.74,1.73.55,1.73,1.82,0,.8-.71,1.38-1.7,1.38a2.81,2.81,0,0,1-1.09-.23,8.09,8.09,0,0,0,.19-.82h.12a1,1,0,0,0,.88.54c.36,0,.59-.18.59-.46,0-.74-1.73-.58-1.73-1.83A1.4,1.4,0,0,1,31.86.6,2.43,2.43,0,0,1,32.86.83ZM32,4.22a.77.77,0,0,0,.44-.65c0-.41-.39-.63-.7-.77-.58-.26-1.05-.49-1.05-1.09A1,1,0,0,1,30.93,1a1,1,0,0,0-.42.83c0,.66.49.89,1,1.11.33.14.74.34.74.79A.61.61,0,0,1,32,4.22Z"/><path class="cls-2" d="M30.09.07a2.85,2.85,0,0,1-1.52,2.59A4.24,4.24,0,0,1,29.37.9s-.65,0-1,1.65C28.33,2.55,27.94-.12,30.09.07Z"/><path class="cls-1" d="M28.05,3.67a7.55,7.55,0,0,0,.42,1H27a2,2,0,0,0-.12-.76l.21-.06c.05.18.11.39.14.54h.28c-.06-.26-.18-.6-.26-.89L26.76,1.8,26.52,1l0-.32a4.85,4.85,0,0,0,.58-.07,3.31,3.31,0,0,0,.15.58Z"/><path class="cls-1" d="M27.11,3.84l-.21.06-.12-.41H25.44l-.13.42a1.69,1.69,0,0,0-.07.48.75.75,0,0,0,0,.28l-.44,0a5.72,5.72,0,0,0-.58,0l0-.07a5.36,5.36,0,0,0,.43-.9l.89-2.27a4.39,4.39,0,0,0,.23-.71c.18,0,.44,0,.7,0l0,.32-.25,0c.08.25.19.57.26.82L27,3.54A3.08,3.08,0,0,0,27.11,3.84ZM26.64,3l-.47-1.64L25.61,3h1Z"/><path class="cls-1" d="M23.81.75a7.44,7.44,0,0,0,0,1.06V3.69a6.7,6.7,0,0,0,.1,1.11h-1c-.19-.3-.27-.43-.37-.56L21.21,2.48c-.1-.13-.23-.31-.28-.39L21.09,2l.09.11,1.31,1.72c.17.22.38.46.5.65h.29c-.16-.23-.39-.53-.58-.77L21.4,2a8.11,8.11,0,0,0-.64-.77.39.39,0,0,0-.37-.14h-.13a.17.17,0,0,1,.13,0h-.24s-.12-.06-.23.05h0L20,.75h.71l.73,0a4.49,4.49,0,0,0,.38.62l1,1.37.29.41a3.88,3.88,0,0,1,0-.41V1.81a2.57,2.57,0,0,0-.17-1h.91Z"/><path class="cls-1" d="M21.14,1.84l-.17.1V3.62a3.27,3.27,0,0,0,.19,1.13l-.48,0-.49,0a5.12,5.12,0,0,0,.08-1.14V1.74a3.08,3.08,0,0,0,0-.63A.23.23,0,0,0,20.17,1h.26C20.58,1.13,20.8,1.41,21.14,1.84Z"/><path class="cls-1" d="M19.29,3.67a7.55,7.55,0,0,0,.42,1H18.27a2.25,2.25,0,0,0-.13-.76l-.06-.21.21-.06c.06.22.16.54.2.75h.28c-.06-.26-.18-.6-.26-.89L18,1.8,17.76,1l0-.32A4.67,4.67,0,0,0,18.3.63a4.51,4.51,0,0,0,.15.58Z"/><path class="cls-1" d="M18.29,3.7l-.21.06L18,3.56H16.68L16.55,4a1.76,1.76,0,0,0-.07.49,1.11,1.11,0,0,0,0,.29l-.44,0c-.18,0-.37,0-.58,0l0-.07a6.05,6.05,0,0,0,.42-.92l.89-2.33A3.52,3.52,0,0,0,17,.72a7.09,7.09,0,0,0,.71,0l0,.33-.25,0c.09.26.19.59.26.84l.49,1.75ZM17.89,3l-.48-1.68L16.86,3h1Z"/><path class="cls-1" d="M16.06.73a7.12,7.12,0,0,0-.18.78h-.12c-.13-.27-.46-.3-.79-.24h-.24a5.27,5.27,0,0,1-.07.58V3.67a5.1,5.1,0,0,0,.16,1.1,5.73,5.73,0,0,0-.62,0l-.67,0a3.67,3.67,0,0,0,0-1.1V1.85a1.64,1.64,0,0,0,0-.57h-.17a1.12,1.12,0,0,0-1,.28l-.11-.06a5.9,5.9,0,0,0,.13-.77l1.05.05h1.41ZM13.86,3.3V1.78a2.3,2.3,0,0,0,0-.7H13.6a4.81,4.81,0,0,1,.06.7V3.3c0,.24,0,.39,0,.78h.23A4.14,4.14,0,0,0,13.86,3.3Z"/><path class="cls-1" d="M11.75.75c-.06.32-.09,1.06-.09,1.06v1.8a7.59,7.59,0,0,0,.09,1.09h-.94a6.3,6.3,0,0,0-.38-.55L9.12,2.44c-.1-.13-.23-.3-.28-.38L9,2a.76.76,0,0,0,.08.11l1.31,1.67c.16.21.37.44.49.63h.29c-.16-.22-.39-.51-.58-.75L9.3,2a6.09,6.09,0,0,0-.63-.75.4.4,0,0,0-.37-.14H8.19a.17.17,0,0,1,.13,0H8.08s-.12-.06-.23.05h0L7.92.75h.71l.74,0a3.62,3.62,0,0,0,.37.62l1,1.37c.06.08.25.34.28.4a1.4,1.4,0,0,0-.07-.4V1.81A2,2,0,0,0,10.84.75h.91Z"/><path class="cls-1" d="M9,1.84l-.17.1V3.62A3.25,3.25,0,0,0,9,4.75l-.47,0-.49,0a5.94,5.94,0,0,0,.07-1.14V1.74a3.29,3.29,0,0,0,0-.63A.23.23,0,0,0,8.06,1h.26C8.47,1.13,8.69,1.41,9,1.84Z"/><path class="cls-1" d="M7.23,3.67a7.55,7.55,0,0,0,.42,1H6.21a2.25,2.25,0,0,0-.13-.76l.21-.06c0,.18.11.39.14.54h.28c-.06-.26-.18-.6-.26-.89L5.94,1.8,5.7,1l0-.32A4.61,4.61,0,0,0,6.24.63a4.51,4.51,0,0,0,.15.58Z"/><path class="cls-1" d="M6.29,3.92,6.08,4,6,3.56H4.62L4.49,4a1.76,1.76,0,0,0-.07.49.8.8,0,0,0,0,.29L4,4.75c-.18,0-.38,0-.58,0l0-.07a6.05,6.05,0,0,0,.42-.92l.89-2.33A3.52,3.52,0,0,0,5,.72a6.73,6.73,0,0,0,.7,0L5.7,1,5.45,1c.08.26.19.59.26.84L6.2,3.61C6.22,3.69,6.25,3.8,6.29,3.92ZM5.83,3,5.35,1.35,4.79,3h1Z"/><path class="cls-1" d="M2.83.26a5.43,5.43,0,0,0-.25.86H2.47a.93.93,0,0,0-.8-.52.46.46,0,0,0-.53.47C1.14,1.93,3,1.71,3,3.17a1.66,1.66,0,0,1-1.82,1.6A2.74,2.74,0,0,1,0,4.5a7.28,7.28,0,0,0,.21-1H.33a1.13,1.13,0,0,0,1,.63c.38,0,.63-.21.63-.53C1.91,2.78.06,3,.06,1.52A1.53,1.53,0,0,1,1.76,0,2.48,2.48,0,0,1,2.83.26Zm-.92,3.9a.84.84,0,0,0,.47-.74c0-.48-.41-.73-.75-.89C1,2.23.5,2,.5,1.27A1.19,1.19,0,0,1,.75.45a1.24,1.24,0,0,0-.45,1c0,.76.53,1,1.05,1.27.36.17.8.4.8.92A.72.72,0,0,1,1.91,4.16Z"/><path class="cls-2" d="M32.87,5.43s.81,1-28,.86c0,0,4.38-.53,14.84-.66,0,0-12-.19-19.19.52C.5,6.15-6.61,4.63,32.87,5.43Z"/><path class="cls-2" d="M31.18,6a.41.41,0,0,1-.22.38.56.56,0,0,1,.11-.25s-.09,0-.15.24C30.92,6.4,30.86,6,31.18,6Z"/><path class="cls-2" d="M20.29,6.78a.38.38,0,0,0,0,.13,1.34,1.34,0,0,0,.07.18l.08.21.09.22.09.2c0,.06.05.12.07.17h0c0-.07.06-.16.11-.26L21,7.32,21.09,7a1.83,1.83,0,0,0,.07-.23h.28a1.5,1.5,0,0,0-.11.22c0,.09-.09.19-.14.29s-.09.22-.14.34L20.91,8l-.1.24H20.6L20.48,8l-.15-.33-.16-.33c0-.1-.09-.2-.13-.29s-.08-.16-.11-.22Z"/><path class="cls-2" d="M22.19,6.72a.77.77,0,0,1,.27,0,.5.5,0,0,1,.19.11.39.39,0,0,1,.11.15.35.35,0,0,1,0,.17.28.28,0,0,1,0,.1.25.25,0,0,0,0,.07l-.15,0-.2,0-.24,0-.23,0-.25,0a.56.56,0,0,0,.05.23.44.44,0,0,0,.12.15A.46.46,0,0,0,22,8l.21,0a1,1,0,0,0,.25,0,.68.68,0,0,0,.19-.08.21.21,0,0,1,0,.06.25.25,0,0,1,0,.07l-.1.06-.14,0-.17,0h-.18A.74.74,0,0,1,21.61,8a.71.71,0,0,1-.19-.52.66.66,0,0,1,0-.28.55.55,0,0,1,.14-.23.6.6,0,0,1,.24-.16A.9.9,0,0,1,22.19,6.72Zm-.48.61h.16l.24,0h.23l.14,0a.12.12,0,0,0,0-.09A.28.28,0,0,0,22.4,7a.45.45,0,0,0-.26-.08.42.42,0,0,0-.17,0l-.11,0a.13.13,0,0,0-.05.07.31.31,0,0,0,0,.1.36.36,0,0,0,0,.11A.38.38,0,0,0,21.71,7.33Z"/><path class="cls-2" d="M24.5,6.71a.22.22,0,0,1,0,.09s0,.07,0,.09l-.33,0h0a.37.37,0,0,1,.15.13.37.37,0,0,1,.06.21.33.33,0,0,1,0,.17.47.47,0,0,1-.13.15.7.7,0,0,1-.21.11,1.18,1.18,0,0,1-.28,0l-.21,0-.16,0-.07.06a.13.13,0,0,0,0,.07s.05.09.14.11a2.06,2.06,0,0,0,.43.08l.29.05a.73.73,0,0,1,.21.07.4.4,0,0,1,.14.11.31.31,0,0,1,0,.32.41.41,0,0,1-.15.14.82.82,0,0,1-.25.1,1.4,1.4,0,0,1-.37,0,1.36,1.36,0,0,1-.29,0,.84.84,0,0,1-.24-.07.56.56,0,0,1-.15-.1A.27.27,0,0,1,23,8.42a.23.23,0,0,1,.11-.21s0,0,0,0h.05l.06,0,0,0a.12.12,0,0,0,0,0,.19.19,0,0,0,0,.07.16.16,0,0,0,0,.09.31.31,0,0,0,.11.08l.17.06.26,0a.7.7,0,0,0,.36-.07.19.19,0,0,0,.12-.16c0-.06,0-.12-.14-.16l-.42-.09-.29-.06A.69.69,0,0,1,23.18,8a.27.27,0,0,1-.1-.08.2.2,0,0,1,0-.11.17.17,0,0,1,.07-.14l.13-.11a.52.52,0,0,1-.16-.14A.37.37,0,0,1,23,7.21a.36.36,0,0,1,0-.21.46.46,0,0,1,.15-.16.8.8,0,0,1,.23-.1,1.27,1.27,0,0,1,.28,0h.2l.18,0h.21Zm-.92.16a.47.47,0,0,0-.28.07.28.28,0,0,0-.1.25.31.31,0,0,0,0,.13.25.25,0,0,0,.08.1.41.41,0,0,0,.13.08.48.48,0,0,0,.18,0,.44.44,0,0,0,.28-.08A.3.3,0,0,0,24,7.22a.32.32,0,0,0-.1-.25A.4.4,0,0,0,23.58,6.87Z"/><path class="cls-2" d="M25.78,7.59v.24a.92.92,0,0,1,0,.16s0,.08,0,.12,0,.06,0,.08l-.27,0a.5.5,0,0,1,0-.12s0-.08,0-.11h0l-.08.08-.12.07-.15.06-.19,0a.48.48,0,0,1-.31-.1.31.31,0,0,1-.13-.27.37.37,0,0,1,.06-.21.34.34,0,0,1,.17-.14.82.82,0,0,1,.31-.08,2.76,2.76,0,0,1,.44,0,1,1,0,0,0,0-.19.22.22,0,0,0-.05-.14.27.27,0,0,0-.1-.08l-.18,0-.24,0-.24.08s0,0-.05-.06a.25.25,0,0,1,0-.08l.31-.11a1.34,1.34,0,0,1,.35,0,.62.62,0,0,1,.39.11,1.56,1.56,0,0,1,.22.42v.28Zm-1,.15a.23.23,0,0,0,0,.11s0,.05.06.07L25,8h.1a.49.49,0,0,0,.41-.19V7.51l-.1,0h-.1L25,7.5a.58.58,0,0,0-.17,0,.24.24,0,0,0-.06.09A.3.3,0,0,0,24.79,7.74Z"/><path class="cls-2" d="M27.08,8.18c.06,0,.06,0,.06-.08a.61.61,0,0,0,0-.14c0-.06,0-.12,0-.18a1.8,1.8,0,0,1,0-.2V7.45a1,1,0,0,0-.07-.4.29.29,0,0,0-.27-.12.58.58,0,0,0-.26.06.83.83,0,0,0-.2.16v.64a1.21,1.21,0,0,0,0,.19c0,.07,0,.14,0,.21h-.35c0-.12,0-.23,0-.35s0-.24,0-.34V7.41c0-.08,0-.17,0-.28a1.84,1.84,0,0,0,0-.33l.33,0v.11s0,.07,0,.1h0l.1-.08.13-.07a.49.49,0,0,1,.17-.06.65.65,0,0,1,.2,0,.47.47,0,0,1,.39.14.74.74,0,0,1,.11.43V7.9a.91.91,0,0,0,0,.17s0,.09,0,.12h-.42Z"/><path class="cls-2" d="M29.6,6.71a.21.21,0,0,1,0,.18l-.32,0h0a.43.43,0,0,1,.14.13.31.31,0,0,1,.07.21.34.34,0,0,1,0,.17.44.44,0,0,1-.12.15.7.7,0,0,1-.21.11,1.26,1.26,0,0,1-.28,0l-.21,0-.16,0-.07.06a.13.13,0,0,0,0,.07s.05.09.14.11a2.06,2.06,0,0,0,.43.08l.29.05a.86.86,0,0,1,.21.07.36.36,0,0,1,.13.11.25.25,0,0,1,.05.16.33.33,0,0,1-.05.16.41.41,0,0,1-.15.14.78.78,0,0,1-.26.1,1.28,1.28,0,0,1-.36,0,1.39,1.39,0,0,1-.3,0,.78.78,0,0,1-.23-.07.56.56,0,0,1-.15-.1.2.2,0,0,1-.05-.14.24.24,0,0,1,.1-.21h.09l.05,0,.05,0a.12.12,0,0,0-.05,0,.1.1,0,0,0,0,.07.16.16,0,0,0,0,.09.27.27,0,0,0,.1.08l.18.06.26,0a.7.7,0,0,0,.36-.07.19.19,0,0,0,.12-.16c0-.06,0-.12-.15-.16a3,3,0,0,0-.41-.09l-.29-.06A.69.69,0,0,1,28.29,8a.21.21,0,0,1-.1-.08.2.2,0,0,1,0-.11.17.17,0,0,1,.07-.14.69.69,0,0,1,.13-.11.43.43,0,0,1-.16-.14.31.31,0,0,1-.07-.21A.37.37,0,0,1,28.19,7a.46.46,0,0,1,.15-.16.7.7,0,0,1,.23-.1,1.12,1.12,0,0,1,.27,0h.21l.17,0h.22Zm-.76.16a.47.47,0,0,0-.28.07.28.28,0,0,0-.11.25.31.31,0,0,0,0,.13.39.39,0,0,0,.08.1.44.44,0,0,0,.31.11.48.48,0,0,0,.29-.08.3.3,0,0,0,.09-.23.32.32,0,0,0-.1-.25A.41.41,0,0,0,28.84,6.87Z"/><path class="cls-2" d="M30.7,6.72a.26.26,0,0,1,0,.11.18.18,0,0,1-.07.11l-.05,0h-.09a.41.41,0,0,0-.18,0,.18.18,0,0,0-.1.14v.45a.28.28,0,0,0,0,.2,1.48,1.48,0,0,0,0,.21c0,.07,0,.13,0,.24h-.34c0-.17,0-.29,0-.41a2,2,0,0,1,0-.36V7.34a1.09,1.09,0,0,1,0-.26c0-.1,0-.21,0-.35l.31,0v.11a1.31,1.31,0,0,1,0,.17h0a.39.39,0,0,1,.19-.22.46.46,0,0,1,.23-.06Z"/><path class="cls-2" d="M30.88,7.34s0-.07,0-.13V7a.91.91,0,0,0,0-.17,1.41,1.41,0,0,0,0-.18h.37a1.21,1.21,0,0,0,0,.18,1.09,1.09,0,0,0,0,.18,1,1,0,0,0,0,.17c0,.06,0,.11,0,.14v.1s0,.07,0,.14a1.41,1.41,0,0,0,0,.2,1.27,1.27,0,0,0,0,.2c0,.07,0,.12,0,.1h-.37s0,0,0-.07,0-.11,0-.18V7.65a.44.44,0,0,0,0-.2V7.34Z"/><path class="cls-2" d="M31.58,6.78c.05,0,.05-.07.05-.12V6.48a1.09,1.09,0,0,0,0-.18V6.16h.32a1.36,1.36,0,0,1,0,.18v.25c0,.09,0,.19,0,.3a1,1,0,0,1,0,.33v.44a.35.35,0,0,1,.05.17.19.19,0,0,0,0,.09.16.16,0,0,0,.09,0l.15,0s0,0,0,.06a.07.07,0,0,1,0,0,.64.64,0,0,1-.15.05l-.19,0a.24.24,0,0,1-.17-.06,1.07,1.07,0,0,1-.12-.21V6.78Z"/><path class="cls-2" d="M32.38,6.78V6.46a1.28,1.28,0,0,1,0-.19c0-.06,0-.11,0-.15h.33v.46c0,.1,0,.2,0,.32v.82a.87.87,0,0,0,0,.18.19.19,0,0,0,0,.09.12.12,0,0,0,.09,0A.4.4,0,0,0,33,8s0,0,0,.06a.07.07,0,0,1,0,.06l-.15,0a.65.65,0,0,1-.2,0,.24.24,0,0,1-.17-.06c-.05,0-.07-.11-.07-.22V6.78Z"/></svg>