<svg id="Layer_1" data-name="Layer 1" xmlns="http://www.w3.org/2000/svg" viewBox="0 0 35 35"><defs><style>.cls-1{fill:#c5ce0d}</style></defs><path class="cls-1" d="M28.29 6.79c-.31-.36-1.52-1.54-2.05-.92-.36.48.28 1.44.23 2.16-.18 1.7-2.26 2.88-2.24 2.92l2.07 4.27c3.12-2.28 3.7-6.41 1.99-8.43zM12.68 8.8s-1.21-2-.58-3.5c.28-.64 1.25-1.16 1.18-1.74-.17-.76-1.72-.33-2.16-.13-2.35.94-3.75 4.71-2.12 8.05zM9.37 13.27c.08-.21-2.06-1.06-2.27-1.14a12.83 12.83 0 0 0-2.1-.59 4 4 0 0 0-3.59.67 2.69 2.69 0 0 0-.38 3.68c1.06 1.11 3.26.91 4.64.78.29 0 2.58-.18 2.71-.58zM34.11 17.69a4.18 4.18 0 0 0-3.22-1.59 12.61 12.61 0 0 0-2.13-.1 9.75 9.75 0 0 0-2.51.32l.07 2.68c0 .37 2.15 1.15 2.41 1.26 1.29.5 3.32 1.3 4.66.65a2.23 2.23 0 0 0 .72-3.22zM23.18 26.38c-1.07 1.07-1.41 2.47-.75 3.14s2.06.32 3.13-.75 1.41-2.47.75-3.13-2.07-.32-3.13.74zM20.17 18.68c-.56 1.41-.23 2.88.75 3.26s2.21-.46 2.78-1.87.22-2.87-.75-3.26-2.22.45-2.78 1.87zm2 .37a.6.6 0 0 1-.61-.57.59.59 0 0 1 .57-.6.59.59 0 0 1 0 1.17zM21.71 30.26a.94.94 0 0 1-.67-.6.18.18 0 0 0-.23-.11.17.17 0 0 0-.12.22 1.12 1.12 0 0 0 .21.36h.06a.46.46 0 0 1-.07-.07l.17-.12.12.13a1 1 0 0 0 .27.27l-.23.16a1.12 1.12 0 0 0 .4.17.19.19 0 0 0 .2-.14.19.19 0 0 0-.11-.27zM16.28 11.39c-2.18.54-1.05 2.53-1.05 2.53.18-1.87 2.65-2.16 2.65-2.16a3.69 3.69 0 0 1 3 2.16 2 2 0 0 0-1.25-2.35c1.07-.49 3.33 1.1 3.33 1.1-.48-1.88-3-2.06-3-2.06.52-.63 2.21-.14 2.21-.16A2.74 2.74 0 0 0 18.9 10a1.62 1.62 0 0 0-.54-1.18 1.45 1.45 0 0 0-.59 1 3.31 3.31 0 0 0-3-1.13s1.4.45 1.66 1.53a2.75 2.75 0 0 0-3.05 1.19 3.4 3.4 0 0 1 2.9-.02z"/><path class="cls-1" d="M21.07 30l-.11.08.05.05.11-.07zM21.32 30.28l-.06-.07-.1.08a.71.71 0 0 1-.15-.15 8.33 8.33 0 0 1-5.62 1.25 5.86 5.86 0 0 1-4.33-3 1.37 1.37 0 0 1-.34.19 6.17 6.17 0 0 0 4.65 3.17 8.33 8.33 0 0 0 5.87-1.32l-.07-.05zM21.26 30.21l-.08-.21h-.06zM10.73 17.87c0 1.52.9 2.74 1.94 2.72s1.88-1.26 1.86-2.78-.89-2.75-1.94-2.73-1.88 1.26-1.86 2.79zm2.55-.87a.58.58 0 1 1-.58-.58.57.57 0 0 1 .58.58zM10.72 28.55v-.08a1.19 1.19 0 0 1-.25.13 1.35 1.35 0 0 0 .25-.05zM10.67 28.24v.09l.26-.15.09.17a1.47 1.47 0 0 0 .3-.33.18.18 0 0 0-.07-.25.18.18 0 0 0-.25.06 1 1 0 0 1-.78.43.18.18 0 0 0-.18.18.18.18 0 0 0 .16.18h.14a1.19 1.19 0 0 1-.08-.17zM10.43 28.59z"/><path class="cls-1" d="M10.68 28.46l.08-.05v-.08h-.07zM9.58 24.05c-.88-1.23-2.32-1.58-3.07-1s-.78 2 .11 3.23S8.94 28 9.7 27.46s.76-2.18-.12-3.41z"/></svg>