<svg xmlns="http://www.w3.org/2000/svg" viewBox="0 0 329.78 87.49"><defs><style>.cls-1{fill:#c85c00;}.cls-2{fill:#575c00;}</style></defs><title>Santana-Grill-logo</title><g id="Layer_2" data-name="Layer 2"><g id="Layer_1-2" data-name="Layer 1"><path class="cls-1" d="M328.19,8.27a53.33,53.33,0,0,0-2.36,7.5l-1,.1c-1.69-2.61-3.94-4.58-7.41-4.58-3,0-4.92,1.62-4.92,4.07,0,7.38,17.26,5.53,17.26,18.17,0,8-7.13,13.84-17,13.84a27.84,27.84,0,0,1-10.87-2.29,68.22,68.22,0,0,0,1.91-8.26l1.18-.1c2,3,4.63,5.47,8.78,5.47,3.58,0,5.89-1.8,5.89-4.58,0-7.46-17.25-5.8-17.25-18.36,0-7.84,6.38-13.21,15.8-13.21A23.74,23.74,0,0,1,328.19,8.27Zm-8.5,33.87c1.17-.58,4.37-2.65,4.37-6.48,0-4.14-3.81-6.3-6.95-7.69-5.77-2.56-10.54-4.85-10.54-10.95,0-2.29.41-5.12,2.31-7.08a10.74,10.74,0,0,0-4.21,8.33c0,6.62,5,8.92,9.8,11,3.31,1.44,7.45,3.46,7.45,7.9A6.13,6.13,0,0,1,319.69,42.14Z"/><path class="cls-2" d="M300.54.7S301,19.91,285.3,26.6c0,0,2.38-11.57,8.07-17.62,0,0-6.52.37-10.44,16.52C282.93,25.5,279.05-1.22,300.54.7Z"/><path class="cls-1" d="M280.11,36.52a81.54,81.54,0,0,0,4.26,9.85c-1.18,0-3.59-.11-6.39-.11-2.58,0-5.72,0-8.06.11a22.35,22.35,0,0,0-1.23-7.57l2-.62c.54,1.85,1.13,3.89,1.44,5.42H275c-.62-2.6-1.79-6-2.64-8.89l-5.09-16.88L264.82,10l-.32-3.13c2-.19,4-.42,5.76-.72a33.21,33.21,0,0,0,1.5,5.75Z"/><path class="cls-1" d="M270.72,38.32l-2,.63-1.24-4.13c-1.33-.06-3.91-.11-6.55-.11s-5.32,0-6.83.11l-1.28,4.24a16.33,16.33,0,0,0-.74,4.74,7.5,7.5,0,0,0,.45,2.8c-1.45-.06-2.91-.11-4.42-.11-1.84,0-3.75,0-5.82.11L242,46a63.26,63.26,0,0,0,4.26-9l8.9-22.71a43.16,43.16,0,0,0,2.3-7.1c1.75,0,4.36-.19,7-.45l.32,3.15-2.46.27c.84,2.48,1.9,5.68,2.63,8.15l4.87,17.06C270.1,36.17,270.41,37.21,270.72,38.32Zm-4.6-8.62-4.77-16.37L255.81,29.7c1.28.06,3.25.11,5.15.11S264.77,29.76,266.12,29.7Z"/><path class="cls-1" d="M238.32,7.38c-.68,3.26-.4,10.77-.4,10.77V36.51a69.54,69.54,0,0,0,1,11.09c-1.23-.06-3-.06-4.74-.06s-3.5,0-4.73.06c-1.89-3-2.73-4.28-3.72-5.58L212.55,24.56c-1-1.3-2.34-3-2.79-3.84l1.56-.95.89,1.16,13,17c1.62,2.15,3.72,4.47,4.89,6.42H233c-1.56-2.28-3.88-5.23-5.72-7.66l-12.91-17a74.74,74.74,0,0,0-6.29-7.63,4.09,4.09,0,0,0-3.67-1.45H202.8a1.85,1.85,0,0,1,1.28.44l-2.39.1c-.45-.44-1.18-.63-2.3.48H199l1.17-4.31c1.85.06,4.76.06,7.07.06,2.78,0,5.24-.06,7.32-.17a41,41,0,0,0,3.76,6.29l10,14c.62.85,2.52,3.53,2.86,4.15-.13-.95-.18-2.56-.23-4.15V18.15a28.74,28.74,0,0,0-1.69-10.77c1.41.06,3,.06,4.6.06S237,7.44,238.32,7.38Z"/><path class="cls-1" d="M211.65,18.41l-1.69,1c0,.84,0,1.54,0,2.94v13.8a32.81,32.81,0,0,0,1.85,11.26c-1.31-.06-3.11-.12-4.74-.12s-3.77.06-4.89.12c.66-3,.78-6.2.78-11.32V17.33a29.43,29.43,0,0,0-.38-6.23A2.13,2.13,0,0,0,202,9.93l2.55-.11A98.73,98.73,0,0,1,211.65,18.41Z"/><path class="cls-1" d="M192.64,36.52a80.1,80.1,0,0,0,4.25,9.85c-1.18,0-3.58-.11-6.37-.11-2.58,0-5.72,0-8.07.11a22.35,22.35,0,0,0-1.23-7.57l-.62-2.08,2-.61c.65,2.2,1.61,5.34,2.05,7.49h2.81c-.62-2.6-1.8-6-2.64-8.89l-5.09-16.88L177.36,10,177,6.88c2-.19,4-.42,5.75-.72a33.21,33.21,0,0,0,1.5,5.75Z"/><path class="cls-1" d="M182.64,37l-2,.63L180,35.53c-1.35-.06-3.92-.12-6.56-.12s-5.32.06-6.82.12l-1.28,4.34a17.19,17.19,0,0,0-.75,4.86A8.1,8.1,0,0,0,165,47.6c-1.45-.06-2.91-.12-4.41-.12-1.86,0-3.77,0-5.84.12l-.21-.65a65.29,65.29,0,0,0,4.25-9.22l8.91-23.28A44.85,44.85,0,0,0,170,7.17c1.75,0,4.36-.2,7-.46l.32,3.23-2.46.28c.83,2.54,1.9,5.81,2.62,8.35l4.88,17.49C182.47,36.34,182.55,36.65,182.64,37Zm-4-6.69L173.89,13.5l-5.54,16.78c1.28,0,3.24.11,5.13.11S177.31,30.33,178.64,30.28Z"/><path class="cls-1" d="M160.38,7.3a75.8,75.8,0,0,0-1.77,7.78l-1.16.12c-1.33-2.71-4.66-3-7.92-3h-2.38c-.18,1.4-.23,4.9-.23,6.37V36.69c0,5.24.34,8.94,1.05,10.91-1.55-.12-3.86-.17-6.19-.17s-4.76,0-6.65.17a70.9,70.9,0,0,0,.79-11V18.46c0-1.41,0-5-.18-6.31h-1.66c-3.72,0-7.53.56-10.35,3.46L122.62,15A67.38,67.38,0,0,0,124,7.3c4.94.22,7.54.27,10.47.27h14C152.85,7.57,156.94,7.47,160.38,7.3ZM138.92,32.66V17.37a26.67,26.67,0,0,0-.2-7h-2.4a47.81,47.81,0,0,1,.6,7.05V32.66c-.12,2.46-.23,3.9-.45,7.86h2.35A46.9,46.9,0,0,0,138.92,32.66Z"/><path class="cls-1" d="M117.86,7.38a89.84,89.84,0,0,0-.94,10.54v18a66.59,66.59,0,0,0,1,10.85c-1.22,0-3,0-4.73,0s-3.51,0-4.73,0c-1.89-2.92-2.74-4.19-3.73-5.45L91.55,24.19a43.07,43.07,0,0,1-2.78-3.76l1.55-.92.89,1.13,13,16.68c1.62,2.11,3.73,4.38,4.89,6.28H112c-1.57-2.22-3.89-5.12-5.74-7.49L93.39,19.48A73.12,73.12,0,0,0,87.09,12a4.15,4.15,0,0,0-3.67-1.41H82.33a1.94,1.94,0,0,1,1.3.43l-2.4.1c-.46-.44-1.18-.62-2.31.47h-.44l1.18-4.22c1.84,0,4.75,0,7.06,0,2.78,0,5.25,0,7.32-.16a39.32,39.32,0,0,0,3.76,6.15l10,13.65c.62.84,2.52,3.46,2.87,4.07a16.87,16.87,0,0,0-.77-4.07V17.92a19.63,19.63,0,0,0-1.15-10.54c1.41,0,3,0,4.59,0S116.5,7.43,117.86,7.38Z"/><path class="cls-1" d="M90.65,18.41,89,19.4c-.06.84-.06,1.54-.06,2.94v13.8A32.59,32.59,0,0,0,90.78,47.4c-1.32-.06-3.12-.12-4.75-.12s-3.77.06-4.89.12c.66-3,.78-6.2.78-11.32V17.33a31.28,31.28,0,0,0-.36-6.23A2.28,2.28,0,0,0,81,9.93l2.56-.11A99.67,99.67,0,0,1,90.65,18.41Z"/><path class="cls-1" d="M72.18,36.52a80.1,80.1,0,0,0,4.25,9.85c-1.18,0-3.58-.11-6.38-.11-2.58,0-5.72,0-8.07.11a22.33,22.33,0,0,0-1.22-7.57l2-.62c.54,1.85,1.13,3.89,1.44,5.42H67c-.62-2.6-1.79-6-2.64-8.89L59.3,17.83,56.89,10l-.32-3.13c2-.19,4-.42,5.76-.72a32.33,32.33,0,0,0,1.5,5.75Z"/><path class="cls-1" d="M62.79,39.12l-2,.63-1.24-4.22c-1.34-.06-3.91-.12-6.55-.12s-5.33.06-6.83.12l-1.28,4.34a17.19,17.19,0,0,0-.75,4.86,8.1,8.1,0,0,0,.45,2.87c-1.45-.06-2.91-.12-4.41-.12-1.85,0-3.77,0-5.82.12L34.1,47a66.43,66.43,0,0,0,4.26-9.22l8.9-23.28a44,44,0,0,0,2.29-7.28c1.76,0,4.36-.2,7-.46l.32,3.23-2.46.28c.83,2.54,1.9,5.81,2.63,8.35l4.87,17.49C62.15,36.9,62.47,38,62.79,39.12Zm-4.61-8.84L53.42,13.5,47.88,30.28c1.28,0,3.25.11,5.15.11S56.84,30.33,58.18,30.28Z"/><path class="cls-1" d="M28.23,2.58a62,62,0,0,0-2.52,8.63l-1.08.12c-1.81-3-4.22-5.27-8-5.27-3.25,0-5.29,1.85-5.29,4.67,0,8.51,18.54,6.37,18.54,20.93,0,9.25-7.65,15.94-18.22,15.94A28.33,28.33,0,0,1,0,45a84.65,84.65,0,0,0,2.05-9.51l1.27-.12c2.16,3.42,5,6.3,9.44,6.3,3.85,0,6.32-2.07,6.32-5.27C19.09,27.77.55,29.68.55,15.22.55,6.19,7.42,0,17.53,0A24.12,24.12,0,0,1,28.23,2.58Zm-9.14,39a8.67,8.67,0,0,0,4.68-7.46c0-4.77-4.08-7.26-7.45-8.85C10.13,22.31,5,19.68,5,12.65,5,10,5.43,6.75,7.47,4.5A12.64,12.64,0,0,0,3,14.08C3,21.71,8.31,24.35,13.48,26.8c3.56,1.66,8,4,8,9.1A7.28,7.28,0,0,1,19.09,41.57Z"/><path class="cls-2" d="M328.31,54.25s8.1,10.19-279.91,8.55c0,0,43.79-5.27,148.28-6.56,0,0-119.75-2-191.7,5.21C5,61.45-66.06,46.22,328.31,54.25Z"/><path class="cls-2" d="M311.42,60.27s.06,2.82-2.24,3.8a6.34,6.34,0,0,1,1.19-2.58s-1,0-1.54,2.42C308.83,63.91,308.27,60,311.42,60.27Z"/><path class="cls-2" d="M202.71,68.05c.08.32.23.74.42,1.27s.42,1.12.69,1.76.53,1.32.83,2,.59,1.42.88,2.11l.83,2c.26.62.49,1.16.69,1.61h.13l1-2.49c.41-1,.81-2,1.23-3.07s.79-2,1.14-3,.6-1.67.75-2.22h2.63c-.3.53-.66,1.24-1.07,2.11S212,72,211.57,73l-1.4,3.23c-.49,1.12-.94,2.18-1.35,3.19l-1,2.28h-2.11l-1.12-2.34c-.48-1-1-2-1.5-3.16s-1-2.18-1.5-3.21-.93-2-1.35-2.86-.77-1.58-1.05-2.11Z"/><path class="cls-2" d="M221.63,67.08a7.61,7.61,0,0,1,2.7.43,5.73,5.73,0,0,1,1.9,1.1,4.51,4.51,0,0,1,1.11,1.52,4.17,4.17,0,0,1,.37,1.7,4.11,4.11,0,0,1-.1,1,4.42,4.42,0,0,1-.23.7l-1.44.24-2.06.29c-.76.1-1.54.19-2.35.26s-1.58.13-2.3.15l-2.47.18a5.55,5.55,0,0,0,.49,2.31,4.47,4.47,0,0,0,1.18,1.56,4.58,4.58,0,0,0,1.71.89,7.46,7.46,0,0,0,2.1.28,9.74,9.74,0,0,0,2.48-.31,6.54,6.54,0,0,0,1.91-.75,1.87,1.87,0,0,1,.37.6,1.65,1.65,0,0,1,.17.63,4.27,4.27,0,0,1-.94.58,11,11,0,0,1-1.39.53,10.22,10.22,0,0,1-1.69.39,11.48,11.48,0,0,1-1.86.15,7.32,7.32,0,0,1-5.46-1.94,7.08,7.08,0,0,1-1.91-5.22,7.86,7.86,0,0,1,.47-2.72,6.45,6.45,0,0,1,1.44-2.34,7.1,7.1,0,0,1,2.41-1.62A8.65,8.65,0,0,1,221.63,67.08Zm-4.84,6.13,1.66,0,2.38-.12c.82,0,1.59-.11,2.3-.18a8.44,8.44,0,0,0,1.44-.22,1.39,1.39,0,0,0,.24-.89,2.69,2.69,0,0,0-1.07-2.22,4,4,0,0,0-2.59-.85,5.11,5.11,0,0,0-1.7.23,7.5,7.5,0,0,0-1.07.45,3.26,3.26,0,0,0-.58.73,7.77,7.77,0,0,0-.5,1,6.29,6.29,0,0,0-.37,1.11A4.28,4.28,0,0,0,216.79,73.21Z"/><path class="cls-2" d="M244.16,67a1.87,1.87,0,0,1,.16.93,2.58,2.58,0,0,1-.16.92L241,68.49v.12a4.26,4.26,0,0,1,1.44,1.32A3.46,3.46,0,0,1,243,72a3.67,3.67,0,0,1-.44,1.73,4.49,4.49,0,0,1-1.28,1.49,6.75,6.75,0,0,1-2.08,1,8.91,8.91,0,0,1-2.79.4,10.2,10.2,0,0,1-2.11-.21,6.17,6.17,0,0,1-1.54-.47,1.89,1.89,0,0,0-.75.64,1.29,1.29,0,0,0-.27.71c0,.47.45.84,1.35,1.1a29.87,29.87,0,0,0,4.33.78c1.09.14,2,.3,2.9.48a9.45,9.45,0,0,1,2.13.72,3.78,3.78,0,0,1,1.32,1.07,2.63,2.63,0,0,1,.45,1.57,3,3,0,0,1-.49,1.61,4.7,4.7,0,0,1-1.5,1.43,9.11,9.11,0,0,1-2.56,1,15.38,15.38,0,0,1-3.63.38,16.68,16.68,0,0,1-3-.25,9.62,9.62,0,0,1-2.32-.71,4.39,4.39,0,0,1-1.52-1.08,2,2,0,0,1-.54-1.36A2.46,2.46,0,0,1,229.79,82a.51.51,0,0,1,.34-.09,3.16,3.16,0,0,1,.51,0,3,3,0,0,1,.55.15,2,2,0,0,1,.46.22,2,2,0,0,0-.54.54,1.21,1.21,0,0,0-.2.69,1.5,1.5,0,0,0,.33.91,3,3,0,0,0,1,.79,6.55,6.55,0,0,0,1.75.56,14.45,14.45,0,0,0,2.56.2,7.63,7.63,0,0,0,3.63-.67c.8-.45,1.2-1,1.2-1.58s-.48-1.22-1.45-1.59a21.66,21.66,0,0,0-4.16-1,25.9,25.9,0,0,1-2.89-.57,8.14,8.14,0,0,1-1.88-.69,2.58,2.58,0,0,1-1-.85,1.82,1.82,0,0,1-.31-1.05,1.94,1.94,0,0,1,.66-1.41,10.23,10.23,0,0,1,1.34-1.11,4.49,4.49,0,0,1-1.61-1.37,3.5,3.5,0,0,1-.66-2.15,4,4,0,0,1,.56-2.1,5,5,0,0,1,1.52-1.57,7.44,7.44,0,0,1,2.25-1,11.12,11.12,0,0,1,2.77-.34,13.37,13.37,0,0,1,2,.14c.58.08,1.16.15,1.74.19.88,0,1.6-.06,2.15-.11A16.27,16.27,0,0,0,244.16,67Zm-8.63,1.62a4.66,4.66,0,0,0-2.79.74,2.8,2.8,0,0,0-1,2.45,3.05,3.05,0,0,0,.28,1.31,3.12,3.12,0,0,0,.82,1.06,4,4,0,0,0,1.3.73,5.43,5.43,0,0,0,1.79.27,4.31,4.31,0,0,0,2.82-.78,2.76,2.76,0,0,0,.93-2.24,3.39,3.39,0,0,0-1-2.57A4.34,4.34,0,0,0,235.53,68.58Z"/><path class="cls-2" d="M257.57,75.94v2.23q0,.93,0,1.62c0,.46,0,.85.07,1.18a5,5,0,0,0,.13.86l-2.74.24a5.5,5.5,0,0,1-.16-1.15c0-.43-.05-.81-.07-1.14h-.1a7.44,7.44,0,0,1-.85.79,7,7,0,0,1-1.18.75,7.88,7.88,0,0,1-1.51.55,7,7,0,0,1-1.84.22,5,5,0,0,1-3.15-1,3.26,3.26,0,0,1-1.28-2.74,3.75,3.75,0,0,1,.57-2.1,4.14,4.14,0,0,1,1.76-1.4,10.7,10.7,0,0,1,3-.79,35.69,35.69,0,0,1,4.38-.28,13.16,13.16,0,0,0-.12-1.91,3,3,0,0,0-.51-1.35,2.31,2.31,0,0,0-1.06-.79,4.74,4.74,0,0,0-1.73-.26,9.39,9.39,0,0,0-2.4.32,14.89,14.89,0,0,0-2.43.85A1.58,1.58,0,0,1,246,70a2.12,2.12,0,0,1-.17-.78,28.2,28.2,0,0,1,3.14-1.07,13.3,13.3,0,0,1,3.49-.45,5.49,5.49,0,0,1,3.84,1.19c.86.79,1.3,2.16,1.3,4.12Zm-9.77,1.32a2.26,2.26,0,0,0,.26,1.1,2.47,2.47,0,0,0,1.54,1.21,3.48,3.48,0,0,0,1,.15,5,5,0,0,0,2.38-.57,4.56,4.56,0,0,0,1.64-1.34V75l-.92-.15a6.48,6.48,0,0,0-1-.09,17.89,17.89,0,0,0-2.4.16,4.35,4.35,0,0,0-1.7.54,2.33,2.33,0,0,0-.62.88A2.51,2.51,0,0,0,247.8,77.26Z"/><path class="cls-2" d="M271,81.73a4.63,4.63,0,0,0,.13-.82c0-.39.06-.86.08-1.41s0-1.15.05-1.81,0-1.33,0-2V74.39a8.53,8.53,0,0,0-.67-4A2.71,2.71,0,0,0,268,69.24a5.37,5.37,0,0,0-2.58.65,7.11,7.11,0,0,0-2,1.56v2.17c0,.75,0,1.46,0,2.13s0,1.34,0,2,0,1.29.07,2,.08,1.34.12,2h-3.42q.18-1.7.21-3.48c0-1.2,0-2.33,0-3.4v-.64c0-.79,0-1.72-.05-2.81s-.13-2.15-.26-3.18l3.17-.32c0,.35,0,.7,0,1.07s0,.71,0,1h.14a12.09,12.09,0,0,1,1-.79,7.78,7.78,0,0,1,1.31-.76,8.11,8.11,0,0,1,1.62-.56,7.89,7.89,0,0,1,1.94-.22q2.68,0,3.78,1.44a6.74,6.74,0,0,1,1.1,4.18v3.82c0,.64,0,1.26,0,1.84s0,1.13.07,1.62.08.87.12,1.16Z"/><path class="cls-2" d="M296,67a2,2,0,0,1,.15.93,2.61,2.61,0,0,1-.15.92l-3.22-.32v.12a4.26,4.26,0,0,1,1.44,1.32,3.46,3.46,0,0,1,.63,2.08,3.8,3.8,0,0,1-.44,1.73,4.65,4.65,0,0,1-1.29,1.49,6.75,6.75,0,0,1-2.08,1,8.91,8.91,0,0,1-2.79.4,10.2,10.2,0,0,1-2.11-.21,6.17,6.17,0,0,1-1.54-.47,1.89,1.89,0,0,0-.75.64,1.29,1.29,0,0,0-.27.71c0,.47.45.84,1.36,1.1a29.34,29.34,0,0,0,4.33.78c1.08.14,2,.3,2.89.48a9.45,9.45,0,0,1,2.13.72,3.78,3.78,0,0,1,1.32,1.07,2.63,2.63,0,0,1,.45,1.57,3,3,0,0,1-.49,1.61A4.5,4.5,0,0,1,294,86.1a9.11,9.11,0,0,1-2.56,1,15.38,15.38,0,0,1-3.63.38,16.77,16.77,0,0,1-3-.25,9.76,9.76,0,0,1-2.32-.71,4.39,4.39,0,0,1-1.52-1.08,2,2,0,0,1-.54-1.36A2.46,2.46,0,0,1,281.59,82a.51.51,0,0,1,.34-.09,3.08,3.08,0,0,1,.51,0,3.35,3.35,0,0,1,.56.15,1.88,1.88,0,0,1,.45.22,2.31,2.31,0,0,0-.54.54,1.29,1.29,0,0,0-.2.69,1.45,1.45,0,0,0,.34.91,2.91,2.91,0,0,0,1,.79,6.63,6.63,0,0,0,1.76.56,14.33,14.33,0,0,0,2.55.2,7.67,7.67,0,0,0,3.64-.67c.8-.45,1.2-1,1.2-1.58s-.49-1.22-1.46-1.59a21.47,21.47,0,0,0-4.16-1,25.9,25.9,0,0,1-2.89-.57,8.32,8.32,0,0,1-1.88-.69,2.58,2.58,0,0,1-1-.85,1.9,1.9,0,0,1-.31-1.05,1.94,1.94,0,0,1,.66-1.41,10.23,10.23,0,0,1,1.34-1.11,4.49,4.49,0,0,1-1.61-1.37,3.5,3.5,0,0,1-.66-2.15,4,4,0,0,1,.56-2.1,5,5,0,0,1,1.52-1.57,7.67,7.67,0,0,1,2.25-1,11.14,11.14,0,0,1,2.78-.34,13.23,13.23,0,0,1,2,.14c.58.08,1.16.15,1.75.19.87,0,1.59-.06,2.14-.11A16.45,16.45,0,0,0,296,67Zm-8,1.62a4.66,4.66,0,0,0-2.79.74,2.8,2.8,0,0,0-1,2.45,3.05,3.05,0,0,0,.28,1.31,3.25,3.25,0,0,0,.82,1.06,4.16,4.16,0,0,0,1.3.73,5.43,5.43,0,0,0,1.79.27,4.36,4.36,0,0,0,2.83-.78,2.76,2.76,0,0,0,.93-2.24,3.4,3.4,0,0,0-1-2.57A4.34,4.34,0,0,0,288,68.58Z"/><path class="cls-2" d="M306.59,67.46a4.86,4.86,0,0,1-.26,1.08,2.23,2.23,0,0,1-.69,1.06,2.77,2.77,0,0,0-.54-.29,2.51,2.51,0,0,0-.88-.12,3.22,3.22,0,0,0-1.67.49,1.65,1.65,0,0,0-1,1.34v4.37a3.59,3.59,0,0,0-.34,2c0,.69.06,1.37.1,2s.1,1.28.17,2.29h-3.31c.11-1.61.17-2.79.18-4a16.09,16.09,0,0,1,.27-3.45v-.8a9.91,9.91,0,0,1-.3-2.58c0-.9-.11-2-.22-3.37l3-.32c0,.35,0,.72,0,1.11s0,.77-.06,1.69h.11A3.74,3.74,0,0,1,303,67.77a4.6,4.6,0,0,1,2.23-.57A3.59,3.59,0,0,1,306.59,67.46Z"/><path class="cls-2" d="M308.39,73.47a2.09,2.09,0,0,0,.21-1.29c0-.54,0-1.12,0-1.71s0-1.17-.09-1.72-.1-1-.17-1.68h3.59c-.07.71-.12,1.14-.15,1.7s-.07,1.14-.09,1.74,0,1.19-.05,1.75a2,2,0,0,1-.29,1.3v1c.27.29.28.75.29,1.38s0,1.28.05,2,0,1.35.09,2,.08,1.09.15.89h-3.59c.07.22.12-.18.16-.69s.06-1.06.08-1.67,0-1.24.05-1.91a5.42,5.42,0,0,0-.21-2Z"/><path class="cls-2" d="M315.23,68.22c.52-.29.51-.72.5-1.27s0-1.14,0-1.76,0-1.23-.07-1.81-.06-1-.08-1.39l.75-.07c.28,0,.57,0,.86-.05a7.57,7.57,0,0,1,.83,0c.26,0,.49,0,.69.08,0,.48,0,1.09,0,1.82s0,1.57-.05,2.5,0,1.92-.05,3a10.16,10.16,0,0,1-.39,3.28V77a4.48,4.48,0,0,1,.47,1.68,1.43,1.43,0,0,0,.41.88,1.26,1.26,0,0,0,.85.29,7,7,0,0,0,1.41-.15,2.47,2.47,0,0,1,.1.55.87.87,0,0,1-.1.55,6.57,6.57,0,0,1-1.4.43,8.69,8.69,0,0,1-1.89.21,2.44,2.44,0,0,1-1.64-.55,8.1,8.1,0,0,1-1.15-2.07Z"/><path class="cls-2" d="M323.05,67.38c0-.32,0-.77,0-1.35s0-1.22,0-1.88,0-1.3-.06-1.92-.07-1.11-.09-1.48l.78-.07q.43,0,.9-.06a8.13,8.13,0,0,1,.86,0,5.94,5.94,0,0,1,.71.09c0,.51,0,1.15,0,1.93s0,1.67-.05,2.66,0,2-.05,3.18,0,2.3,0,3.49v4.75a8,8,0,0,0,.06,1.79,1.45,1.45,0,0,0,.42.93,1.29,1.29,0,0,0,.88.31,7,7,0,0,0,1.47-.16,3.58,3.58,0,0,1,.1.59,1,1,0,0,1-.1.58,6.84,6.84,0,0,1-1.46.46,9.27,9.27,0,0,1-2,.22,2.48,2.48,0,0,1-1.71-.59,2.8,2.8,0,0,1-.63-2.2Z"/></g></g></svg>