<svg data-name="Layer 1" xmlns="http://www.w3.org/2000/svg" viewBox="0 0 873.82 105.35"><path d="M871.23 67H860.4v8h10.83a2.59 2.59 0 0 0 2.59-2.59v-2.79a2.59 2.59 0 0 0-2.59-2.62z" fill="#ededed"/><path d="M860.4 72.64h13.41a2.26 2.26 0 0 0 0-.26v-2.76a2.17 2.17 0 0 0 0-.26H860.4zM857.54 51h3.33a2.4 2.4 0 0 1 2.4 2.4v12.35h-5.73V51z" fill="#57585e"/><path d="M856.39 52.53c-2.25-7.77-28.17-25-63.45-22.61-2.78-3.43-6.72-9.14-10-14A28.58 28.58 0 0 0 765 3.82c-19.85-4.12-60.31-9.08-90.2 9.87-42.29 26.82-43.48 43.5-45.9 49.54a43.62 43.62 0 0 1-7.23 11.34L633.35 81h59.75l3.9 5.19h105.07l12.2-30.82 26.46-4z" fill="#ede5a5"/><path fill="#f7efc4" d="M695.66 84.41l1.35 1.78h105.06l6.78-17.13.07-1.34H695.19l.47 16.69z"/><path d="M728.31 84.26V4.54C763.06 4.6 771.92 10.22 778 16c5.82 5.5 12.85 21.12 13.47 22.51v44.4h1V38.17c-.31-.7-7.54-17.08-13.76-23s-15.37-11.7-50.93-11.7c-17.92 0-32.9 3.6-45.79 11s-23.59 18.55-32.83 34.11l.89.53c18-30.3 42.53-44.48 77.21-44.62v79.77zM853.78 48.45c-20-11.36-49.69-13-57.45-12.33a4 4 0 0 1-1.87-2.91 6.17 6.17 0 0 1 .54-3.41l-1.16.06a7.16 7.16 0 0 0-.45 3.5 5.1 5.1 0 0 0 2.5 3.73l.15.09h.17c7.68-.7 39.43 1 59.27 13.53a15 15 0 0 0-1.7-2.26z" fill="#c6ba7d"/><path fill="#57585e" d="M698.81 81.87h103.26v4.32H698.81z"/><path d="M849.47 52.3l-15.47.05-19.71 3-11.61 29.3c5.1 5.19 11.83 7.7 16 7.7s26.59-6.68 31.89-8.09 11.45-6.08 12.75-8.58zM685.27 56.27c-.92-.52-18.35-5.81-19.07-6.27s-16.26 6.27-16.26 6.27-8.28 12.14-10.41 14c-1 .9-4.12 5.67-7 10.31l-4.31-2.37-.77 5.79h11.44l2 4H649s19.6 8 30.08 8.19c7.93.18 14.82-6.94 17.7-10.4l.25.33h.92l-1.86-13.06s-9.9-16.27-10.82-16.79z" fill="#181a1c"/><path d="M636.59 62.54h-3.28a2.12 2.12 0 0 1-2.12-2.13v-8.28a2.12 2.12 0 0 1 2.12-2.13h7.6a1.24 1.24 0 0 1 1.1 1.8z" fill="#f26f75"/><path d="M638.06 51.07h-4.74a.83.83 0 0 0 0 1.66h4.74a.83.83 0 1 0 0-1.66z" fill="#fcd9dc"/><path fill="#ed1c24" d="M641.31 55.37h.35v16.26h-.35z"/><path fill="#ed1c24" d="M633.35 63.33h16.26v.35h-16.26z"/><circle cx="668.58" cy="81.87" r="23.48" transform="rotate(-45 668.583 81.874)" fill="#57585e"/><circle cx="668.58" cy="81.87" r="18.64" transform="rotate(-45 668.583 81.874)" fill="#ededed"/><circle cx="668.58" cy="81.87" r="14.15" fill="#89b5e1"/><path d="M668.58 76.46a5.41 5.41 0 1 0 5.42 5.41 5.41 5.41 0 0 0-5.42-5.41z" fill="#a0cdee"/><path d="M669.82 69.1h-2.47a1.15 1.15 0 1 0 0 2.3h2.47a1.15 1.15 0 0 0 0-2.3zM660.43 72l-1.75 1.75a1.14 1.14 0 0 0 0 1.62 1.15 1.15 0 0 0 1.63 0l1.74-1.75a1.15 1.15 0 1 0-1.62-1.62zM655.81 80.64v2.47a1.15 1.15 0 0 0 2.3 0v-2.47a1.15 1.15 0 0 0-2.3 0zM658.68 90l1.75 1.75a1.14 1.14 0 0 0 1.62 0 1.15 1.15 0 0 0 0-1.63l-1.74-1.75a1.15 1.15 0 1 0-1.63 1.63zM667.35 94.65h2.47a1.15 1.15 0 0 0 0-2.3h-2.47a1.15 1.15 0 1 0 0 2.3zM676.74 91.78l1.75-1.78a1.15 1.15 0 0 0-1.63-1.63l-1.75 1.75a1.17 1.17 0 0 0 0 1.63 1.15 1.15 0 0 0 1.63.03zM681.36 83.11v-2.47a1.15 1.15 0 0 0-2.3 0v2.47a1.15 1.15 0 0 0 2.3 0zM678.49 73.72L676.74 72a1.15 1.15 0 1 0-1.63 1.62l1.75 1.75a1.15 1.15 0 0 0 1.63 0 1.14 1.14 0 0 0 0-1.65z" fill="#32353a"/><circle cx="835.32" cy="81.87" r="23.48" fill="#57585e"/><circle cx="835.32" cy="81.87" r="18.64" fill="#ededed"/><circle cx="835.32" cy="81.87" r="14.15" fill="#89b5e1"/><path d="M835.32 76.46a5.41 5.41 0 1 0 5.41 5.41 5.41 5.41 0 0 0-5.41-5.41z" fill="#a0cdee"/><path d="M836.55 69.1h-2.47a1.15 1.15 0 1 0 0 2.3h2.47a1.15 1.15 0 1 0 0-2.3zM827.16 72l-1.75 1.75a1.14 1.14 0 0 0 0 1.62 1.15 1.15 0 0 0 1.63 0l1.75-1.75a1.14 1.14 0 0 0 0-1.62 1.15 1.15 0 0 0-1.63 0zM822.54 80.64v2.47a1.16 1.16 0 0 0 2.31 0v-2.47a1.16 1.16 0 0 0-2.31 0zM825.41 90l1.75 1.75a1.15 1.15 0 0 0 1.63-1.63L827 88.4a1.15 1.15 0 1 0-1.59 1.6zM834.08 94.65h2.47a1.15 1.15 0 1 0 0-2.3h-2.47a1.15 1.15 0 1 0 0 2.3zM843.48 91.78l1.74-1.78a1.15 1.15 0 0 0 0-1.63 1.14 1.14 0 0 0-1.62 0l-1.75 1.75a1.15 1.15 0 1 0 1.63 1.63zM848.09 83.11v-2.47a1.15 1.15 0 0 0-2.3 0v2.47a1.15 1.15 0 0 0 2.3 0zM845.22 73.72L843.48 72a1.15 1.15 0 0 0-1.63 0 1.14 1.14 0 0 0 0 1.62l1.75 1.75a1.15 1.15 0 1 0 1.62-1.62z" fill="#32353a"/><path d="M667.89 44.36c-14.73 0-19 1.07-28.19 11-2.86 3.09-13.61 17.35-17.11 24.9a2.19 2.19 0 0 0 2 3.1h4.06a16.11 16.11 0 0 0 8.45-2.25 19.48 19.48 0 0 0 8.19-9.3A25.37 25.37 0 0 1 694 81.87v1.33a3 3 0 0 0 3 3.16h1.93a3 3 0 0 0 3-3.14c-.83-18.02-8.6-38.86-34.04-38.86z" fill="#d3c888"/><path d="M617.72 70.25h12.08l-4.71 8.63h-7.37a2.65 2.65 0 0 1-2.65-2.65V72.9a2.65 2.65 0 0 1 2.65-2.65z" fill="#ededed"/><path fill="#57585e" d="M615.08 76h11.58l1.57-2.87h-13.15V76z"/><path d="M809.09 79.49c0-4.26 5-19.62 16-22.82s20.72-1.9 27.61 7.08c5.13 6.69 8.13 12.93 9.29 14.43a.91.91 0 0 0 1.13.24.89.89 0 0 0 .49-.74c.22-3.36 1.11-24-6.51-27.48-8.37-3.88-19.1-7.25-35.92-3.45S794.68 66.34 793 80.58c-.43 5.7 8.55 5.61 10.45 5.61a6.36 6.36 0 0 0 5.64-6.7z" fill="#d3c888"/><path d="M783.39 26.91c-1.24-1.74-2.5-3.57-3.7-5.35a30 30 0 0 0-19.34-12.67 174.25 174.25 0 0 0-28.07-3 2.53 2.53 0 0 0-2.59 2.53v25.69a2.54 2.54 0 0 0 2.54 2.54h46a6.35 6.35 0 0 0 4.95-2.28 6.2 6.2 0 0 0 .21-7.46z" fill="#e1d599"/><path d="M732.23 34.92a.81.81 0 0 1-.81-.81V8.44a.8.8 0 0 1 .8-.81 171.84 171.84 0 0 1 27.81 3 28.51 28.51 0 0 1 18.23 11.93c1.33 2 2.58 3.77 3.72 5.39a4.47 4.47 0 0 1-.18 5.37 4.64 4.64 0 0 1-3.61 1.64z" fill="#695c61"/><path d="M726 8.52A2.53 2.53 0 0 0 723.37 6c-18.08.74-33.35 5-45.45 12.66-.7.44-1.39.88-2.06 1.32a9.14 9.14 0 0 0-3.8 10.48 9 9 0 0 0 8.56 6.2h42.85a2.54 2.54 0 0 0 2.53-2.55z" fill="#e1d599"/><path d="M680.62 34.92a7.3 7.3 0 0 1-6.93-5 7.4 7.4 0 0 1 3.1-8.49l2.06-1.31c11.82-7.5 26.82-11.67 44.59-12.4a.82.82 0 0 1 .84.81v25.58a.81.81 0 0 1-.81.81z" fill="#695c61"/><path d="M711.84 8.73l-2.07.27-4.27 25.92h2zM696.07 34.92h7l4.2-25.46q-3.75.67-7.29 1.62zM760.68 10.73l-.65-.14-1.6-.28-5.25 24.61h2.33zM746.27 34.92h4.67l5.34-25c-1.52-.25-3-.48-4.53-.69z" fill="#847a7e"/><path d="M662.52 28.08l10.05-9.17a10 10 0 0 0 3.13-5.79l-.92.57a198.92 198.92 0 0 0-22.55 16.36 10 10 0 0 0 10.29-1.97z" fill="#695c61"/><path d="M668.59 44a.88.88 0 0 1-.75-.43.86.86 0 0 1 .31-1.18c8-4.7 47.1-4.84 51.53-4.84h65.8c17.54 0 34.22 2.39 44.18 3.82l1.13.16a.87.87 0 0 1 .73 1 .86.86 0 0 1-1 .73l-1.1-.26c-9.92-1.42-26.52-3.8-43.94-3.8h-65.8c-15.91 0-44.47 1-50.66 4.6a.88.88 0 0 1-.43.2z" fill="#ededed"/><path d="M781.82 28.48a13 13 0 0 0 0 10.7h.06a5.36 5.36 0 0 0 5.35-5.35 5.35 5.35 0 0 0-5.35-5.35z" fill="#89b5e1"/><path d="M780.92 36.3a13.86 13.86 0 0 0 .9 2.88h.06a5.36 5.36 0 0 0 5.35-5.35c0 1.31-2.79 2.38-6.31 2.47z" fill="#629abf"/><ellipse cx="739.01" cy="45.24" rx="6.65" ry="3.84" fill="#e1d599"/><path d="M744.15 47h-10.27a1.77 1.77 0 0 1-1.77-1.77 1.77 1.77 0 0 1 1.77-1.77h10.27a1.77 1.77 0 0 1 1.77 1.77 1.78 1.78 0 0 1-1.77 1.77z" fill="#57585e"/><path d="M730 60.12a.69.69 0 0 1-.69-.69v-8.76A.69.69 0 0 1 730 50a.69.69 0 0 1 .69.69v8.76a.69.69 0 0 1-.69.67z" fill="#f7efc4"/><path d="M806.33 58a.85.85 0 0 1-.56-.21.87.87 0 0 1-.1-1.22c.88-1 9.05-10 24.69-10.43a.87.87 0 0 1 0 1.73c-15.15.38-23.08 9.44-23.42 9.82a.86.86 0 0 1-.61.31zM643.12 55.46a.83.83 0 0 1-.6-.25.87.87 0 0 1 0-1.22c2.54-2.55 8.47-8.54 16.67-8.54a.87.87 0 0 1 0 1.73c-7.48 0-13.06 5.63-15.44 8a.86.86 0 0 1-.63.28z" fill="#ede5a5"/><path d="M643.54 38.24l4.21 2.92a.52.52 0 1 0 .59-.85l-4.08-2.83zM646.5 43a.52.52 0 1 0 .59-.85l-4.36-3-.7.77zM645.24 44.77a.49.49 0 0 0 .3.1.54.54 0 0 0 .43-.23.52.52 0 0 0-.14-.72l-4.58-3.17-.68.78z" fill="#c6ba7d"/><path d="M249.8 83.26S248.32 89 235 89s-38.22.63-38.22.63H28.59a2.33 2.33 0 0 1-2.26-1.76 2.3 2.3 0 0 0-1.68-1.7L9.38 82.28s12.81-28.8 13.36-28.6 56.42-3.26 56.42-3.26h144.46s23.88 11.89 24 13.49 2.18 19.35 2.18 19.35z" fill="#181a1c"/><circle cx="56.55" cy="84.33" r="18.41" transform="rotate(-45 56.553 84.335)" fill="#181a1c"/><circle cx="212.56" cy="84.33" r="18.41" transform="rotate(-84.62 212.55 84.333)" fill="#181a1c"/><path d="M252.76 57.11a6.14 6.14 0 0 0-4.76-4.25l-52.66-9.66-19.05-13.9a55.83 55.83 0 0 0-32.92-10.74h-34.76a6.31 6.31 0 0 0-6 4.45L96 44.56H7.24A3.4 3.4 0 0 0 3.84 48v31.9a3 3 0 0 0 2.72 3l18.69 1.63c.8-4.29 2.07-10.27 2.07-10.27l5.43-11.81 7-3.69h22.53l5 2.72s3.68 5.14 3.88 5.38 4.65 14.59 7 21.79l112.51.18c1.6-6.36 4.51-17.65 4.51-17.65l5.43-10.38 6.14-1.16h15.41S233.17 62 233.46 62a48.48 48.48 0 0 1 3.78 4.08s5.44 15.42 5.44 15.81c0 .19.26 2.48.49 4.77 3-.52 5.94-1 8.24-1.4 5.2-11.62 3.06-22.65 1.35-28.15z" fill="#f26f75"/><path d="M236.6 50.77l-41.26-7.57-19.05-13.9a55.83 55.83 0 0 0-32.92-10.74h-34.76a6.31 6.31 0 0 0-6 4.45L96 44.56H7.24A3.4 3.4 0 0 0 3.84 48v2.81z" fill="#f4848d"/><path d="M49.68 84.33a2.14 2.14 0 1 0 2.14 2.14 2.14 2.14 0 0 0-2.14-2.14zM49.68 82a.64.64 0 0 0-.64.63.64.64 0 0 0 .64.64.64.64 0 0 0 .63-.64.63.63 0 0 0-.63-.63zM45.41 85.09a.63.63 0 0 0 .41.8.64.64 0 0 0 .39-1.21.63.63 0 0 0-.8.41zM47 90.1a.63.63 0 1 0-.14-.88.63.63 0 0 0 .14.88zM52.31 90.1a.63.63 0 1 0-.88-.14.62.62 0 0 0 .88.14zM53.94 85.09a.63.63 0 0 0-.8-.41.64.64 0 1 0 .8.41z" fill="#847a7e"/><circle cx="49.68" cy="85.7" r="19.65" fill="#57585e"/><circle cx="49.68" cy="85.7" r="12.25" transform="rotate(-45 49.679 85.702)" fill="#424449"/><circle cx="49.68" cy="85.7" r="10.31" transform="rotate(-45 49.679 85.702)" fill="#ededed"/><path d="M47 94.74l.49-1.18a2 2 0 0 0-.68-2.43l-1.41-1a2.06 2.06 0 0 0-2.53.1l-1 .84A9.43 9.43 0 0 0 47 94.74zM43.63 84.65l.53-1.65a2 2 0 0 0-.87-2.37L42.2 80a9.37 9.37 0 0 0-2 5.75V86l1.27.1a2.05 2.05 0 0 0 2.16-1.45zM57.45 91l-1-.84A2.06 2.06 0 0 0 54 90.1l-1.4 1a2 2 0 0 0-.69 2.43l.49 1.18A9.43 9.43 0 0 0 57.45 91zM57.16 80l-1.09.67a2 2 0 0 0-.88 2.33l.54 1.66a2 2 0 0 0 2.1 1.4L59.1 86a2.18 2.18 0 0 0 0-.25A9.43 9.43 0 0 0 57.16 80zM52.53 78.05l.3-1.24a9.32 9.32 0 0 0-6.31 0l.3 1.24a2 2 0 0 0 2 1.57h1.74a2 2 0 0 0 1.97-1.57z" fill="#32353a"/><circle cx="218.72" cy="85.7" r="19.65" transform="rotate(-13.4 218.676 85.668)" fill="#57585e"/><circle cx="218.72" cy="85.7" r="12.25" transform="rotate(-13.35 218.77 85.716)" fill="#424449"/><circle cx="218.72" cy="85.7" r="10.31" transform="rotate(-13.34 218.775 85.698)" fill="#ededed"/><path d="M216 94.74l.49-1.18a2 2 0 0 0-.68-2.43l-1.41-1a2.06 2.06 0 0 0-2.53.1l-1 .84a9.43 9.43 0 0 0 5.13 3.67zM212.67 84.65l.53-1.65a2 2 0 0 0-.87-2.37l-1.1-.67a9.43 9.43 0 0 0-1.95 5.75v.25l1.27.1a2.07 2.07 0 0 0 2.12-1.41zM226.49 91l-1-.84a2.06 2.06 0 0 0-2.53-.1l-1.41 1a2 2 0 0 0-.68 2.43l.49 1.18a9.43 9.43 0 0 0 5.13-3.67zM226.2 80l-1.1.67a2 2 0 0 0-.87 2.37l.53 1.66a2.07 2.07 0 0 0 2.11 1.4l1.27-.1v-.25A9.43 9.43 0 0 0 226.2 80zM221.57 78.05l.3-1.24a9.32 9.32 0 0 0-6.31 0l.3 1.24a2 2 0 0 0 2 1.57h1.73a2 2 0 0 0 1.98-1.57z" fill="#32353a"/><rect x="131.05" y="52.01" width="9.99" height="5.38" rx="1.59" fill="#c65d67"/><path d="M141.62 53.5h-11.15a1.2 1.2 0 1 0 0 2.4h11.15a1.2 1.2 0 0 0 0-2.4z" fill="#57585e"/><path d="M252.77 57.11l-.14-.39H244a2.72 2.72 0 0 0-2.47 3.85l4.13 9a2.64 2.64 0 0 0 2.4 1.54h6.6a42.87 42.87 0 0 0-1.89-14z" fill="#ede5a5"/><path d="M9.24 50.77h-5.4v15.06l3.39-.44A2.12 2.12 0 0 0 9 63.74l2.29-10.4a2.11 2.11 0 0 0-2.05-2.57z" fill="#db636b"/><path d="M3.84 51.88h5.4a1 1 0 0 1 .78.37 1 1 0 0 1 .19.85L7.93 63.51a1 1 0 0 1-.85.77l-3.24.28z" fill="#ede5a5"/><path d="M2.91 75.47h10.41a5.43 5.43 0 0 1 5.43 5.43v3.17a2.4 2.4 0 0 1-2.4 2.4H2.91A2.91 2.91 0 0 1 0 83.56v-5.18a2.91 2.91 0 0 1 2.91-2.91z" fill="#db636b"/><path d="M95.54 44.56h-1.15c-.21 6.92 1.23 35.41 3 44h1.19c-1.82-8.13-3.27-37.43-3.04-44z" fill="#91363e"/><path d="M76.47 83.26c.63 2 1.24 3.82 1.75 5.35l112.51.18 1.4-5.53z" fill="#db636b"/><path d="M187 42l-.51.28c7.34 13.45 1.41 37 .75 39.47h-60.89c.36-3.86-.35-32.07-.44-35.38l2.48-27.73h-.58l-2.48 27.66c.34 13.22.72 33 .44 35.4H97v.58h90.69l.06-.21c.06-.26 7.07-25.77-.75-40.07z" fill="#91363e"/><path d="M186.2 40.63l-12.1-8.83A52.37 52.37 0 0 0 143 21.67h-11a1.57 1.57 0 0 0-1.56 1.39l-2.4 21.44a1.58 1.58 0 0 0 1.56 1.75l54.74-.1a3.06 3.06 0 0 0 1.86-5.52z" fill="#3d3036"/><path d="M129.67 45.09a.41.41 0 0 1-.4-.46l2.4-21.44a.4.4 0 0 1 .4-.36h11a51.23 51.23 0 0 1 30.4 9.92l12.09 8.82A1.89 1.89 0 0 1 184.4 45l-54.73.11z" fill="#695c61"/><path d="M123 21.67h-14.22a2.85 2.85 0 0 0-2.85 2.84v18.93a2.85 2.85 0 0 0 2.85 2.85h11.87a2 2 0 0 0 1.94-1.74l2.32-20.69a2 2 0 0 0-1.91-2.19z" fill="#3d3036"/><path d="M108.78 45.13a1.69 1.69 0 0 1-1.68-1.69V24.51a1.68 1.68 0 0 1 1.68-1.68H123a.81.81 0 0 1 .79.88l-2.36 20.69a.78.78 0 0 1-.79.7z" fill="#695c61"/><path fill="#847a7e" d="M121.5 22.83h-1.24l-4.88 22.28h1.25l4.87-22.28zM107.89 44.86a1.59 1.59 0 0 0 .89.27h4.48l4.88-22.29h-5.43zM138.77 45.07h5.43l4.8-21.9a52.82 52.82 0 0 0-5.36-.33zM152.25 23.66l-1.2-.21-4.73 21.6h1.25z"/><path d="M183.32 50.78h-2a3.15 3.15 0 0 1-3-2.15l-1.21-3.55h6.21a2.78 2.78 0 0 1 2.79 2.78V48a2.79 2.79 0 0 1-2.79 2.78z" fill="#424449"/><path d="M175.68 35.84v12.51h4.37a4.24 4.24 0 0 0 4.23-4.24v-4a4.23 4.23 0 0 0-4.23-4.23z" fill="#57585e"/><path fill="#717175" d="M175.68 35.84h4.36v12.51h-4.36z"/><path d="M178.53 37.63h-1.7a.51.51 0 0 1-.51-.51.51.51 0 0 1 .51-.52h1.7a.52.52 0 0 1 .52.52.51.51 0 0 1-.52.51z" fill="#9a9b9e"/><path d="M255.05 72.11h-16.3c1.49 4.29 3.19 9.19 3.19 9.41s.35 3.11.58 5.4c1.85-.32 10.88-1.81 10.88-1.81a5.9 5.9 0 0 0 5-5.82v-3.86a3.33 3.33 0 0 0-3.35-3.32z" fill="#ef8990"/><path d="M241.22 79.27c.43 1.29.72 2.16.72 2.25s.35 3.11.58 5.4c1.85-.32 10.88-1.81 10.88-1.81a5.9 5.9 0 0 0 5-5.82v-1.6z" fill="#32353a"/><path d="M73.84 68.54a17 17 0 0 0-16.19-12.08h-14.1a17 17 0 0 0-16.22 12.15L22.74 84.3l3.54.31 4.4-15A13.41 13.41 0 0 1 43.55 60h14.1a13.41 13.41 0 0 1 12.85 9.54l5.77 19 3.66.08zM236.14 62.28c-4.67-3.66-15.1-5-22.62-5-8.54 0-14 1.43-16.08 4.25-3.31 4.37-7 17.2-8.56 27.18l3.52.08c1.57-9.78 5.09-21.55 7.82-25.16 3.3-4.36 27.46-3.59 33.76 1.36 4.87 3.82 6.68 16.41 7.24 21.92l3.47-.59c-.63-6.32-2.62-19.39-8.55-24.04z" fill="#c6545f"/><path d="M117.71 52h-20a.74.74 0 0 0-.74.74.73.73 0 0 0 .74.73h20a.73.73 0 0 0 .73-.73.74.74 0 0 0-.73-.74zM91.06 52h-20a.74.74 0 0 0-.74.74.73.73 0 0 0 .74.73h20a.73.73 0 0 0 .74-.73.74.74 0 0 0-.74-.74zM166.47 52h-20a.74.74 0 0 0-.73.74.73.73 0 0 0 .73.73h20a.73.73 0 0 0 .74-.73.74.74 0 0 0-.74-.74z" fill="#f7acb7"/><path d="M7.92 53.24H5.76a.8.8 0 0 0 0 1.6h2.16a.8.8 0 1 0 0-1.6zM249.67 57.38h-5.87a.81.81 0 0 0 0 1.61h5.87a.81.81 0 1 0 0-1.61z" fill="#ededed"/><path d="M381.21 93.87h172.91a7.51 7.51 0 0 0 7.51-7.51v-13a13.34 13.34 0 0 0-7-11.74c-10.56-5.68-34.17-13.89-56.11-14.15-24.87-13.17-47.2-23.86-63-24.23S386.68 19.15 342 40.66c-10.7 1.48-20 .92-21.83.37s-9.46 9.27-6.3 15.76-.37 13.87-1.86 20.47 4.45 10 11.87 11.94 57.33 4.67 57.33 4.67z" fill="#89ca86"/><path d="M342 40.66c-1 .14-2 .26-3 .37 21.49 3.43 40.26 12.06 75.55 18.17 45.72 7.91 77.45-10.34 83.95-11.74-24.87-13.17-47.2-23.86-63-24.23s-48.82-4.08-93.5 17.43z" fill="#94ce91"/><circle cx="367.57" cy="85.94" r="17.56" transform="rotate(-22.63 367.545 85.94)" fill="#181a1c"/><path d="M501.92 89.86H392.23c-13.46 0-64-12.25-78.65-18.28-.54 1.93-1.11 3.83-1.53 5.68-1.48 6.6 4.45 10 11.87 11.94s57.29 4.67 57.29 4.67h172.91a7.51 7.51 0 0 0 6.64-4z" fill="#73b571"/><path d="M340.85 91.15c17.12 1.43 40.36 2.72 40.36 2.72h2.9a5.72 5.72 0 0 0 .38-1.53c0-.88.64-4.46.64-5.43s-1.84-4.72-1.67-5.83a9.31 9.31 0 0 0-1.32-4.7c-.86-1.61-1.61-3.58-2.6-4.08a19.67 19.67 0 0 1-3.54-2.07c-.91-.77-5.37-3.74-5.37-3.74s-8.58-.62-9-.62-8.93 2.51-8.93 2.51L346.05 73l-5.2 9.15zM527.39 71.44c-.25-.37-9-5.57-9.26-5.69s-10.45-1.11-10.45-1.11L497 71.19 491.29 79l-.49 9.85 1 5H534c.43-1.72 1-4.22 1-4.67 0-.7-2.23-10.21-2.23-10.21s-5.14-7.16-5.38-7.53z" fill="#181a1c"/><circle cx="362.75" cy="87.79" r="17.56" transform="rotate(-9.27 362.685 87.757)" fill="#424449"/><circle cx="362.75" cy="87.79" r="14.13" fill="#f4f4f4"/><path d="M359 88.1a.69.69 0 0 0 .76-.57.7.7 0 0 0-.52-.8l-8.94-2.21a12.47 12.47 0 0 0-.4 2.6zM359.94 90.47a.69.69 0 0 0 .22-.92.7.7 0 0 0-.91-.28l-8.11 4a12.3 12.3 0 0 0 1.34 2.24zM359.88 85.7a.69.69 0 0 0 1.06-.89l-5.51-7.55a12.75 12.75 0 0 0-2 1.73zM359.69 100.25l2.47-8.54a.7.7 0 0 0-1.31-.48l-3.6 8.15a12.63 12.63 0 0 0 2.44.87zM366.22 86.73a.7.7 0 0 0 .24 1.37l9.1-1a12.47 12.47 0 0 0-.4-2.6zM364.65 91.23a.7.7 0 0 0-.87-.37.69.69 0 0 0-.43.85l2.46 8.54a13 13 0 0 0 2.45-.87zM363.45 84.4l.63-9.37a12.67 12.67 0 0 0-2.66 0l.64 9.37a.69.69 0 0 0 .69.65.7.7 0 0 0 .7-.65zM374.36 93.24l-8.11-4a.69.69 0 0 0-.69 1.2l7.46 5a12.3 12.3 0 0 0 1.34-2.2zM364.68 85.75a.69.69 0 0 0 .95 0l6.45-6.75a12.75 12.75 0 0 0-2-1.73l-5.51 7.55a.7.7 0 0 0 .11.93z" fill="#32353a"/><circle cx="362.75" cy="87.95" r="1.04" fill="#57585e"/><path d="M362.75 90.13a.31.31 0 1 1 .31-.3.3.3 0 0 1-.31.3zM360.68 88.63a.31.31 0 1 1 .58-.2.3.3 0 0 1-.2.39.29.29 0 0 1-.38-.19zM361.47 86.19a.3.3 0 1 1 .36.49.31.31 0 0 1-.43-.06.31.31 0 0 1 .07-.43zM364 86.19a.31.31 0 0 1 .07.43.31.31 0 0 1-.43.06.3.3 0 1 1 .36-.49zM364.83 88.63a.3.3 0 0 1-.39.19.31.31 0 0 1-.2-.39.3.3 0 0 1 .39-.19.31.31 0 0 1 .2.39z" fill="#57585e"/><circle cx="512.63" cy="87.79" r="17.56" fill="#424449"/><circle cx="512.63" cy="87.79" r="14.13" fill="#f4f4f4"/><path d="M508.92 88.1a.7.7 0 0 0 .76-.57.71.71 0 0 0-.52-.8l-8.94-2.21a13.18 13.18 0 0 0-.41 2.6zM509.82 90.47a.7.7 0 0 0-.7-1.2l-8.11 4a12.94 12.94 0 0 0 1.35 2.24zM509.75 85.7a.69.69 0 0 0 .95 0 .7.7 0 0 0 .12-.94l-5.51-7.55a12.32 12.32 0 0 0-2 1.73zM509.56 100.25l2.44-8.54a.69.69 0 0 0-1.3-.48l-3.61 8.15a12.87 12.87 0 0 0 2.47.87zM516.09 86.73a.69.69 0 0 0-.51.8.69.69 0 0 0 .75.57l9.11-1a13.18 13.18 0 0 0-.41-2.6zM514.52 91.23a.7.7 0 0 0-.87-.37.71.71 0 0 0-.43.85l2.47 8.54a12.63 12.63 0 0 0 2.44-.87zM513.32 84.4L514 75a11.73 11.73 0 0 0-1.33-.07 11.61 11.61 0 0 0-1.33.07l.63 9.37a.7.7 0 0 0 .7.65.69.69 0 0 0 .65-.62zM524.24 93.24l-8.11-4a.7.7 0 0 0-.7 1.2l7.47 5a12.3 12.3 0 0 0 1.34-2.2zM514.55 85.75a.69.69 0 0 0 1 0L522 79a12.75 12.75 0 0 0-2-1.73l-5.51 7.55a.69.69 0 0 0 .06.93z" fill="#32353a"/><circle cx="512.63" cy="87.95" r="1.04" fill="#57585e"/><path d="M512.63 90.13a.31.31 0 1 1 0-.61.31.31 0 0 1 0 .61zM510.55 88.63a.31.31 0 0 1 .2-.39.3.3 0 0 1 .39.19.31.31 0 0 1-.2.39.3.3 0 0 1-.39-.19zM511.34 86.19a.3.3 0 0 1 .43.06.31.31 0 0 1-.06.43.33.33 0 0 1-.44-.06.31.31 0 0 1 .07-.43zM513.91 86.19a.31.31 0 0 1 .07.43.31.31 0 0 1-.43.06.3.3 0 1 1 .36-.49zM514.7 88.63a.31.31 0 1 1-.58-.2.29.29 0 0 1 .38-.19.3.3 0 0 1 .2.39z" fill="#57585e"/><path d="M550.29 75a1.83 1.83 0 0 0-1.68 2.54l4.2 9.91a1.83 1.83 0 0 0 1.68 1.12h6.82a7.75 7.75 0 0 0 .32-2.17V75zM489.23 48.86h-.56c0 .28.33 28.77-2.36 41h-56.56c3.18-18.67-3-43.27-3-43.52l-.54.13c.06.25 6.2 24.83 3 43.39h-37c-3.11-9.58-6.35-15.67-13.76-25.91-3.73-5.16-9-15.94-8.39-19.69l-.55-.09c-.66 3.95 4.61 14.75 8.49 20.11 7.42 10.25 10.63 16.31 13.75 25.94l.26.19h94.5l.27-.21c2.78-12.2 2.45-41.05 2.45-41.34z" fill="#487545"/><path d="M492.3 50.36a1.42 1.42 0 0 0 .7-2.67c-20.27-10.53-40.35-19.69-54.24-20l-3.76-.13c-3.31-.1-7.06-.22-11.39-.22a180.42 180.42 0 0 0-51.68 7.3 6.79 6.79 0 0 0-4.78 7.51 3.59 3.59 0 0 0 3.4 3.06z" fill="#3d3036"/><path d="M388.36 32.13a181.66 181.66 0 0 1 32.41-3.28 1.79 1.79 0 0 1 1.8 1.49l2.37 13.5a1.8 1.8 0 0 1-1.85 2.16l-32.89-1.42a1.82 1.82 0 0 1-1.71-1.5l-1.55-8.86a1.81 1.81 0 0 1 1.42-2.09zm46 14.3L492 48.86c-18.45-9.58-39.17-19.37-53.31-19.7l-3.81-.11L432 29a1.81 1.81 0 0 0-1.84 2.12l2.44 13.86a1.8 1.8 0 0 0 1.72 1.45zm-52.06-11a1.8 1.8 0 0 0-2.25-1.43q-3.87.95-7.72 2.09A5.35 5.35 0 0 0 368.6 42a2.11 2.11 0 0 0 2 1.8l11 .46a1.81 1.81 0 0 0 1.86-2.12z" fill="#695c61"/><path d="M481.58 48.76l2.09 2.24a1.07 1.07 0 0 1-.79 1.79h-3.1a1.08 1.08 0 0 1-.81-.37l-2.76-3.23z" fill="#424449"/><path d="M470.08 46.34v1.73a2.36 2.36 0 0 0 2.36 2.36h7.89A2.63 2.63 0 0 0 483 47.8a3.14 3.14 0 0 0-1.29-2.54L478.54 43a3.12 3.12 0 0 0-3-.39l-4 1.54a2.38 2.38 0 0 0-1.46 2.19z" fill="#73b571"/><path d="M481.67 45.26L478.54 43a3.12 3.12 0 0 0-3-.39l-1.48.57 2.94 2.08a3.14 3.14 0 0 1 1.29 2.54 2.63 2.63 0 0 1-2.63 2.63h4.72A2.63 2.63 0 0 0 483 47.8a3.14 3.14 0 0 0-1.33-2.54z" fill="#5e995b"/><path d="M436.23 46.51l7.75.33 7.56-15.5a66.43 66.43 0 0 0-7.13-1.61zM455.84 32.65c-.64-.21-1.28-.42-1.92-.61L446.65 47l2.18.09zM414.59 29q-1.14 0-2.28.12l-7.81 16 2.18.09zM409.5 29.33c-2.79.2-5.56.47-8.3.79l-7.12 14.62 7.75.32z" fill="#847a7e"/><path d="M385.63 93.87a23.47 23.47 0 0 0 .8-6.08 23.68 23.68 0 0 0-47.36 0 24.56 24.56 0 0 0 .23 3.21l3 .25a21 21 0 0 1-.3-3.48 20.71 20.71 0 1 1 40.51 6.08zM512.63 64.11a23.69 23.69 0 0 0-22.89 29.76h3.09a20.71 20.71 0 1 1 39.6 0h3.08a23.69 23.69 0 0 0-22.88-29.76z" fill="#5e995b"/><path d="M441.26 53.91c-2.06 0-3.73 1.19-3.73 2.65s1.67 2.64 3.73 2.64S445 58 445 56.56s-1.67-2.65-3.74-2.65z" fill="#73b571"/><path d="M444.65 55.4h-6.77a1.16 1.16 0 0 0 0 2.32h6.77a1.16 1.16 0 0 0 0-2.32z" fill="#5e995b"/><ellipse cx="385.13" cy="53.91" rx="3.73" ry="2.64" fill="#73b571"/><path d="M388.51 52.76h-6.76a1.16 1.16 0 1 0 0 2.31h6.76a1.16 1.16 0 1 0 0-2.31z" fill="#5e995b"/><path d="M327.28 55.88l4.27-5a1.94 1.94 0 0 0-1.47-3.21h-15.6c-1.26 2.85-1.88 6.12-.67 8.86h12a2 2 0 0 0 1.47-.65z" fill="#3d3036"/><path d="M330.83 49.3a.79.79 0 0 0-.75-.48H314a11.25 11.25 0 0 0-.61 6.62h12.39a.84.84 0 0 0 .63-.28l4.27-5a.79.79 0 0 0 .15-.86z" fill="#f26f75"/><path d="M322.28 49.37h-6.8a.9.9 0 0 0 0 1.79h6.8a.9.9 0 1 0 0-1.79z" fill="#fcd9dc"/><path d="M556.77 73a3.15 3.15 0 0 1-1.17-.22l-16.7-6.66a2.52 2.52 0 0 1-1.5-3.06 2.55 2.55 0 0 1 2.44-1.83h.16l12.31.71a6.53 6.53 0 0 1 5.11 3l2 3.2a3.15 3.15 0 0 1-2.65 4.86z" fill="#3d3036"/><path d="M556.77 65.35l2 3.21a2.4 2.4 0 0 1-.06 2.68 2.42 2.42 0 0 1-2.87.86l-16.71-6.65a1.81 1.81 0 0 1-1.06-2.18 1.81 1.81 0 0 1 1.87-1.27l12.3.71a5.77 5.77 0 0 1 4.53 2.64z" fill="#ededed"/><path d="M551.57 69a13.46 13.46 0 0 0-1.57-6.44l-10-.58a1.8 1.8 0 0 0-.77 3.47l12.33 4.9c-.02-.45.01-.91.01-1.35z" fill="#ede5a5"/><path d="M542 62.1l-2-.12a1.8 1.8 0 0 0-.77 3.47l3.82 1.55a13.53 13.53 0 0 0-1.05-4.9z" fill="#f26f75"/><path d="M454.62 49.67l-22.12-.87a.69.69 0 0 0-.71.67.68.68 0 0 0 .66.71l22.13.87a.69.69 0 0 0 0-1.38zM401.12 47.49L379 46.62a.69.69 0 1 0 0 1.38l22.13.87a.68.68 0 0 0 .71-.66.69.69 0 0 0-.72-.72z" fill="#aed8a8"/></svg>