<svg xmlns="http://www.w3.org/2000/svg" viewBox="0 0 2424.22 1704.22"><path fill-rule="evenodd" clip-rule="evenodd" fill="#64725E" stroke="#160A0C" stroke-width=".216" stroke-miterlimit="22.926" d="M40.11 40.11h2384v1664h-2384z"/><path fill-rule="evenodd" clip-rule="evenodd" fill="#160A0C" stroke="#160A0C" stroke-width=".216" stroke-miterlimit="22.926" d="M.11.11h2384v1664H.11z"/><path fill-rule="evenodd" clip-rule="evenodd" fill="none" stroke="#FAD297" stroke-width="2" stroke-linecap="round" stroke-miterlimit="22.926" stroke-dasharray="3.9997,9.9992" d="M339.11 839.92h133.5M409.9 990.77h62.71"/><path fill-rule="evenodd" clip-rule="evenodd" fill="#709222" d="M2069.05 379.93H1528.5l5.39 32.99-5.39 32.99h540.55l-6.86-32.99z"/><path fill-rule="evenodd" clip-rule="evenodd" fill="#C85C00" d="M1654.64 316c-.18-1.16-.37-2.33-.55-3.51-.29 2.21-.63 4.97-1.03 8.28-.49 4.02-.87 7.24-1.13 9.63-.38 3.46-.68 6.3-.89 8.53l-.06.56c-.29 1.71-.66 3.17-1.13 4.39-.72 1.89-1.75 3.45-3.09 4.67l.02.02c-3.04 2.78-7.04 3.4-12.01 1.85l-.13-.06c-1.22-.41-2.37-.83-3.44-1.27-1.2-.49-2.33-.99-3.39-1.51-1.23-.6-2.41-1.24-3.54-1.94-1.14-.7-2.25-1.47-3.34-2.3v-.01c-1.54-1.16-2.84-2.4-3.89-3.71-1.25-1.55-2.19-3.19-2.8-4.91-.56-1.56-.91-3.35-1.06-5.36-.13-1.68-.11-3.55.05-5.61h.01c.15-2.77.32-5.39.52-7.86.17-2.11.45-5.25.85-9.4.37-3.9.73-7.37 1.06-10.42.46-4.26.88-7.96 1.25-11.09.33-2.81.82-6.67 1.47-11.6.61-4.62 1.15-8.6 1.63-11.93l3.36-23.35c.64-4.47 1.19-8.16 1.63-11.06.39-2.53.94-6.01 1.67-10.43.65-4 1.17-7.11 1.56-9.33.44-2.51.92-5.17 1.45-7.96l.06-.31c.52-2.25 1.17-4.18 1.94-5.77 1.11-2.29 2.56-4.07 4.35-5.32 3.16-2.21 7.13-2.84 11.89-1.89v.01c2.12.41 4.11.86 5.97 1.36 1.28.34 2.52.71 3.71 1.12l.41-2.43.21 2.65c.34.12.68.24 1.01.36 1.6.59 3.12 1.21 4.56 1.84 1.39.61 2.92 1.33 4.58 2.16 1.29.65 2.4 1.29 3.34 1.92 1.16.79 2.16 1.6 2.98 2.43.83.83 1.59 1.74 2.28 2.73v.03c.7 1 1.28 2.03 1.75 3.08.42.94.8 1.96 1.12 3.05.3 1.03.54 2.08.72 3.15.18 1.06.32 1.93.42 2.61.02.1.14 1.04.38 2.86l.09.7v.33c0 1-.01 1.11-.01 1.27.01.29.03.84.07 1.62.03.58.09 1.36.19 2.36.06.63.21 2.05.46 4.25l.65 5.96c.17-.47.33-.9.48-1.31.48-1.3 1.42-3.74 2.8-7.32 1.63-4.23 2.55-6.59 2.71-7 .72-1.83 1.6-4 2.6-6.48l.02.01c1.11-3.07 1.86-5.12 2.25-6.14.59-1.54 1.28-3.29 2.09-5.23.73-1.77 1.48-3.35 2.26-4.73.86-1.54 1.77-2.89 2.74-4.05 1.24-1.49 2.63-2.68 4.16-3.58 1.73-1.01 3.56-1.63 5.48-1.85 1.66-.19 3.42-.1 5.27.26 1.51.3 3.15.8 4.94 1.52 1.71.58 3.25 1.12 4.62 1.64l.63.24 3.76 1.49c.33.13.65.27.98.41 3.96 1.66 7.76 3.61 11.4 5.85l-.01.01c1.82 1.12 3.35 2.36 4.59 3.74.57.63 1.07 1.28 1.52 1.96l.51-3.84 4.61-1.63c3.23-1.14 6.93-2.32 11.08-3.54 4.07-1.19 8.28-2.33 12.63-3.41 4.71-1.17 9.37-2.1 13.95-2.8 4.56-.69 9.27-1.18 14.1-1.45 4.12-.25 7.66.8 10.64 3.16 2.64 2.09 4.52 5 5.64 8.75.36.87.68 1.67.95 2.41l.02-.15c.48-2.22 1.17-4.15 2.06-5.76 1.26-2.28 2.93-3.99 5.01-5.13 3.5-1.91 7.45-2.09 11.85-.53l.19.06c.95.36 2.35.92 4.2 1.68 1.47.6 2.85 1.18 4.12 1.74 1.57.69 3.11 1.44 4.61 2.25 1.32.71 2.77 1.57 4.35 2.57 1.81 1.02 3.36 2.16 4.63 3.44 1.43 1.43 2.59 3.06 3.48 4.9.72 1.5 1.34 3.24 1.84 5.21.42 1.65.78 3.65 1.09 5.97.19 1.47.42 3.18.67 5.12l.13.97c.29-1.8.57-3.5.83-5.12 1.16-7.06 2.14-12.88 2.95-17.46l.03-.03c.39-2.14.96-3.99 1.72-5.53 1.15-2.35 2.73-4.1 4.72-5.26 3.28-1.9 7.21-2.09 11.79-.56 1.46.49 2.68.92 3.64 1.31 1.06.42 2.12.9 3.18 1.43l.01-.02c1.12.56 2.36 1.32 3.74 2.27 1.08.75 2.44 1.79 4.07 3.11l.03.03c1.68 1.38 3.03 2.81 4.06 4.28.62.88 1.14 1.8 1.56 2.74l.75-3.25h.01c.48-2.11 1.13-3.9 1.94-5.39 1.3-2.38 3.04-4.09 5.21-5.11 1.99-.94 4.21-1.26 6.64-.95 1.58.2 3.28.69 5.08 1.48v-.01c1.34.55 2.68 1.19 4 1.91 1.32.72 2.6 1.51 3.84 2.36 1.22.84 2.38 1.7 3.49 2.6 1.17.94 2.29 1.92 3.37 2.92l.22.19c3.04 3.04 5.09 6.55 6.14 10.54h.01c1.01 3.83 1.01 7.92.02 12.27-.9 3.85-1.56 6.74-1.99 8.68-.15.69-.86 3.95-2.11 9.67-.69 3.15-1.39 6.53-2.11 10.14-.87 4.36-1.54 7.79-1.99 10.27-.66 3.58-1.24 6.98-1.75 10.18-.52 3.28-1 6.63-1.46 10.07-.44 3.31-.79 6.44-1.07 9.4-.27 2.87-.47 5.63-.59 8.3-.03.64-.05 1.27-.07 1.88.42-1.31.83-2.67 1.23-4.09 1.79-6.42 3.5-13.92 5.13-22.5.76-4.02 1.55-8.41 2.37-13.16.9-5.22 1.63-9.69 2.21-13.4.61-3.91 1.26-8.35 1.96-13.35.72-5.14 1.31-9.48 1.76-13.02.51-4.08-.05.25 1.48-12.12.56-4.5.98-7.99 1.28-10.43.16-2.23.62-4.17 1.38-5.82 1.25-2.7 3.17-4.62 5.77-5.75 3.4-1.48 7.18-1.49 11.32-.03 1.4.5 2.86 1.13 4.36 1.9 1.32.68 2.74 1.52 4.27 2.53 1.31.86 2.54 1.7 3.69 2.5 1.22.86 2.37 1.69 3.44 2.49l.28.22c1.49 1.23 2.74 2.47 3.75 3.73 1.33 1.67 2.24 3.38 2.72 5.13.67 2.45.75 5.5.25 9.15-.78 6.81-1.71 14.39-2.77 22.71-1.03 8.06-1.97 15.11-2.83 21.13-.95 6.64-2 13.13-3.16 19.46-1.16 6.37-2.36 12.18-3.59 17.45-1.26 5.42-2.65 10.55-4.14 15.4-1.5 4.87-3.08 9.28-4.72 13.23-1.74 4.19-3.66 7.9-5.75 11.13-2.21 3.4-4.62 6.24-7.23 8.53l-.5.41c-1.86 1.37-3.72 2.53-5.6 3.48-1.95.98-3.93 1.76-5.96 2.32-2.06.57-4.21.93-6.45 1.07-2.1.14-4.35.09-6.73-.15-4.56-.46-8.75-1.42-12.57-2.9-3.95-1.53-7.48-3.61-10.61-6.24l-.13-.09a43.736 43.736 0 0 1-3.63-3.56c-1.13-1.24-2.23-2.6-3.32-4.07-1.18-1.6-2.24-3.32-3.19-5.18l.02-.01c-.99-1.95-1.84-3.9-2.54-5.87h.01c-1.37-3.64-2.41-7.72-3.12-12.25a73.11 73.11 0 0 1-.47-3.52l-.11.79c-.95 7.02-1.63 12.17-2.09 15.6-.64 4.8-1.24 9.35-1.8 13.66h.01c-.12 1.52-.41 2.97-.87 4.35-.96 2.87-2.58 5.07-4.86 6.58-2.3 1.53-4.94 2.17-7.92 1.94-1.27-.1-2.66-.4-4.18-.9l-.01.02c-1.03-.32-2.16-.71-3.39-1.16a80.77 80.77 0 0 1-3.35-1.3h-.03a107.274 107.274 0 0 1-6.52-3.04l-.47-.25c-2.9-1.7-5.34-4-7.32-6.89-1.77-2.59-3.17-5.67-4.17-9.24h-.01c-.6-2-1.21-4.14-1.82-6.42-.49-1.82-1.1-4.23-1.83-7.25-.44-1.81-.9-3.77-1.37-5.86-.3 2.14-.6 4.23-.88 6.29-.45 3.22-.88 6.34-1.3 9.36-.51 3.68-.88 6.49-1.13 8.41-.24 1.9-.53 4.34-.86 7.32v.03c-.21 1.82-.58 3.38-1.1 4.7-.86 2.17-2.17 3.87-3.94 5.09-2.04 1.41-4.42 1.98-7.13 1.69-1.49-.16-3.14-.61-4.95-1.36-.57-.22-1.56-.59-2.92-1.12-2.88-1.11-2.54-.96-3.2-1.22-1.57-.62-3.1-1.43-4.58-2.42-1.39-.93-2.65-1.95-3.79-3.06a19.637 19.637 0 0 1-3.29-3.49c-.45-.62-.86-1.27-1.22-1.95-.67.67-1.45 1.28-2.33 1.82-1.25.76-2.76 1.41-4.53 1.92l-.06.03c-5.59 1.6-7.9 2.25-8.14 2.32-1.45.42-4.24 1.24-8.32 2.45a829.57 829.57 0 0 1-8.32 2.43c-1.04.3-3.5.98-7.4 2.05-2.29.84-4.4 1.37-6.34 1.59-2.64.29-5.02.01-7.12-.84-1.28-.52-2.55-1.2-3.8-2.02-1.3-.86-2.43-1.76-3.37-2.71-.54-.53-1.29-1.32-2.25-2.36a80.33 80.33 0 0 1-2.16-2.4c-.68-.78-1.46-1.73-2.32-2.83-.74-.95-1.52-1.99-2.34-3.12l-.01.01c-.99-1.26-1.89-2.7-2.69-4.31a28.36 28.36 0 0 1-2.37-6.85c-.17 1.34-.49 3.92-.97 7.82-.4 3.24-.7 5.7-.89 7.38l-.03.22-.13.59c-.34 1.52-.74 2.89-1.21 4.1-.59 1.54-1.3 2.86-2.12 3.96-1.83 2.43-4.28 3.78-7.37 4.05-1.82.16-3.79-.13-5.92-.86a70.74 70.74 0 0 1-6.85-2.58c-1.29-.57-2.57-1.23-3.82-1.99a29.48 29.48 0 0 1-3.08-2.15c-1.59-1.11-2.94-2.36-4.05-3.74-1.25-1.55-2.2-3.28-2.83-5.19-.55-1.67-.88-3.5-.98-5.49-.09-1.76-.02-3.62.22-5.58.03-.45.06-.9.1-1.34-.78 2.47-1.38 4.4-1.79 5.81l-.09.25c-.56 1.69-1.04 3-1.44 3.94-.61 1.43-1.26 2.6-1.95 3.53-1.8 2.4-4.31 3.67-7.54 3.81-1.56.07-3.32-.17-5.28-.71l-.09-.03a60.91 60.91 0 0 1-5.21-1.76c-1.57-.61-3.23-1.36-4.98-2.23l-.38-.19c-.58-.33-1.21-.74-1.9-1.23-.78-.55-1.38-1.02-1.81-1.4-.62-.55-1.23-1.23-1.85-2.02a17.28 17.28 0 0 1-1.47-2.16c-.41-.72-.82-1.6-1.22-2.63-.31-.79-.6-1.69-.88-2.7-.5-1.83-.95-3.86-1.34-6.1V316h.01zm150.72-8.7c.52 1.24 1.01 2.48 1.46 3.71.12-1.1.23-2.15.34-3.16.44-3.95.78-7.04 1.03-9.33.37-3.28.76-6.75 1.18-10.4v-.03c.18-1.6.36-3.14.54-4.62-.85.97-1.92 1.83-3.19 2.56l.01.01c-1.18.68-2.64 1.27-4.36 1.78l-.22.06c-2.88.76-5.36 1.4-7.47 1.93-1.11.28-3.67.9-7.61 1.85-1.86.45-4.28 1.07-7.25 1.87-.78.21-1.54.42-2.28.62l-.1.57c-.3 1.69-.08.37-.73 3.97 2.25-.36 4.16-.64 5.72-.83 1.39-.17 3.4-.38 6.02-.63v-.02c3.9-.46 7.29.13 10.16 1.77l-.01.01c1.62.93 3.03 2.19 4.23 3.76v.03c.98 1.3 1.83 2.81 2.53 4.52zm5.54-40.11c.2.83.43 1.8.67 2.89.21-1.55.44-3.31.7-5.27.88-6.6 1.46-10.88 1.63-12.19.54-4.04 1.09-8.06 1.63-12.06.65-4.79 1.21-8.72 1.66-11.79.12-.84.26-1.74.4-2.69-.98.35-2.07.63-3.25.84l-.25.03c-1.78.25-4.07.59-6.87 1.01-4.66.7-7.02 1.05-7.16 1.07-1.67.26-4.15.68-7.44 1.25-.88.15-1.73.3-2.55.45-.18.84-.32 1.51-.42 2.01-.25 1.23-.76 3.77-1.51 7.62-.3 1.55-.69 3.46-1.16 5.72 1.23-.08 2.56-.15 3.99-.22 3.71-.22 6.88.39 9.5 1.83 1.64.9 3.08 2.17 4.31 3.8.92 1.21 1.73 2.67 2.44 4.38.66 1.48 1.18 2.77 1.57 3.87.44 1.22.84 2.55 1.22 3.97.25.89.55 2.05.89 3.48z"/><path fill-rule="evenodd" clip-rule="evenodd" fill="#575C00" d="M1651.15 246.26c.9 11.27 1.98 22.42 3.27 33.44 1.28 11.02 2.63 20.95 4.04 29.78.38 2.18.77 3.97 1.15 5.38.38 1.41.83 2.56 1.34 3.46.51.9 1.09 1.63 1.73 2.21.64.58 1.41 1.12 2.3 1.63 2.82 1.41 5.77 2.56 8.84 3.46 2.31.64 3.75.58 4.32-.19.58-.77 1.31-2.5 2.21-5.19 1.28-4.36 2.98-9.7 5.09-16.04 2.12-6.34 4.42-13 6.92-19.98s5.03-14.03 7.59-21.14c2.56-7.11 4.93-13.55 7.11-19.31-1.15 6.66-2.24 13.64-3.27 20.95-1.02 7.3-1.95 14.35-2.79 21.14-.83 6.79-1.54 13.07-2.11 18.83-.58 5.77-.99 10.5-1.25 14.22-.38 3.2-.26 5.76.38 7.69.64 1.92 1.98 3.59 4.04 5 1.54 1.28 3.33 2.37 5.38 3.27 2.05.9 4.1 1.67 6.15 2.31 2.18.77 3.65.64 4.42-.38s1.41-2.69 1.92-5c.51-4.48 1.18-9.93 2.02-16.33.83-6.41 1.79-13.29 2.88-20.66 1.09-7.37 2.21-15.05 3.36-23.06 1.15-8.01 2.34-15.79 3.55-23.35 1.22-7.56 2.37-14.7 3.46-21.43 1.09-6.73 2.08-12.59 2.98-17.58.64-3.33.64-5.93 0-7.78-.64-1.86-2.11-3.49-4.42-4.9a73.972 73.972 0 0 0-10.28-5.28c-3.52-1.47-6.82-2.72-9.9-3.75-2.56-1.02-4.68-1.44-6.34-1.25-1.66.19-3.14 1.06-4.42 2.59s-2.53 3.78-3.75 6.73-2.66 6.73-4.32 11.34c-1.66 4.1-3.43 8.55-5.28 13.35-1.86 4.8-3.65 9.64-5.38 14.51-1.73 4.87-3.43 9.67-5.09 14.41-1.67 4.74-3.14 9.1-4.42 13.07-1.15-11.15-2.08-19.95-2.79-26.42-.71-6.47-1.25-11.43-1.63-14.89-.38-3.46-.61-5.83-.67-7.11-.06-1.28-.1-2.37-.1-3.27-.26-1.92-.51-3.65-.77-5.19-.26-1.54-.67-2.95-1.25-4.23a11.82 11.82 0 0 0-2.4-3.46c-1.02-1.02-2.43-1.99-4.23-2.88a84.237 84.237 0 0 0-8.36-3.65c-2.75-1.03-6.12-1.92-10.09-2.69-2.56-.51-4.48-.32-5.77.58-1.28.9-2.3 3.01-3.07 6.34-.9 4.74-1.89 10.44-2.98 17.1-1.09 6.66-2.18 13.77-3.27 21.33-1.09 7.56-2.21 15.34-3.36 23.35-1.15 8.01-2.18 15.79-3.07 23.35-.9 7.56-1.67 14.67-2.31 21.33-.64 6.66-1.09 12.36-1.35 17.1-.26 3.33-.06 5.89.58 7.69.64 1.79 1.99 3.46 4.04 5 1.66 1.28 3.49 2.4 5.48 3.36 1.98.96 3.94 1.76 5.86 2.4 2.05.64 3.46.61 4.23-.1.77-.7 1.35-2.21 1.73-4.52.51-5.38 1.19-11.5 2.02-18.35.83-6.85 1.79-14.06 2.88-21.62 1.09-7.56 2.24-15.31 3.46-23.25 1.23-7.97 2.48-15.79 3.76-23.47zm100.69-48.62c6.53-2.31 14.19-4.55 22.96-6.73a145.06 145.06 0 0 1 26.61-4.04c4.23-.26 6.98 1.92 8.26 6.53 1.03 2.43 1.76 4.61 2.21 6.53.45 1.92.93 4.04 1.44 6.34.38 2.69.29 4.52-.29 5.48-.58.96-1.96 1.63-4.13 2.02-4.48.64-9.19 1.35-14.12 2.11-4.93.77-10.09 1.67-15.47 2.69-1.03 4.74-2.05 9.74-3.07 14.99-1.03 5.25-2.18 10.76-3.46 16.53 2.43-.51 4.84-.86 7.21-1.06 2.37-.19 4.84-.35 7.4-.48 2.18-.13 3.91.16 5.19.86 1.28.71 2.37 2.15 3.27 4.32 1.03 2.31 1.83 4.55 2.4 6.73.58 2.18 1.12 4.42 1.63 6.73.64 2.69.71 4.48.19 5.38-.51.9-1.86 1.67-4.04 2.31-4.87 1.28-9.83 2.53-14.89 3.75-5.06 1.22-9.96 2.53-14.7 3.94-.64 3.71-1.28 7.33-1.92 10.86-.64 3.52-1.28 6.95-1.92 10.28 3.84-1.02 7.56-1.83 11.15-2.4 3.59-.58 7.43-1.06 11.53-1.44 2.18-.26 3.94 0 5.29.77 1.34.77 2.46 2.24 3.36 4.42 1.03 2.43 1.86 4.74 2.5 6.92a457.7 457.7 0 0 1 1.92 6.73c.51 2.56.54 4.32.1 5.28-.45.96-1.76 1.76-3.94 2.4-5.38 1.54-10.89 3.14-16.53 4.8a875.64 875.64 0 0 1-16.14 4.61c-3.46 1.28-6.05 1.57-7.78.87a13.74 13.74 0 0 1-4.52-2.98 90.681 90.681 0 0 1-4.04-4.32c-1.28-1.47-2.75-3.36-4.42-5.67-1.41-1.79-2.46-3.91-3.17-6.34-.71-2.43-.93-5.32-.67-8.65l14.6-111.07zm114.92 76.09c-.9-5.77-1.79-11.75-2.69-17.97-.9-6.21-1.76-12.17-2.59-17.87s-1.57-10.95-2.21-15.76c-.64-4.8-1.15-8.68-1.54-11.63-.51-3.84-1.25-6.76-2.21-8.74-.96-1.99-2.59-3.62-4.9-4.9-2.82-1.79-5.54-3.27-8.17-4.42s-5.29-2.24-7.97-3.27c-2.18-.77-3.97-.77-5.38 0-1.41.77-2.43 2.63-3.07 5.57-1.03 5.38-2.11 11.66-3.27 18.83-1.15 7.17-2.27 14.76-3.36 22.77-1.09 8.01-2.18 16.08-3.27 24.21-1.09 8.13-2.05 15.85-2.88 23.16-.83 7.3-1.57 13.87-2.21 19.7-.64 5.83-1.09 10.41-1.35 13.74-.38 3.33-.29 5.92.29 7.78.58 1.86 1.76 3.49 3.55 4.9 1.79 1.79 3.75 3.11 5.86 3.94 2.11.83 4.2 1.63 6.24 2.4 2.18.9 3.68 1.06 4.52.48.83-.58 1.38-1.95 1.63-4.13.51-4.61 1.19-9.93 2.02-15.95.83-6.02 1.73-12.43 2.69-19.22.96-6.79 1.99-13.87 3.07-21.23 1.09-7.37 2.15-14.64 3.17-21.81 1.03 6.02 2.12 12.04 3.27 18.06s2.31 11.88 3.46 17.58c1.15 5.7 2.34 11.05 3.55 16.05s2.4 9.42 3.55 13.26c1.54 5.51 4.16 9.35 7.88 11.53 2.05 1.02 4.07 1.95 6.05 2.79 1.99.83 4 1.57 6.05 2.21 4.61 1.54 7.11-.13 7.49-5 1.15-8.84 2.47-18.74 3.94-29.69 1.47-10.95 2.98-22 4.52-33.15 1.54-11.15 3.11-21.94 4.71-32.38 1.6-10.44 3.11-19.57 4.52-27.38.51-2.69.58-4.96.19-6.82-.38-1.86-1.66-3.68-3.84-5.48-2.69-2.18-4.8-3.65-6.34-4.42s-3.46-1.54-5.77-2.31c-2.3-.77-4.07-.8-5.28-.1-1.22.7-2.08 2.47-2.6 5.28-1.92 10.89-3.94 23.16-6.05 36.8-2.1 13.67-3.87 27.86-5.27 42.59zm40.35 40.74c1.28 3.59 2.82 6.6 4.61 9.03 1.79 2.43 3.71 4.55 5.76 6.34 4.87 4.1 11.15 6.53 18.83 7.3 3.84.38 7.27.16 10.28-.67 3.01-.83 5.99-2.34 8.94-4.52 4.1-3.59 7.72-9.16 10.86-16.72 3.14-7.56 5.96-16.69 8.46-27.38 2.5-10.7 4.71-22.77 6.63-36.22s3.78-27.99 5.57-43.62c.38-2.69.38-4.74 0-6.15-.38-1.41-1.67-3.01-3.84-4.8-2.05-1.54-4.29-3.11-6.73-4.71-2.43-1.6-4.74-2.79-6.92-3.56-2.18-.77-4-.83-5.48-.19-1.47.64-2.27 2.37-2.4 5.19-.77 6.41-1.7 13.93-2.79 22.58-1.09 8.65-2.34 17.52-3.75 26.61-1.41 9.1-2.95 18.03-4.61 26.81-1.67 8.78-3.43 16.49-5.29 23.16-1.86 6.66-3.84 11.88-5.96 15.66-2.11 3.78-4.32 5.22-6.63 4.32-1.79-.77-3.01-2.98-3.65-6.63-.64-3.65-.83-8.2-.58-13.64.26-5.44.83-11.56 1.73-18.35a422 422 0 0 1 3.27-20.66c1.28-6.98 2.66-13.87 4.13-20.66 1.47-6.79 2.85-12.94 4.13-18.45 1.41-6.15.06-11.27-4.04-15.37-1.92-1.79-3.91-3.4-5.96-4.8a34.19 34.19 0 0 0-6.34-3.46c-2.3-1.02-4.07-1.25-5.28-.67-1.22.58-2.15 2.27-2.79 5.09-2.3 9.86-4.58 20.4-6.82 31.61s-4 22.23-5.28 33.05c-1.28 10.83-1.89 21.01-1.83 30.55.09 9.55 1.33 17.53 3.77 23.93z"/><path fill-rule="evenodd" clip-rule="evenodd" fill="none" stroke="#BA2A22" stroke-width="3" stroke-linecap="round" stroke-miterlimit="22.926" stroke-dasharray="5.9998,14.9995" d="M1797.1 626.17v822.49M1747.23 956.66h-459.37M1299.6 956.66v492M1747.23 1448.66h-459.37"/><path opacity=".1" fill-rule="evenodd" clip-rule="evenodd" fill="none" d="M222.3 369.12h749.33v115.43H222.3z"/><text transform="translate(233.622 382.617)"><tspan x="0" y="0" fill="#FFF" font-family="'Roboto-Medium'" font-size="18">L</tspan><tspan x="9.74" y="0" fill="#FFF" font-family="'Roboto-Medium'" font-size="18">orem ipsum dolor sit amet, eos erroribus gubergren splendide ex, quot omnesque an nec. </tspan><tspan x="20.73" y="21.6" fill="#FFF" font-family="'Roboto-Medium'" font-size="18">Qui id impedit repudiare abhorreant, eum homero doming ut. Elit assum vel ne. Ius no </tspan><tspan x="19.15" y="43.2" fill="#FFF" font-family="'Roboto-Medium'" font-size="18">commodo pertinax, pro ei ipsum errem graeco. Ut eum zril nusquam dignissim, ipsum </tspan><tspan x="258.5" y="64.8" fill="#FFF" font-family="'Roboto-Medium'" font-size="18">numquam meliore quo ex.</tspan></text><text transform="translate(1625.24 424.26)"><tspan x="0" y="0" fill="#FFF" font-family="'Roboto-Medium'" font-size="27.83">1</tspan><tspan x="15.82" y="0" fill="#FFF" font-family="'Roboto-Medium'" font-size="27.83">00% VEGAN GREATNESS</tspan></text><path opacity=".1" fill-rule="evenodd" clip-rule="evenodd" fill="none" d="M1407.31 474.12h749.33v62.18h-749.33z"/><text transform="translate(1418.622 488.621)"><tspan x="0" y="0" fill="#FFF" font-family="'Roboto-Medium'" font-size="18">L</tspan><tspan x="9.74" y="0" fill="#FFF" font-family="'Roboto-Medium'" font-size="18">orem ipsum dolor sit amet, eos erroribus gubergren splendide ex, quot omnesque an nec. </tspan><tspan x="122.6" y="21.6" fill="#FFF" font-family="'Roboto-Medium'" font-size="18">Qui id impedit repudiare abhorreant, eum homero doming ut</tspan></text><text transform="translate(52.444 717.736)"><tspan x="0" y="0" fill="#FAD297" font-family="'Roboto-Bold'" font-size="36.077"></tspan><tspan x="8.98" y="0" fill="#FAD297" font-family="'Roboto-Bold'" font-size="36.077"> SMALL FRIES</tspan></text><text transform="translate(126.471 843.253)"><tspan x="0" y="0" fill="#FAD297" font-family="'Roboto-Bold'" font-size="36.077">L</tspan><tspan x="19.54" y="0" fill="#FAD297" font-family="'Roboto-Bold'" font-size="36.077">ARGE FRIES</tspan></text><path opacity=".1" fill-rule="evenodd" clip-rule="evenodd" fill="none" d="M127.8 731.19h410.9v67.3H127.8z"/><text transform="translate(127.804 745.692)"><tspan x="0" y="0" fill="#FFF" font-family="'Roboto-Medium'" font-size="18">L</tspan><tspan x="9.74" y="0" fill="#FFF" font-family="'Roboto-Medium'" font-size="18">orem ipsum dolor sit amet, eos erroribus </tspan><tspan x="0" y="23.4" fill="#FFF" font-family="'Roboto-Medium'" font-size="18">gubergren splendide ex, quot omnesque an nec.</tspan></text><path opacity=".1" fill-rule="evenodd" clip-rule="evenodd" fill="none" d="M127.8 856.94h410.9v109.67H127.8z"/><text transform="translate(127.804 871.442)"><tspan x="0" y="0" fill="#FFF" font-family="'Roboto-Medium'" font-size="18">L</tspan><tspan x="9.74" y="0" fill="#FFF" font-family="'Roboto-Medium'" font-size="18">orem ipsum dolor sit amet, eos erroribus </tspan><tspan x="0" y="23.4" fill="#FFF" font-family="'Roboto-Medium'" font-size="18">gubergren splendide ex, quot omnesque an nec. </tspan><tspan x="0" y="46.8" fill="#FFF" font-family="'Roboto-Medium'" font-size="18">Qui id impedit repudiare abhorreant, eum homero </tspan><tspan x="0" y="70.2" fill="#FFF" font-family="'Roboto-Medium'" font-size="18">doming ut. Elit assum vel ne.</tspan></text><path opacity=".1" fill-rule="evenodd" clip-rule="evenodd" fill="none" d="M127.8 1009.94h353.53v177.92H127.8z"/><text transform="translate(127.804 1024.441)"><tspan x="0" y="0" fill="#FFF" font-family="'Roboto-Medium'" font-size="18">L</tspan><tspan x="9.74" y="0" fill="#FFF" font-family="'Roboto-Medium'" font-size="18">orem ipsum dolor sit amet, eos erroribus </tspan><tspan x="0" y="23.4" fill="#FFF" font-family="'Roboto-Medium'" font-size="18">gubergren splendide ex, quot omnesque an </tspan><tspan x="0" y="46.8" fill="#FFF" font-family="'Roboto-Medium'" font-size="18">nec. Qui id impedit repudiare abhorreant, </tspan><tspan x="0" y="70.2" fill="#FFF" font-family="'Roboto-Medium'" font-size="18">eum homero doming ut. Elit assum vel ne. </tspan><tspan x="0" y="93.6" fill="#FFF" font-family="'Roboto-Medium'" font-size="18">Ius no commodo pertinax, pro ei ipsum </tspan><tspan x="0" y="117" fill="#FFF" font-family="'Roboto-Medium'" font-size="18">errem graeco.</tspan></text><text transform="translate(1332.64 1084.298)"><tspan x="0" y="0" fill="#FAD297" font-family="'Roboto-Medium'" font-size="24.225">D</tspan><tspan x="15.83" y="0" fill="#FAD297" font-family="'Roboto-Medium'" font-size="24.225">RINKS</tspan></text><text transform="translate(1335.266 652.324)"><tspan x="0" y="0" fill="#FAD297" font-family="'Roboto-Medium'" font-size="24.225">S</tspan><tspan x="14.62" y="0" fill="#FAD297" font-family="'Roboto-Medium'" font-size="24.225">IDES</tspan></text><text transform="translate(1873.149 683.95)"><tspan x="0" y="0" fill="#FFF09A" font-family="'Roboto-Medium'" font-size="18.813">L</tspan><tspan x="10.18" y="0" fill="#FFF09A" font-family="'Roboto-Medium'" font-size="18.813">OREM IPSUM DOLOR SIT AMET</tspan></text><text transform="translate(2197.794 688.868)"><tspan x="0" y="0" fill="#FFF09A" font-family="'Roboto-Medium'" font-size="25.505">$</tspan><tspan x="14.5" y="0" fill="#FFF09A" font-family="'Roboto-Medium'" font-size="25.505">5</tspan></text><path fill-rule="evenodd" clip-rule="evenodd" fill="none" d="M1873.15 697.51h316.39v58.11h-316.39z"/><text transform="translate(1873.146 710.511)"><tspan x="0" y="0" fill="#FFF" font-family="'Roboto-Medium'" font-size="15.999">L</tspan><tspan x="8.66" y="0" fill="#FFF" font-family="'Roboto-Medium'" font-size="15.999">orem ipsum dolor sit amet, eos posse</tspan></text><text transform="translate(1873.149 767.505)"><tspan x="0" y="0" fill="#FFF09A" font-family="'Roboto-Medium'" font-size="18.813">L</tspan><tspan x="10.18" y="0" fill="#FFF09A" font-family="'Roboto-Medium'" font-size="18.813">OREM IPSUM DOLOR SIT AMET</tspan></text><text transform="translate(2197.794 772.424)"><tspan x="0" y="0" fill="#FFF09A" font-family="'Roboto-Medium'" font-size="25.505">$</tspan><tspan x="14.5" y="0" fill="#FFF09A" font-family="'Roboto-Medium'" font-size="25.505">5</tspan></text><path fill-rule="evenodd" clip-rule="evenodd" fill="none" d="M1873.15 781.07h316.39v68.99h-316.39z"/><text transform="translate(1873.146 794.067)"><tspan x="0" y="0" fill="#FFF" font-family="'Roboto-Medium'" font-size="16">L</tspan><tspan x="8.66" y="0" fill="#FFF" font-family="'Roboto-Medium'" font-size="16">orem ipsum dolor sit amet, eos posse</tspan></text><text transform="translate(1873.149 851.062)"><tspan x="0" y="0" fill="#FFF09A" font-family="'Roboto-Medium'" font-size="18.813">L</tspan><tspan x="10.18" y="0" fill="#FFF09A" font-family="'Roboto-Medium'" font-size="18.813">OREM IPSUM DOLOR SIT AMET</tspan></text><text transform="translate(2197.794 855.98)"><tspan x="0" y="0" fill="#FFF09A" font-family="'Roboto-Medium'" font-size="25.505">$</tspan><tspan x="14.5" y="0" fill="#FFF09A" font-family="'Roboto-Medium'" font-size="25.505">5</tspan></text><path fill-rule="evenodd" clip-rule="evenodd" fill="none" d="M1873.15 864.62h316.39v74.99h-316.39z"/><text transform="translate(1873.146 877.624)"><tspan x="0" y="0" fill="#FFF" font-family="'Roboto-Medium'" font-size="16">L</tspan><tspan x="8.66" y="0" fill="#FFF" font-family="'Roboto-Medium'" font-size="16">orem ipsum dolor sit amet, eos posse</tspan></text><text transform="translate(1873.149 931.005)"><tspan x="0" y="0" fill="#FFF09A" font-family="'Roboto-Medium'" font-size="18.813">L</tspan><tspan x="10.18" y="0" fill="#FFF09A" font-family="'Roboto-Medium'" font-size="18.813">OREM IPSUM DOLOR SIT AMET</tspan></text><text transform="translate(2197.794 935.924)"><tspan x="0" y="0" fill="#FFF09A" font-family="'Roboto-Medium'" font-size="25.505">$</tspan><tspan x="14.5" y="0" fill="#FFF09A" font-family="'Roboto-Medium'" font-size="25.505">5</tspan></text><path fill-rule="evenodd" clip-rule="evenodd" fill="none" d="M1873.15 944.57h316.39v88.05h-316.39z"/><text transform="translate(1873.146 957.568)"><tspan x="0" y="0" fill="#FFF" font-family="'Roboto-Medium'" font-size="16">L</tspan><tspan x="8.66" y="0" fill="#FFF" font-family="'Roboto-Medium'" font-size="16">orem ipsum dolor sit amet, eos posse</tspan></text><text transform="translate(1873.149 1014.562)"><tspan x="0" y="0" fill="#FFF09A" font-family="'Roboto-Medium'" font-size="18.813">L</tspan><tspan x="10.18" y="0" fill="#FFF09A" font-family="'Roboto-Medium'" font-size="18.813">OREM IPSUM DOLOR SIT AMET</tspan></text><text transform="translate(2197.794 1019.48)"><tspan x="0" y="0" fill="#FFF09A" font-family="'Roboto-Medium'" font-size="25.505">$</tspan><tspan x="14.5" y="0" fill="#FFF09A" font-family="'Roboto-Medium'" font-size="25.505">5</tspan></text><path fill-rule="evenodd" clip-rule="evenodd" fill="none" d="M1873.15 1028.12h316.39v63.49h-316.39z"/><text transform="translate(1873.146 1041.124)"><tspan x="0" y="0" fill="#FFF" font-family="'Roboto-Medium'" font-size="16">L</tspan><tspan x="8.66" y="0" fill="#FFF" font-family="'Roboto-Medium'" font-size="16">orem ipsum dolor sit amet, eos posse</tspan></text><text transform="translate(1334.649 683.95)"><tspan x="0" y="0" fill="#FFF09A" font-family="'Roboto-Medium'" font-size="18.813">L</tspan><tspan x="10.18" y="0" fill="#FFF09A" font-family="'Roboto-Medium'" font-size="18.813">OREM IPSUM DOLOR SIT AMET</tspan></text><text transform="translate(1659.294 688.868)"><tspan x="0" y="0" fill="#FFF09A" font-family="'Roboto-Medium'" font-size="25.505">$</tspan><tspan x="14.5" y="0" fill="#FFF09A" font-family="'Roboto-Medium'" font-size="25.505">5</tspan></text><path fill-rule="evenodd" clip-rule="evenodd" fill="none" d="M1334.65 697.51h316.39v98.04h-316.39z"/><text transform="translate(1334.646 710.512)"><tspan x="0" y="0" fill="#FFF" font-family="'Roboto-Medium'" font-size="16">L</tspan><tspan x="8.66" y="0" fill="#FFF" font-family="'Roboto-Medium'" font-size="16">orem ipsum dolor sit amet, eos posse</tspan></text><text transform="translate(1334.649 767.505)"><tspan x="0" y="0" fill="#FFF09A" font-family="'Roboto-Medium'" font-size="18.813">L</tspan><tspan x="10.18" y="0" fill="#FFF09A" font-family="'Roboto-Medium'" font-size="18.813">OREM IPSUM DOLOR SIT AMET</tspan></text><text transform="translate(1659.294 772.424)"><tspan x="0" y="0" fill="#FFF09A" font-family="'Roboto-Medium'" font-size="25.505">$</tspan><tspan x="14.5" y="0" fill="#FFF09A" font-family="'Roboto-Medium'" font-size="25.505">5</tspan></text><path fill-rule="evenodd" clip-rule="evenodd" fill="none" d="M1334.65 781.07h316.39v84.55h-316.39z"/><text transform="translate(1334.646 794.067)"><tspan x="0" y="0" fill="#FFF" font-family="'Roboto-Medium'" font-size="16">L</tspan><tspan x="8.66" y="0" fill="#FFF" font-family="'Roboto-Medium'" font-size="16">orem ipsum dolor sit amet, eos posse</tspan></text><text transform="translate(1334.649 851.062)"><tspan x="0" y="0" fill="#FFF09A" font-family="'Roboto-Medium'" font-size="18.813">L</tspan><tspan x="10.18" y="0" fill="#FFF09A" font-family="'Roboto-Medium'" font-size="18.813">OREM IPSUM DOLOR SIT AMET</tspan></text><text transform="translate(1659.294 855.98)"><tspan x="0" y="0" fill="#FFF09A" font-family="'Roboto-Medium'" font-size="25.505">$</tspan><tspan x="14.5" y="0" fill="#FFF09A" font-family="'Roboto-Medium'" font-size="25.505">5</tspan></text><path fill-rule="evenodd" clip-rule="evenodd" fill="none" d="M1334.65 864.62h316.39v71.99h-316.39z"/><text transform="translate(1334.646 877.624)"><tspan x="0" y="0" fill="#FFF" font-family="'Roboto-Medium'" font-size="16">L</tspan><tspan x="8.66" y="0" fill="#FFF" font-family="'Roboto-Medium'" font-size="16">orem ipsum dolor sit amet, eos posse</tspan></text><text transform="translate(1331.649 1113.178)"><tspan x="0" y="0" fill="#FFF09A" font-family="'Roboto-Medium'" font-size="18.813">L</tspan><tspan x="10.18" y="0" fill="#FFF09A" font-family="'Roboto-Medium'" font-size="18.813">OREM IPSUM DOLOR SIT AMET</tspan></text><text transform="translate(1656.293 1118.096)"><tspan x="0" y="0" fill="#FFF09A" font-family="'Roboto-Medium'" font-size="25.505">$</tspan><tspan x="14.5" y="0" fill="#FFF09A" font-family="'Roboto-Medium'" font-size="25.505">5</tspan></text><path fill-rule="evenodd" clip-rule="evenodd" fill="none" d="M1331.65 1126.74h316.39v68.99h-316.39z"/><text transform="translate(1331.646 1139.74)"><tspan x="0" y="0" fill="#FFF" font-family="'Roboto-Medium'" font-size="16">L</tspan><tspan x="8.66" y="0" fill="#FFF" font-family="'Roboto-Medium'" font-size="16">orem ipsum dolor sit amet, eos posse</tspan></text><text transform="translate(1331.649 1196.733)"><tspan x="0" y="0" fill="#FFF09A" font-family="'Roboto-Medium'" font-size="18.813">L</tspan><tspan x="10.18" y="0" fill="#FFF09A" font-family="'Roboto-Medium'" font-size="18.813">OREM IPSUM DOLOR SIT AMET</tspan></text><text transform="translate(1656.293 1201.652)"><tspan x="0" y="0" fill="#FFF09A" font-family="'Roboto-Medium'" font-size="25.505">$</tspan><tspan x="14.5" y="0" fill="#FFF09A" font-family="'Roboto-Medium'" font-size="25.505">5</tspan></text><path fill-rule="evenodd" clip-rule="evenodd" fill="none" d="M1331.65 1210.3h316.39v74.32h-316.39z"/><text transform="translate(1331.646 1223.295)"><tspan x="0" y="0" fill="#FFF" font-family="'Roboto-Medium'" font-size="16">L</tspan><tspan x="8.66" y="0" fill="#FFF" font-family="'Roboto-Medium'" font-size="16">orem ipsum dolor sit amet, eos posse</tspan></text><text transform="translate(1331.649 1280.29)"><tspan x="0" y="0" fill="#FFF09A" font-family="'Roboto-Medium'" font-size="18.813">L</tspan><tspan x="10.18" y="0" fill="#FFF09A" font-family="'Roboto-Medium'" font-size="18.813">OREM IPSUM DOLOR SIT AMET</tspan></text><text transform="translate(1656.293 1285.208)"><tspan x="0" y="0" fill="#FFF09A" font-family="'Roboto-Medium'" font-size="25.505">$</tspan><tspan x="14.5" y="0" fill="#FFF09A" font-family="'Roboto-Medium'" font-size="25.505">5</tspan></text><path fill-rule="evenodd" clip-rule="evenodd" fill="none" d="M1331.65 1293.85h316.39v70.77h-316.39z"/><text transform="translate(1331.646 1306.852)"><tspan x="0" y="0" fill="#FFF" font-family="'Roboto-Medium'" font-size="16">L</tspan><tspan x="8.66" y="0" fill="#FFF" font-family="'Roboto-Medium'" font-size="16">orem ipsum dolor sit amet, eos posse</tspan></text><text transform="translate(1331.649 1359.482)"><tspan x="0" y="0" fill="#FFF09A" font-family="'Roboto-Medium'" font-size="18.813">L</tspan><tspan x="10.18" y="0" fill="#FFF09A" font-family="'Roboto-Medium'" font-size="18.813">OREM IPSUM DOLOR SIT AMET</tspan></text><text transform="translate(1656.293 1364.4)"><tspan x="0" y="0" fill="#FFF09A" font-family="'Roboto-Medium'" font-size="25.505">$</tspan><tspan x="14.5" y="0" fill="#FFF09A" font-family="'Roboto-Medium'" font-size="25.505">5</tspan></text><path fill-rule="evenodd" clip-rule="evenodd" fill="none" d="M1331.65 1373.04h316.39v68.57h-316.39z"/><text transform="translate(1331.646 1386.044)"><tspan x="0" y="0" fill="#FFF" font-family="'Roboto-Medium'" font-size="16">L</tspan><tspan x="8.66" y="0" fill="#FFF" font-family="'Roboto-Medium'" font-size="16">orem ipsum dolor sit amet, eos posse</tspan></text><text transform="translate(497.824 839.177)"><tspan x="0" y="0" fill="#FFF09A" font-family="'Roboto-Medium'" font-size="37.521">$</tspan><tspan x="21.33" y="0" fill="#FFF09A" font-family="'Roboto-Medium'" font-size="37.521">2.99</tspan></text><text transform="translate(496.135 996.945)"><tspan x="0" y="0" fill="#FFF09A" font-family="'Roboto-Medium'" font-size="37.521">$</tspan><tspan x="21.33" y="0" fill="#FFF09A" font-family="'Roboto-Medium'" font-size="37.521">5</tspan></text><text transform="translate(126.858 998.878)"><tspan x="0" y="0" fill="#FAD297" font-family="'Roboto-Bold'" font-size="32.407">C</tspan><tspan x="21.2" y="0" fill="#FAD297" font-family="'Roboto-Bold'" font-size="32.407">HIPS AND SALSA</tspan></text><path fill="#C85C00" d="M958.15 163.95c-2.2 5.26-4.07 11.79-5.18 16.46l-2.17.22c-3.7-5.72-8.63-10.05-16.26-10.05-6.64 0-10.81 3.54-10.81 8.92 0 16.21 37.89 12.14 37.89 39.89 0 17.64-15.64 30.39-37.28 30.39-8.14 0-15.99-1.74-23.86-5.04 1.38-3.51 3.55-14.42 4.19-18.13l2.59-.22c4.42 6.51 10.16 12.01 19.27 12.01 7.87 0 12.93-3.96 12.93-10.05 0-16.39-37.87-12.75-37.87-40.31 0-17.22 14.01-29.01 34.69-29.01 7.49 0 14.52 1.63 21.87 4.92zm-18.67 74.33c2.57-1.25 9.6-5.8 9.6-14.22 0-9.09-8.36-13.83-15.25-16.88-12.68-5.63-23.14-10.64-23.14-24.02 0-5.04.89-11.25 5.06-15.55-5.4 4.05-9.23 11.05-9.23 18.28 0 14.54 10.93 19.58 21.51 24.25 7.25 3.17 16.36 7.59 16.36 17.34 0 5-1.83 7.93-4.91 10.8z"/><path fill="#575C00" d="M897.45 147.32s.99 42.17-33.46 56.86c0 0 5.23-25.39 17.72-38.67 0 0-14.33.81-22.92 36.25 0-.01-8.53-58.66 38.66-54.44z"/><path fill="#C85C00" d="M852.59 225.95c2.34 6.8 7.15 17.76 9.35 21.64-2.59-.12-7.87-.25-14.01-.25-5.67 0-12.56 0-17.71.25-.12-7-.59-9.58-2.69-16.63l4.47-1.35c1.18 4.05 2.47 8.52 3.16 11.89h6.14c-1.36-5.7-3.92-13.22-5.8-19.5l-11.18-37.07-5.28-17.17-.72-6.85c4.42-.42 8.88-.93 12.66-1.6.99 5.28 1.46 7.25 3.28 12.63l18.33 54.01z"/><path fill="#C85C00" d="M831.99 229.92l-4.47 1.36-2.71-9.06c-2.94-.12-8.59-.25-14.38-.25-5.77 0-11.69.12-15 .25l-2.81 9.31c-1.11 3.45-1.63 7.42-1.63 10.4 0 2.23.12 3.42.99 6.15-3.18-.12-6.39-.25-9.7-.25-4.05 0-8.24 0-12.78.25l-.49-1.39c3.31-5.68 6.64-12.68 9.35-19.75l19.54-49.85c2.96-7.54 3.55-9.53 5.03-15.58 3.85-.07 9.57-.42 15.39-.99l.72 6.92-5.4.6c1.83 5.43 4.17 12.46 5.77 17.89l10.68 37.45c.52 1.8 1.21 4.08 1.9 6.54zm-10.11-18.94l-10.46-35.93-12.16 35.93c2.81.12 7.13.25 11.3.25s8.36-.12 11.32-.25zM760.85 161.99c-1.48 7.15-.87 23.65-.87 23.65v40.3c0 7.46.61 14.94 2.08 24.34-2.7-.12-6.59-.12-10.39-.12-3.9 0-7.7 0-10.39.12-4.14-6.56-5.98-9.4-8.16-12.25l-28.83-38.34c-2.21-2.84-5.12-6.68-6.13-8.43l3.43-2.07c.64.82 1.3 1.67 1.96 2.54l28.58 37.41c3.55 4.74 8.16 9.83 10.74 14.09h6.35c-3.43-4.99-8.53-11.47-12.57-16.81l-28.34-37.29c-7.82-10.33-11.72-14.72-13.8-16.76-2.08-2.12-3.43-3.17-8.06-3.17h-3.55s1.7-.12 2.81.96l-5.25.23c-.99-.98-2.59-1.38-5.06 1.06h-.96l2.57-9.47c4.07.13 10.46.13 15.52.13 6.12 0 11.52-.13 16.08-.38 2.71 5.37 4.54 8.69 8.24 13.81l22.01 30.63c1.36 1.88 5.53 7.76 6.27 9.11-.27-2.08-.39-5.62-.5-9.11v-20.53c.11-7.76-.73-16.02-3.69-23.65 3.08.13 6.66.13 10.09.13 3.43-.01 6.86-.01 9.82-.13z"/><path fill="#C85C00" d="M702.3 186.19l-3.69 2.18c-.11 1.84-.11 3.39-.11 6.46v30.29c0 8.11 1.05 16.35 4.06 24.72-2.87-.13-6.83-.26-10.39-.26-3.53 0-8.28.13-10.75.26 1.45-6.64 1.71-13.62 1.71-24.86v-41.15c0-6.46-.13-11-.82-13.67-.24-1.1-.63-1.94-1.29-2.57l5.61-.24c3.31 3.12 8.21 9.32 15.67 18.84zM660.59 225.95c2.32 6.8 7.13 17.76 9.33 21.64-2.59-.12-7.87-.25-13.99-.25-5.67 0-12.56 0-17.71.25-.12-7-.62-9.58-2.71-16.63l-1.36-4.57 4.49-1.33c1.43 4.81 3.53 11.72 4.49 16.43h6.17c-1.36-5.7-3.95-13.22-5.8-19.5l-11.18-37.07-5.28-17.17-.72-6.85c4.42-.42 8.86-.93 12.63-1.6.99 5.28 1.48 7.25 3.31 12.63l18.33 54.02z"/><path fill="#C85C00" d="M638.63 226.95l-4.49 1.37-1.33-4.55c-2.96-.13-8.61-.25-14.41-.25-5.75 0-11.67.13-14.97.25l-2.81 9.54c-1.11 3.54-1.63 7.61-1.63 10.66 0 2.29.12 3.51.99 6.31-3.18-.13-6.39-.25-9.7-.25-4.07 0-8.26 0-12.8.25l-.47-1.42c3.31-5.83 6.64-13 9.33-20.25l19.56-51.1c2.94-7.73 3.53-9.77 5.01-15.97 3.85-.08 9.57-.43 15.42-1.02l.72 7.1-5.4.61c1.83 5.57 4.17 12.77 5.75 18.34l10.71 38.39c.15.59.33 1.28.52 1.99zm-8.78-14.7l-10.44-36.83-12.16 36.83c2.81.13 7.1.25 11.27.25 4.2 0 8.39-.12 11.33-.25zM589.77 161.8c-1.46 5.44-3.27 12.56-3.9 17.09l-2.54.25c-2.93-5.95-10.22-6.69-17.39-6.69h-5.22c-.39 3.08-.51 10.76-.51 13.99v39.88c0 11.52.76 19.63 2.32 23.96-3.41-.25-8.49-.38-13.59-.38-5.22 0-10.46.13-14.61.38 1.22-7.73 1.73-15.72 1.73-24.08v-39.88c0-3.1 0-10.88-.39-13.86h-3.63c-8.17 0-16.54 1.22-22.73 7.6l-2.44-1.3c1.56-6.56 2.32-11.39 3.02-16.96 10.83.48 16.54.61 22.98.61h30.76c9.6 0 18.58-.23 26.14-.61zm-47.13 55.67v-33.55c.52-7.23.4-9.3-.43-15.48h-5.28c.94 6.18 1.06 8.25 1.32 15.48v33.55c-.26 5.41-.49 8.57-.99 17.27h5.17c.49-8.7.73-11.86.21-17.27zM496.41 161.98c-1.48 7-2.06 23.14-2.06 23.14v39.43c0 7.3.61 14.62 2.08 23.82-2.67-.12-6.59-.12-10.37-.12-3.92 0-7.72 0-10.39.12-4.14-6.42-6.01-9.2-8.19-11.98l-28.83-37.52c-2.21-2.78-5.12-6.54-6.1-8.25l3.41-2.03c.64.81 1.3 1.64 1.96 2.49l28.58 36.61c3.55 4.64 8.19 9.62 10.74 13.79h6.37c-3.43-4.88-8.53-11.23-12.6-16.45l-28.31-36.49c-7.82-10.1-11.74-14.4-13.82-16.4-2.08-2.07-3.43-3.1-8.06-3.1h-2.38s1.7-.12 2.84.94l-5.25.22c-1.01-.96-2.59-1.35-5.08 1.04h-.96l2.59-9.27c4.05.12 10.44.12 15.49.12 6.12 0 11.52-.12 16.08-.37 2.71 5.26 4.54 8.5 8.24 13.51l22.01 29.97c1.36 1.84 5.53 7.59 6.29 8.92-.27-2.04-.39-5.5-1.69-8.92v-20.09c1.3-7.59.46-15.67-2.53-23.14 3.11.12 6.66.12 10.09.12 3.44.02 6.87.02 9.85-.11z"/><path fill="#C85C00" d="M436.68 186.19l-3.66 2.18c-.13 1.84-.13 3.39-.13 6.46v30.29c0 8.11 1.05 16.35 4.09 24.72-2.9-.13-6.85-.26-10.41-.26-3.53 0-8.28.13-10.75.26 1.45-6.64 1.71-13.62 1.71-24.86v-41.15c0-6.46-.13-11-.79-13.67-.24-1.1-.66-1.94-1.29-2.57l5.61-.24c3.28 3.12 8.16 9.32 15.62 18.84zM396.13 225.95c2.34 6.8 7.15 17.76 9.35 21.64-2.59-.12-7.87-.25-14.01-.25-5.67 0-12.56 0-17.71.25-.12-7-.59-9.58-2.69-16.63l4.47-1.35c1.18 4.05 2.47 8.52 3.16 11.89h6.14c-1.36-5.7-3.92-13.22-5.8-19.5l-11.18-37.07-5.28-17.17-.72-6.85c4.42-.42 8.88-.93 12.66-1.6.99 5.28 1.46 7.25 3.28 12.63l18.33 54.01z"/><path fill="#C85C00" d="M375.53 231.66l-4.47 1.4-2.71-9.28c-2.94-.13-8.59-.25-14.38-.25-5.77 0-11.69.13-15 .25l-2.81 9.54c-1.11 3.54-1.63 7.61-1.63 10.66 0 2.29.12 3.51.99 6.31-3.18-.13-6.39-.25-9.7-.25-4.05 0-8.26 0-12.78.25l-.49-1.42c3.31-5.83 6.64-13 9.35-20.25l19.54-51.1c2.96-7.73 3.55-9.77 5.03-15.97 3.85-.08 9.57-.43 15.39-1.02l.72 7.1-5.4.61c1.83 5.57 4.17 12.77 5.77 18.34l10.68 38.39c.49 1.83 1.19 4.17 1.9 6.69zm-10.11-19.41l-10.46-36.83-12.16 36.83c2.81.13 7.13.25 11.3.25s8.36-.12 11.32-.25zM299.65 151.44c-2.36 6.05-4.35 13.58-5.51 18.95l-2.39.25c-3.98-6.59-9.25-11.57-17.47-11.57-7.13 0-11.61 4.07-11.61 10.27 0 18.67 40.69 13.97 40.69 45.94 0 20.31-16.78 34.99-40 34.99-8.75 0-17.2-2.01-25.66-5.8 1.46-4.05 3.84-16.6 4.51-20.88l2.78-.25c4.74 7.5 10.95 13.83 20.73 13.83 8.46 0 13.86-4.55 13.86-11.57 0-18.87-40.69-14.68-40.69-46.42 0-19.83 15.08-33.41 37.27-33.41 8.04.01 15.59 1.88 23.49 5.67zm-20.07 85.6c2.78-1.44 10.28-6.68 10.28-16.38 0-10.47-8.96-15.93-16.35-19.43-13.6-6.48-24.84-12.25-24.84-27.66 0-5.8.93-12.96 5.41-17.91-5.81 4.67-9.89 12.73-9.89 21.05 0 16.75 11.74 22.54 23.09 27.92 7.82 3.65 17.6 8.74 17.6 19.97.01 5.76-1.98 9.13-5.3 12.44z"/><path fill="#575C00" d="M958.4 264.89s17.79 22.36-614.45 18.76c0 0 96.13-11.56 325.51-14.41 0 0-262.88-4.27-420.83 11.44 0 0-155.96-33.44 709.77-15.79z"/><g fill="#575C00"><path d="M921.32 278.1s.15 6.18-4.9 8.33c0 0 .77-3.72 2.6-5.67 0 0-2.1.12-3.36 5.31-.01.01-1.26-8.59 5.66-7.97zM682.68 295.17c.19.7.5 1.64.93 2.79.43 1.16.93 2.44 1.5 3.85.57 1.41 1.18 2.9 1.83 4.47.64 1.57 1.29 3.12 1.93 4.63l1.83 4.32c.57 1.37 1.07 2.55 1.5 3.54h.29c.57-1.45 1.3-3.27 2.19-5.47.88-2.19 1.78-4.44 2.69-6.74.91-2.3 1.74-4.47 2.51-6.52.76-2.05 1.31-3.67 1.65-4.88h5.78c-.68 1.17-1.46 2.72-2.35 4.64-.89 1.92-1.83 4.02-2.82 6.3-.99 2.28-2.01 4.64-3.07 7.09a548.98 548.98 0 0 0-2.97 6.99l-2.1 5.02h-4.63l-2.46-5.14c-1.06-2.17-2.16-4.48-3.29-6.93-1.13-2.45-2.23-4.8-3.29-7.05a841.97 841.97 0 0 0-2.97-6.27c-.92-1.92-1.69-3.47-2.31-4.64h7.63zM724.21 293.05c2.28 0 4.26.31 5.94.93 1.68.62 3.07 1.43 4.16 2.41 1.09.99 1.91 2.1 2.45 3.35.54 1.25.82 2.49.82 3.73 0 .94-.07 1.7-.22 2.25-.15.56-.32 1.07-.52 1.55-.74.13-1.79.3-3.16.51-1.36.21-2.87.43-4.53.64-1.66.22-3.38.41-5.16.58-1.78.17-3.47.28-5.05.32l-5.42.39c.05 1.99.41 3.68 1.08 5.08.67 1.4 1.53 2.55 2.6 3.43 1.06.89 2.31 1.53 3.75 1.94 1.44.41 2.97.61 4.6.61 1.88 0 3.7-.23 5.46-.68 1.76-.45 3.16-1 4.2-1.64.3.3.57.74.82 1.32.25.58.37 1.04.37 1.38-.5.42-1.19.84-2.08 1.27-.89.42-1.91.81-3.04 1.17-1.14.36-2.38.64-3.71.85-1.34.21-2.7.32-4.08.32-5.2 0-9.2-1.42-11.99-4.25-2.8-2.83-4.19-6.65-4.19-11.46 0-2.06.35-4.05 1.04-5.99.69-1.93 1.74-3.64 3.16-5.12 1.41-1.48 3.18-2.67 5.31-3.57 2.09-.87 4.57-1.32 7.39-1.32zm-10.62 13.45c.74 0 1.95-.03 3.64-.1 1.68-.06 3.43-.15 5.23-.26 1.81-.11 3.49-.24 5.05-.39 1.56-.15 2.61-.31 3.16-.49.35-.43.52-1.08.52-1.94 0-2.03-.78-3.66-2.34-4.89-1.56-1.23-3.45-1.85-5.68-1.85-1.58 0-2.83.16-3.75.49-.92.32-1.7.66-2.34 1-.45.39-.87.92-1.26 1.59-.4.67-.77 1.4-1.11 2.2-.35.8-.62 1.61-.82 2.43-.2.83-.3 1.56-.3 2.21zM773.69 292.79c.25.47.36 1.15.33 2.03-.03.88-.14 1.56-.33 2.03l-7.05-.71v.26c1.19.64 2.24 1.61 3.16 2.9.92 1.29 1.37 2.81 1.37 4.57 0 1.29-.32 2.55-.97 3.8-.64 1.25-1.58 2.34-2.82 3.28-1.24.94-2.76 1.71-4.57 2.28-1.81.58-3.85.87-6.13.87-1.63 0-3.18-.15-4.64-.45-1.46-.3-2.59-.64-3.38-1.03-.69.34-1.24.8-1.63 1.38-.4.58-.59 1.11-.59 1.58 0 1.03.99 1.83 2.97 2.41 1.98.58 5.15 1.15 9.5 1.71 2.38.3 4.49.65 6.35 1.06 1.86.41 3.42.93 4.68 1.58 1.26.64 2.23 1.43 2.9 2.35.67.92 1 2.07 1 3.44 0 1.2-.36 2.38-1.08 3.54-.72 1.16-1.82 2.2-3.3 3.12-1.48.92-3.35 1.66-5.61 2.22-2.25.56-4.91.84-7.98.84-2.38 0-4.54-.18-6.5-.55-1.96-.36-3.65-.88-5.09-1.55s-2.55-1.46-3.34-2.38c-.79-.92-1.19-1.92-1.19-2.99 0-2.02.79-3.58 2.38-4.7.15-.13.4-.19.74-.19.35 0 .72.03 1.11.1.4.06.8.17 1.22.32.42.15.75.31 1 .48-.5.34-.89.74-1.19 1.19-.3.45-.45.95-.45 1.51 0 .69.25 1.35.74 2 .49.64 1.25 1.22 2.26 1.74 1.01.51 2.3.92 3.86 1.22 1.56.3 3.43.45 5.61.45 3.56 0 6.22-.49 7.98-1.48 1.76-.99 2.64-2.15 2.64-3.47 0-1.5-1.06-2.66-3.19-3.48-2.13-.82-5.17-1.52-9.13-2.12-2.52-.39-4.64-.8-6.35-1.25-1.71-.45-3.08-.95-4.12-1.51s-1.78-1.18-2.23-1.87c-.45-.69-.67-1.46-.67-2.32 0-1.12.48-2.15 1.45-3.09.96-.94 1.94-1.76 2.93-2.45-1.39-.69-2.56-1.68-3.53-2.99-.97-1.31-1.45-2.89-1.45-4.73 0-1.72.41-3.25 1.22-4.6.82-1.35 1.93-2.5 3.34-3.44s3.06-1.66 4.94-2.16c1.88-.49 3.91-.74 6.09-.74 1.73 0 3.23.1 4.49.29 1.26.19 2.54.33 3.82.42 1.93-.04 3.5-.12 4.71-.23 1.25-.12 2.48-.28 3.72-.49zm-18.96 3.54c-2.57 0-4.62.54-6.13 1.63-1.51 1.08-2.26 2.88-2.26 5.39 0 1.02.21 1.98.63 2.87.42.89 1.01 1.67 1.78 2.33.77.66 1.72 1.19 2.86 1.59 1.14.4 2.45.61 3.94.61 2.77 0 4.84-.57 6.2-1.72 1.36-1.15 2.04-2.79 2.04-4.91 0-2.34-.74-4.22-2.23-5.65-1.49-1.43-3.76-2.14-6.83-2.14zM803.11 312.49v4.89c0 1.37.02 2.56.07 3.57.05 1.01.1 1.87.15 2.57.05.71.15 1.34.3 1.9l-6.01.52c-.2-.73-.32-1.57-.37-2.51-.05-.94-.1-1.78-.15-2.51h-.22c-.5.56-1.11 1.14-1.86 1.74-.74.6-1.61 1.15-2.6 1.64s-2.09.9-3.3 1.22c-1.21.32-2.56.48-4.05.48-2.72 0-5.02-.72-6.91-2.16-1.88-1.44-2.82-3.44-2.82-6.02 0-1.8.42-3.34 1.26-4.6.84-1.26 2.13-2.29 3.86-3.09 1.73-.79 3.95-1.37 6.64-1.74 2.7-.36 5.9-.57 9.62-.61 0-1.61-.09-3-.26-4.19-.17-1.18-.55-2.17-1.11-2.95-.57-.78-1.35-1.36-2.34-1.75-.99-.38-2.25-.57-3.79-.57-1.68 0-3.44.24-5.27.7-1.83.47-3.61 1.09-5.35 1.87-.4-.34-.72-.85-.97-1.51s-.37-1.23-.37-1.71c2.18-.9 4.48-1.68 6.91-2.35 2.42-.67 4.97-1 7.65-1 3.71 0 6.52.87 8.43 2.61 1.9 1.74 2.86 4.75 2.86 9.04v6.52zm-21.43 2.89c0 .93.19 1.74.56 2.42.37.68.84 1.24 1.41 1.69.57.45 1.22.77 1.97.99.74.21 1.49.32 2.23.32 1.93 0 3.67-.41 5.23-1.24 1.56-.83 2.76-1.81 3.6-2.96v-6.23c-.54-.08-1.22-.19-2.04-.32-.82-.13-1.55-.19-2.19-.19-1.88 0-3.64.12-5.27.35-1.63.23-2.87.63-3.71 1.18-.64.6-1.1 1.24-1.37 1.94-.29.68-.42 1.37-.42 2.05zM832.54 325.21c.1-.34.19-.94.27-1.81.08-.86.14-1.89.19-3.1.05-1.2.09-2.53.11-3.97.02-1.44.04-2.91.04-4.42v-2.84c0-4.04-.49-6.93-1.48-8.68-.99-1.74-2.87-2.61-5.66-2.61-2.02 0-3.91.47-5.66 1.42s-3.2 2.09-4.37 3.42v4.77c0 1.64.01 3.19.04 4.68.02 1.48.05 2.94.08 4.35.02 1.42.08 2.85.15 4.29.08 1.44.16 2.94.26 4.48h-7.5c.26-2.49.41-5.04.46-7.65.05-2.61.08-5.1.08-7.46v-1.39c0-1.73-.04-3.78-.11-6.17-.08-2.38-.27-4.71-.57-6.99l6.97-.7c0 .76-.01 1.54-.04 2.34-.02.8-.06 1.56-.11 2.28h.31c.61-.55 1.34-1.13 2.18-1.74.84-.61 1.8-1.17 2.87-1.68s2.26-.92 3.56-1.23c1.3-.32 2.72-.47 4.25-.47 3.93 0 6.7 1.05 8.31 3.16 1.61 2.11 2.41 5.17 2.41 9.17V315.04c0 1.41.01 2.76.04 4.05.02 1.29.08 2.47.15 3.54.08 1.07.17 1.93.27 2.56h-7.5zM887.41 292.79c.25.47.36 1.15.33 2.03-.02.88-.14 1.56-.33 2.03l-7.06-.71v.26c1.19.64 2.24 1.61 3.16 2.9.92 1.29 1.37 2.81 1.37 4.57 0 1.29-.32 2.55-.96 3.8-.64 1.25-1.59 2.34-2.82 3.28-1.24.94-2.76 1.71-4.57 2.28-1.81.58-3.85.87-6.12.87-1.63 0-3.18-.15-4.64-.45-1.46-.3-2.59-.64-3.38-1.03-.69.34-1.24.8-1.63 1.38-.4.58-.59 1.11-.59 1.58 0 1.03.99 1.83 2.97 2.41 1.98.58 5.15 1.15 9.5 1.71 2.38.3 4.49.65 6.35 1.06 1.86.41 3.42.93 4.68 1.58 1.26.64 2.23 1.43 2.9 2.35.67.92 1 2.07 1 3.44 0 1.2-.36 2.38-1.08 3.54-.72 1.16-1.82 2.2-3.3 3.12-1.49.92-3.35 1.66-5.61 2.22-2.25.56-4.91.84-7.98.84-2.38 0-4.54-.18-6.5-.55-1.96-.36-3.65-.88-5.09-1.55s-2.55-1.46-3.34-2.38c-.79-.92-1.19-1.92-1.19-2.99 0-2.02.79-3.58 2.38-4.7.15-.13.4-.19.74-.19.35 0 .72.03 1.11.1.4.06.8.17 1.23.32.42.15.75.31 1 .48-.5.34-.89.74-1.19 1.19-.3.45-.44.95-.44 1.51 0 .69.25 1.35.74 2 .49.64 1.25 1.22 2.26 1.74 1.01.51 2.3.92 3.86 1.22 1.56.3 3.43.45 5.61.45 3.56 0 6.22-.49 7.98-1.48s2.64-2.15 2.64-3.47c0-1.5-1.07-2.66-3.19-3.48-2.13-.82-5.17-1.52-9.13-2.12-2.52-.39-4.64-.8-6.35-1.25-1.71-.45-3.08-.95-4.12-1.51s-1.78-1.18-2.23-1.87c-.45-.69-.67-1.46-.67-2.32 0-1.12.48-2.15 1.45-3.09s1.94-1.76 2.93-2.45c-1.39-.69-2.56-1.68-3.53-2.99-.97-1.31-1.45-2.89-1.45-4.73 0-1.72.41-3.25 1.22-4.6.82-1.35 1.93-2.5 3.34-3.44s3.05-1.66 4.94-2.16c1.88-.49 3.91-.74 6.09-.74 1.73 0 3.23.1 4.49.29 1.26.19 2.54.33 3.83.42 1.93-.04 3.5-.12 4.71-.23a53.9 53.9 0 0 0 3.68-.49zm-17.45 3.54c-2.57 0-4.62.54-6.13 1.63-1.51 1.08-2.26 2.88-2.26 5.39 0 1.02.21 1.98.63 2.87.42.89 1.01 1.67 1.78 2.33.77.66 1.72 1.19 2.86 1.59 1.14.4 2.45.61 3.94.61 2.77 0 4.84-.57 6.2-1.72 1.36-1.15 2.04-2.79 2.04-4.91 0-2.34-.74-4.22-2.23-5.65-1.48-1.43-3.76-2.14-6.83-2.14zM910.72 293.87c-.05.63-.24 1.43-.56 2.38-.32.95-.83 1.73-1.52 2.33-.35-.26-.74-.47-1.19-.64-.44-.17-1.09-.26-1.93-.26-1.24 0-2.46.36-3.67 1.07-1.21.71-2.22 1.69-2.19 2.94v9.61c-.82 1.42-.8 2.88-.75 4.39.05 1.51.12 3 .22 4.48.1 1.48.22 2.83.37 5.04h-7.28c.25-3.54.38-6.14.41-8.8.02-2.66.04-5.19.58-7.59v-1.74c-.55-1.8-.58-3.69-.66-5.66-.07-1.97-.24-4.44-.48-7.4l6.61-.71a28 28 0 0 1 .04 2.45c-.03.86-.06 1.67-.11 3.71h.22c1.09-2.85 2.4-4.07 3.94-4.9 1.53-.84 3.17-1.26 4.9-1.26 1.14-.01 2.16.18 3.05.56zM914.68 307.08c.5-.69.48-1.63.46-2.83-.03-1.2-.05-2.46-.07-3.76-.03-1.31-.09-2.56-.19-3.77-.1-1.2-.22-2.14-.37-3.69h7.87c-.15 1.55-.26 2.5-.33 3.72-.07 1.22-.14 2.5-.18 3.83-.05 1.33-.09 2.61-.11 3.83-.03 1.22-.04 2.18-.63 2.86v2.12c.59.64.6 1.65.63 3.02.02 1.37.06 2.82.11 4.35.05 1.52.11 2.97.18 4.34.07 1.37.19 2.4.33 1.95h-7.87c.15.49.26-.39.33-1.5.07-1.12.14-2.34.18-3.67.05-1.33.09-2.72.11-4.18.02-1.46.04-2.9-.46-4.31v-2.31zM929.7 295.54c1.13-.64 1.11-1.57 1.09-2.78-.02-1.21-.05-2.5-.07-3.87a97.8 97.8 0 0 0-.14-3.96c-.07-1.27-.13-2.29-.18-3.06.48-.04 1.02-.09 1.64-.15.62-.06 1.25-.1 1.89-.12.64-.02 1.25-.01 1.82.03.57.04 1.07.1 1.5.18 0 1.05-.01 2.38-.04 3.99-.02 1.61-.06 3.44-.11 5.48-.05 2.04-.08 4.23-.11 6.56-.02 2.34-.04 4.74-.87 7.2v9.8c.83 1.57.91 2.8 1.05 3.69s.44 1.53.89 1.94c.45.4 1.07.62 1.86.64.79.02 1.82-.09 3.11-.33.09.32.17.73.21 1.21.05.48-.02.89-.21 1.21-.67.32-1.69.64-3.07.94-1.38.3-2.76.45-4.15.45-1.48 0-2.68-.4-3.61-1.21-.93-.81-1.39-2.32-2.52-4.54v-23.3zM946.87 293.69c-.06-.69-.07-1.67-.1-2.96s-.05-2.66-.07-4.12c-.03-1.46-.07-2.86-.15-4.22-.07-1.35-.14-2.43-.19-3.25.49-.04 1.06-.1 1.71-.16.64-.06 1.3-.11 1.97-.13.67-.02 1.3-.01 1.89.03.59.04 1.11.11 1.56.19 0 1.12-.01 2.53-.04 4.25-.03 1.72-.06 3.66-.11 5.83s-.09 4.5-.11 6.98c-.03 2.49-.04 5.04.07 7.66v10.43c-.11 1.67-.04 2.98.11 3.93.15.94.46 1.63.93 2.06.47.43 1.11.65 1.93.68.82.02 1.89-.1 3.23-.35.1.34.17.77.22 1.29.05.51-.03.94-.22 1.29-.69.34-1.76.68-3.19 1-1.44.32-2.87.48-4.31.48-1.53 0-2.78-.43-3.75-1.29-.97-.86-1.45-2.47-1.39-4.83v-24.79z"/></g><text transform="translate(498.282 746.533)"><tspan x="0" y="0" fill="#FFF09A" font-family="'Roboto-Medium'" font-size="37.521">$</tspan><tspan x="21.33" y="0" fill="#FFF09A" font-family="'Roboto-Medium'" font-size="37.521">1.99</tspan></text><g><text transform="translate(1872.343 655.683)"><tspan x="0" y="0" fill="#FAD297" font-family="'Roboto-Medium'" font-size="24.225">B</tspan><tspan x="15.28" y="0" fill="#FAD297" font-family="'Roboto-Medium'" font-size="24.225">URGERS</tspan></text></g></svg>